<svg width="463" height="465" viewBox="0 0 463 465" fill="none" xmlns="http://www.w3.org/2000/svg">
<path d="M12.8639 310.99C7.03857 294.821 3.04688 278.05 0.963867 260.99" stroke="#3C3C3C" stroke-miterlimit="10"/>
<path d="M109.924 35.0002C146.274 12.7104 188.094 0.940694 230.734 1.00022C272.227 0.980174 312.962 12.1149 348.675 33.2385C384.388 54.3621 413.766 84.6979 433.734 121.07C452.513 155.204 462.332 193.542 462.274 232.5C462.274 360.36 358.624 464 230.774 464C198.446 464.039 166.471 457.289 136.918 444.186C107.365 431.084 80.892 411.922 59.2139 387.94" stroke="#3C3C3C" stroke-miterlimit="10"/>
<path d="M1.18408 202.34C4.90524 173.729 13.98 146.074 27.9341 120.82C47.3918 85.6187 75.6445 56.0636 109.934 35.0403" stroke="#3C3C3C" stroke-miterlimit="10"/>
</svg>
