<svg width="30" height="18" viewBox="0 0 30 18" fill="none" xmlns="http://www.w3.org/2000/svg">
<path d="M0 0H29.9997V2.99996H0V0Z" fill="url(#paint0_linear_54_1761)"/>
<path d="M4.5 8C4.5 7.72386 4.72386 7.5 5 7.5H29.9997V10.5H4.5V8Z" fill="url(#paint1_linear_54_1761)"/>
<path d="M4.5 15H29.9997V18H5C4.72386 18 4.5 17.7761 4.5 17.5V15Z" fill="url(#paint2_linear_54_1761)"/>
<mask id="path-4-inside-1_54_1761" fill="white">
<path fill-rule="evenodd" clip-rule="evenodd" d="M5 10H9.72291C8.79873 8.49996 7.14111 7.5 5.24994 7.5C2.35048 7.5 0 9.85048 0 12.7499C0 15.6494 2.35048 17.9999 5.24994 17.9999C7.34418 17.9999 9.15201 16.7736 9.99462 15H5V14.9956C4.96727 14.9985 4.93412 15 4.90062 15H4.75522C4.52057 15 4.28825 14.9534 4.07174 14.863L4.03793 14.8488C3.60269 14.667 3.26332 14.3114 3.10194 13.8682C3.0345 13.6829 3 13.4874 3 13.2902V13V12.5V12.2273C3 12.0132 3.04106 11.8011 3.12094 11.6025C3.27274 11.2252 3.55675 10.9159 3.91989 10.7327L3.98446 10.7001C4.24517 10.5685 4.53312 10.5 4.82514 10.5H5V10Z"/>
</mask>
<path fill-rule="evenodd" clip-rule="evenodd" d="M5 10H9.72291C8.79873 8.49996 7.14111 7.5 5.24994 7.5C2.35048 7.5 0 9.85048 0 12.7499C0 15.6494 2.35048 17.9999 5.24994 17.9999C7.34418 17.9999 9.15201 16.7736 9.99462 15H5V14.9956C4.96727 14.9985 4.93412 15 4.90062 15H4.75522C4.52057 15 4.28825 14.9534 4.07174 14.863L4.03793 14.8488C3.60269 14.667 3.26332 14.3114 3.10194 13.8682C3.0345 13.6829 3 13.4874 3 13.2902V13V12.5V12.2273C3 12.0132 3.04106 11.8011 3.12094 11.6025C3.27274 11.2252 3.55675 10.9159 3.91989 10.7327L3.98446 10.7001C4.24517 10.5685 4.53312 10.5 4.82514 10.5H5V10Z" fill="url(#paint3_linear_54_1761)"/>
<path d="M9.72291 10V12H13.3042L11.4257 8.95092L9.72291 10ZM5 10V8H3V10H5ZM9.99462 15L11.8011 15.8582L13.159 13H9.99462V15ZM5 15H3V17H5V15ZM5 14.9956H7V12.8084L4.82151 13.0035L5 14.9956ZM4.07174 14.863L4.84281 13.0176L4.8428 13.0176L4.07174 14.863ZM4.03793 14.8488L3.26686 16.6942L3.26687 16.6942L4.03793 14.8488ZM3.10194 13.8682L4.98124 13.1839L4.98124 13.1839L3.10194 13.8682ZM3.12094 11.6025L1.26543 10.8562L1.26543 10.8562L3.12094 11.6025ZM3.91989 10.7327L3.01884 8.94716L3.01884 8.94716L3.91989 10.7327ZM3.98446 10.7001L4.88551 12.4856L4.88552 12.4856L3.98446 10.7001ZM5 10.5V12.5H7V10.5H5ZM9.72291 8H5V12H9.72291V8ZM5.24994 9.5C6.41838 9.5 7.44482 10.1153 8.02013 11.0491L11.4257 8.95092C10.1526 6.88464 7.86385 5.5 5.24994 5.5V9.5ZM2 12.7499C2 10.955 3.45505 9.5 5.24994 9.5V5.5C1.24591 5.5 -2 8.74591 -2 12.7499H2ZM5.24994 15.9999C3.45505 15.9999 2 14.5448 2 12.7499H-2C-2 16.754 1.24591 19.9999 5.24994 19.9999V15.9999ZM8.18811 14.1418C7.6643 15.2444 6.54335 15.9999 5.24994 15.9999V19.9999C8.145 19.9999 10.6397 18.3029 11.8011 15.8582L8.18811 14.1418ZM5 17H9.99462V13H5V17ZM3 14.9956V15H7V14.9956H3ZM4.90062 17C4.99379 17 5.08649 16.9958 5.17849 16.9876L4.82151 13.0035C4.84804 13.0012 4.87445 13 4.90062 13V17ZM4.75522 17H4.90062V13H4.75522V17ZM3.30067 16.7083C3.76144 16.9009 4.25585 17 4.75522 17V13C4.78529 13 4.81507 13.006 4.84281 13.0176L3.30067 16.7083ZM3.26687 16.6942L3.30068 16.7083L4.8428 13.0176L4.80899 13.0034L3.26687 16.6942ZM1.22263 14.5524C1.5751 15.5205 2.31629 16.297 3.26686 16.6942L4.809 13.0034C4.88909 13.0369 4.95154 13.1023 4.98124 13.1839L1.22263 14.5524ZM1 13.2902C1 13.7207 1.07535 14.1479 1.22263 14.5524L4.98124 13.1839C4.99365 13.218 5 13.254 5 13.2902H1ZM1 13V13.2902H5V13H1ZM1 12.5V13H5V12.5H1ZM1 12.2273V12.5H5V12.2273H1ZM1.26543 10.8562C1.0901 11.292 1 11.7575 1 12.2273H5C5 12.269 4.99201 12.3102 4.97646 12.3489L1.26543 10.8562ZM3.01884 8.94716C2.22186 9.34935 1.59857 10.0279 1.26543 10.8562L4.97646 12.3489C4.94691 12.4224 4.89163 12.4825 4.82095 12.5182L3.01884 8.94716ZM3.08341 8.91458L3.01884 8.94716L4.82094 12.5182L4.88551 12.4856L3.08341 8.91458ZM4.82514 8.5C4.22012 8.5 3.62355 8.642 3.08341 8.91458L4.88552 12.4856C4.86679 12.4951 4.84611 12.5 4.82514 12.5V8.5ZM5 8.5H4.82514V12.5H5V8.5ZM3 10V10.5H7V10H3Z" fill="url(#paint4_linear_54_1761)" mask="url(#path-4-inside-1_54_1761)"/>
<defs>
<linearGradient id="paint0_linear_54_1761" x1="29.9997" y1="1.49998" x2="1.14831e-07" y2="1.49998" gradientUnits="userSpaceOnUse">
<stop stop-color="#DA1380"/>
</linearGradient>
<linearGradient id="paint1_linear_54_1761" x1="29.9997" y1="8.99998" x2="4.5" y2="8.99998" gradientUnits="userSpaceOnUse">
<stop stop-color="#DA1280"/>
</linearGradient>
<linearGradient id="paint2_linear_54_1761" x1="29.9997" y1="16.5" x2="4.5" y2="16.5" gradientUnits="userSpaceOnUse">
<stop stop-color="#DA1280"/>
</linearGradient>
<linearGradient id="paint3_linear_54_1761" x1="4.49995" y1="12.7499" x2="-2.40279e-07" y2="12.7499" gradientUnits="userSpaceOnUse">
<stop offset="0.947917" stop-color="#DA137F"/>
</linearGradient>
<linearGradient id="paint4_linear_54_1761" x1="4.49995" y1="12.7499" x2="-0.749991" y2="12.7499" gradientUnits="userSpaceOnUse">
<stop stop-color="#DA1281"/>
</linearGradient>
</defs>
</svg>
