<svg width="131" height="109" viewBox="0 0 131 109" fill="none" xmlns="http://www.w3.org/2000/svg">
<path d="M106.487 61.4681C106.768 61.4666 107.037 61.3541 107.236 61.1552C107.434 60.9563 107.545 60.6872 107.545 60.4066C107.545 60.1266 107.434 59.858 107.235 59.6599C107.037 59.4619 106.768 59.3506 106.487 59.3506C106.206 59.3506 105.936 59.4617 105.736 59.6595C105.537 59.8574 105.424 60.126 105.423 60.4066C105.423 60.6882 105.535 60.9582 105.734 61.1573C105.934 61.3563 106.205 61.4681 106.487 61.4681Z" fill="#E11B68"/>
<path d="M24.2212 61.4681C24.5034 61.4681 24.7741 61.3564 24.9736 61.1573C25.1732 60.9582 25.2853 60.6882 25.2853 60.4066C25.2853 60.2675 25.2578 60.1296 25.2042 60.0011C25.1507 59.8727 25.0722 59.756 24.9733 59.6579C24.8744 59.5598 24.757 59.4822 24.628 59.4295C24.4989 59.3767 24.3607 59.3499 24.2212 59.3506C23.9404 59.3506 23.6712 59.4619 23.4727 59.66C23.2742 59.858 23.1627 60.1266 23.1627 60.4066C23.1627 60.6872 23.274 60.9563 23.4724 61.1552C23.6707 61.3541 23.9399 61.4667 24.2212 61.4681Z" fill="#E11B68"/>
<path d="M66.336 1.53685C66.3345 1.25628 66.2217 0.987643 66.0223 0.789772C65.8229 0.591901 65.5531 0.480953 65.2718 0.480957C64.9911 0.480957 64.7219 0.592152 64.5234 0.790183C64.3248 0.988214 64.2133 1.25679 64.2133 1.53685C64.2133 1.81743 64.3247 2.08665 64.523 2.28558C64.7214 2.4845 64.9906 2.59688 65.2718 2.59837C65.5541 2.59837 65.8247 2.48658 66.0243 2.2875C66.2239 2.08841 66.336 1.8184 66.336 1.53685Z" fill="#E11B68"/>
<path d="M65.6715 106.914L101.988 64.9619H102.736L65.2549 108.251L65.0409 108.481L64.8326 108.251L27.3568 64.9619H28.1L64.416 106.914L65.0409 107.678L65.6715 106.914Z" fill="#E11B68"/>
<path d="M109.842 55.857L128.873 33.8729L129.014 33.2887L108.046 1.7559L107.5 1.57626H69.8328V1.01458H107.872L108.024 0.789823L108.176 1.01458H108.547L108.362 1.29542L130.044 33.8729H129.644L110.614 55.857H109.842Z" fill="#E11967"/>
<path d="M60.689 1.55377H22.5657L22.0815 1.7559L1.1139 33.2887L1.1871 33.8504L20.2178 55.8345H19.4746L0.443881 33.8504H0.0441284L21.7268 1.27293L21.5409 0.992089H21.9125L22.0646 0.767334L22.2166 0.992089H60.689V1.55377Z" fill="#E11967"/>
</svg>
