<svg width="236" height="197" viewBox="0 0 236 197" fill="none" xmlns="http://www.w3.org/2000/svg">
<g clip-path="url(#clip0_658_53)">
<path d="M193.234 111.245C193.745 111.243 194.233 111.037 194.593 110.675C194.954 110.312 195.156 109.821 195.156 109.309C195.156 108.798 194.953 108.308 194.593 107.947C194.232 107.586 193.744 107.383 193.234 107.383C192.723 107.383 192.234 107.585 191.872 107.946C191.51 108.307 191.305 108.797 191.302 109.309C191.302 109.823 191.506 110.315 191.868 110.678C192.23 111.041 192.722 111.245 193.234 111.245Z" fill="#E11B68"/>
<path d="M43.8904 111.245C44.4027 111.245 44.8941 111.041 45.2564 110.678C45.6187 110.315 45.8222 109.823 45.8222 109.309C45.8222 109.055 45.7722 108.804 45.6749 108.569C45.5777 108.335 45.4353 108.122 45.2558 107.943C45.0763 107.764 44.8632 107.623 44.6289 107.527C44.3945 107.43 44.1436 107.381 43.8904 107.383C43.3807 107.383 42.892 107.586 42.5316 107.947C42.1712 108.308 41.9688 108.798 41.9688 109.309C41.9687 109.821 42.1709 110.312 42.531 110.675C42.8911 111.037 43.3798 111.243 43.8904 111.245Z" fill="#E11B68"/>
<path d="M120.346 1.92615C120.343 1.41436 120.138 0.924355 119.776 0.563423C119.414 0.202492 118.924 0.000114907 118.414 0.000122071C117.904 0.000122071 117.415 0.20295 117.055 0.564173C116.695 0.925397 116.492 1.4153 116.492 1.92615C116.492 2.43794 116.694 2.92903 117.054 3.29188C117.414 3.65473 117.903 3.85973 118.414 3.86244C118.926 3.86244 119.418 3.65853 119.78 3.29538C120.142 2.93224 120.346 2.43971 120.346 1.92615Z" fill="#E11B68"/>
<path d="M119.14 194.142L185.067 117.618H186.426L118.383 196.58L117.995 197L117.617 196.58L49.5835 117.618H50.9327L116.86 194.142L117.995 195.535L119.14 194.142Z" fill="#E11B68"/>
<path d="M79.665 60.9094H156.325H79.665ZM157.347 60.9094H233.874L199.326 101.01H200.726L235.274 60.9094H236L196.638 1.48566L196.975 0.973391H196.3L196.024 0.563422L195.748 0.973391H126.693V1.99794H195.074L176.042 30.7568L157.01 59.5159L137.978 30.7568L124.066 9.73332H122.84L136.996 31.1258L156.028 59.8849H79.9001L98.9321 31.1258L113.099 9.73332H111.872L97.9816 30.716L78.9494 59.4749L59.9174 30.716L40.8853 1.95692H110.094V0.932369H40.2516L39.9756 0.5224L39.6996 0.932369H39.025L39.3623 1.44464L0 60.8684H0.725705L35.2738 100.969H36.623L2.07493 60.8684H78.6019M1.94204 59.8439L40.0063 2.32561L59.0383 31.0847L78.0704 59.8439H1.94204ZM158.001 59.8439L177.033 31.0847L196.065 2.32561L234.13 59.8439H158.001Z" fill="#E11B68"/>
</g>
<defs>
<clipPath id="clip0_658_53">
<rect width="236" height="197" fill="white"/>
</clipPath>
</defs>
</svg>
