<svg width="23" height="25" viewBox="0 0 23 25" fill="none" xmlns="http://www.w3.org/2000/svg">
<circle cx="11.1439" cy="11.6226" r="10.6439" stroke="#EA7C05"/>
<g clip-path="url(#clip0_902_2)">
<path d="M8.29961 9.79018L10.7203 7.39399L8.10973 4.80981C7.79181 5.12447 7.5396 5.49803 7.36754 5.90917C7.19548 6.32032 7.10693 6.76098 7.10693 7.20601C7.10693 7.65103 7.19548 8.0917 7.36754 8.50284C7.5396 8.91399 7.79181 9.28755 8.10973 9.6022L8.29961 9.79018Z" fill="#EA7C05"/>
<path d="M14.6794 11.3488L14.0183 10.6849L11.6145 13.0645L13.2707 14.704C13.6901 15.1189 13.9758 15.6476 14.0916 16.2232C14.2074 16.7989 14.1481 17.3956 13.9213 17.9379C13.6945 18.4802 13.3103 18.9437 12.8173 19.2698C12.3243 19.596 11.7447 19.77 11.1517 19.77C10.5588 19.77 9.97916 19.596 9.48617 19.2698C8.99318 18.9437 8.60896 18.4802 8.38213 17.9379C8.15531 17.3956 8.09604 16.7989 8.21185 16.2232C8.32766 15.6476 8.61335 15.1189 9.03275 14.704L11.0544 12.7051L13.04 10.7373C13.3578 10.4228 13.6099 10.0495 13.782 9.63851C13.954 9.22757 14.0425 8.7871 14.0425 8.34227C14.0425 7.89744 13.954 7.45696 13.782 7.04601C13.6099 6.63507 13.3578 6.26172 13.04 5.94727L8.15534 10.7825L8.17218 10.7991L7.61688 11.3512C6.68959 12.2816 6.17171 13.5374 6.1763 14.8444C6.18088 16.1514 6.70755 17.4035 7.64135 18.3275C8.57514 19.2516 9.84026 19.7725 11.1606 19.7766C12.481 19.7807 13.7494 19.2676 14.689 18.3494C15.1528 17.8892 15.5205 17.343 15.771 16.742C16.0216 16.1411 16.1501 15.4972 16.1492 14.8471C16.1483 14.197 16.018 13.5535 15.7658 12.9532C15.5136 12.353 15.1445 11.8078 14.6794 11.3488Z" fill="#EA7C05"/>
</g>
<defs>
<clipPath id="clip0_902_2">
<rect width="10" height="20" fill="white" transform="translate(6.14355 4.80981)"/>
</clipPath>
</defs>
</svg>
