<svg width="178" height="221" viewBox="0 0 178 221" fill="none" xmlns="http://www.w3.org/2000/svg">
<g clip-path="url(#clip0_708_364)">
<path d="M177.954 131.377C177.956 131.002 177.846 130.636 177.639 130.323C177.433 130.011 177.137 129.767 176.792 129.623C176.446 129.479 176.065 129.44 175.698 129.513C175.33 129.585 174.992 129.766 174.727 130.031C174.462 130.296 174.282 130.633 174.21 131.001C174.137 131.368 174.175 131.749 174.32 132.095C174.464 132.441 174.708 132.736 175.02 132.943C175.332 133.15 175.699 133.259 176.074 133.257C176.572 133.254 177.048 133.056 177.4 132.704C177.752 132.352 177.951 131.875 177.954 131.377Z" fill="#E11967"/>
<path d="M4.16425 131.377C4.16623 131.002 4.05681 130.636 3.8499 130.323C3.64299 130.011 3.34791 129.767 3.00216 129.623C2.6564 129.479 2.27556 129.44 1.90801 129.513C1.54045 129.585 1.20277 129.766 0.937848 130.031C0.672926 130.296 0.492716 130.633 0.420109 131.001C0.347502 131.368 0.385773 131.749 0.53006 132.095C0.674348 132.441 0.918144 132.736 1.23048 132.943C1.54282 133.15 1.9096 133.259 2.28425 133.257C2.78205 133.254 3.25871 133.056 3.61071 132.704C3.96271 132.352 4.16163 131.875 4.16425 131.377Z" fill="#E11967"/>
<path d="M3.94381 123.267C5.68381 104.217 14.6938 86.7572 31.3938 70.0872C31.8638 69.6272 40.6738 62.6671 41.3138 62.2671C57.3138 52.5671 65.8938 42.4372 66.7738 32.1572C67.5538 23.1572 62.5938 14.1571 51.6138 4.56714C51.3171 4.30397 51.1107 3.95412 51.0238 3.56714C50.9408 3.17658 50.9864 2.76974 51.1538 2.40723C51.3162 2.04198 51.5936 1.73982 51.9438 1.54712C52.2256 1.39268 52.5425 1.31349 52.8638 1.31714H53.1638H53.2338C54.6338 1.52714 56.2338 1.72726 57.9538 1.93726C79.6738 4.62726 124.874 10.2173 125.954 76.1773C125.963 76.7015 126.115 77.2134 126.394 77.6572C126.67 78.1023 127.061 78.4651 127.525 78.7078C127.99 78.9505 128.511 79.0641 129.034 79.0371C129.56 79.0067 130.068 78.8338 130.504 78.5371C136.754 74.2371 147.504 64.6771 149.364 49.0671C149.404 48.6543 149.576 48.2654 149.854 47.9573C150.062 47.7261 150.324 47.5494 150.616 47.4431C150.909 47.3368 151.223 47.304 151.531 47.3474C151.839 47.3909 152.132 47.5094 152.383 47.6924C152.635 47.8754 152.838 48.1175 152.974 48.3972C160.914 64.6572 173.494 94.5471 175.184 123.267H176.184C174.504 94.3571 161.854 64.2673 153.874 47.9573C153.595 47.385 153.134 46.9209 152.564 46.6372C151.997 46.3518 151.352 46.2607 150.729 46.3782C150.105 46.4957 149.538 46.8151 149.114 47.2871C148.691 47.7518 148.431 48.3417 148.374 48.9673C146.584 64.1673 136.054 73.5073 129.934 77.7173C129.637 77.9158 129.291 78.0265 128.934 78.0371C128.588 78.0549 128.243 77.9826 127.934 77.8272C127.626 77.6677 127.37 77.4252 127.194 77.1272C127.007 76.8267 126.907 76.4808 126.904 76.1272C125.844 9.2972 80.0538 3.63724 58.0538 0.917241C56.3238 0.707241 54.7538 0.507124 53.2938 0.297124H53.2138C52.6039 0.223304 51.9861 0.338571 51.4438 0.627202C50.9052 0.927662 50.4768 1.39249 50.2213 1.95386C49.9658 2.51523 49.8966 3.14356 50.0238 3.74707C50.1643 4.34583 50.4855 4.88698 50.9438 5.29712C61.6538 14.6171 66.5038 23.3671 65.7638 32.0371C64.9038 42.0371 56.5038 51.8572 40.7638 61.3872C40.0538 61.8372 31.1838 68.8372 30.6638 69.3872C13.7638 86.2472 4.66381 103.937 2.90381 123.267H3.94381Z" fill="#E11967"/>
<path d="M174.864 139.477C169.864 192.177 128.384 214.757 97.8643 218.187V219.187C114.65 217.145 130.557 210.55 143.864 200.117C157.044 189.727 172.864 170.927 175.864 139.487L174.864 139.477Z" fill="#E11967"/>
<path d="M81.6439 218.267C44.7739 214.757 8.23393 187.457 4.02393 139.477H3.02393C5.48393 168.837 19.3139 187.117 31.0839 197.547C45.2421 209.923 62.9402 217.523 81.6639 219.267L81.6439 218.267Z" fill="#E11967"/>
<path d="M89.754 217.047C89.3798 217.045 89.0134 217.154 88.7013 217.361C88.3891 217.567 88.1453 217.862 88.0008 218.207C87.8562 218.552 87.8173 218.933 87.8891 219.3C87.9609 219.667 88.1401 220.005 88.404 220.27C88.668 220.535 89.0047 220.716 89.3716 220.79C89.7385 220.864 90.119 220.827 90.4649 220.684C90.8109 220.542 91.1066 220.299 91.3148 219.988C91.5229 219.677 91.634 219.312 91.634 218.937C91.634 218.438 91.4363 217.958 91.084 217.604C90.7317 217.25 90.2535 217.05 89.754 217.047Z" fill="#E11967"/>
</g>
<defs>
<clipPath id="clip0_708_364">
<rect width="177.56" height="220.52" fill="white" transform="translate(0.394043 0.307129)"/>
</clipPath>
</defs>
</svg>
