<svg width="69" height="70" viewBox="0 0 69 70" fill="none" xmlns="http://www.w3.org/2000/svg">
<g clip-path="url(#clip0_432_103)">
<path fill-rule="evenodd" clip-rule="evenodd" d="M30.6419 69.3886C31.2148 69.3872 31.7744 69.2177 32.2501 68.9014C32.7257 68.585 33.096 68.1361 33.3142 67.6114C33.5324 67.0866 33.5887 66.5096 33.4761 65.9531C33.3634 65.3967 33.0868 64.8857 32.6812 64.4849C32.2756 64.0842 31.7592 63.8116 31.1972 63.7014C30.6352 63.5912 30.0529 63.6484 29.5237 63.8659C28.9946 64.0835 28.5424 64.4515 28.2242 64.9234C27.9061 65.3954 27.7363 65.9501 27.7363 66.5177C27.7363 66.8953 27.8115 67.2692 27.9576 67.618C28.1038 67.9668 28.3179 68.2837 28.5878 68.5504C28.8577 68.8171 29.1781 69.0284 29.5306 69.1722C29.883 69.3161 30.2607 69.3896 30.6419 69.3886Z" fill="#70747E"/>
<path fill-rule="evenodd" clip-rule="evenodd" d="M48.9943 67.3987C49.6892 67.3987 50.3685 67.1946 50.9463 66.8121C51.524 66.4297 51.9744 65.8861 52.2403 65.2502C52.5062 64.6142 52.5758 63.9145 52.4402 63.2393C52.3046 62.5642 51.9701 61.944 51.4787 61.4572C50.9873 60.9705 50.3613 60.6389 49.6798 60.5046C48.9982 60.3703 48.2918 60.4393 47.6498 60.7027C47.0078 60.9661 46.4591 61.4123 46.0731 61.9846C45.687 62.557 45.481 63.2298 45.481 63.9182C45.481 64.8413 45.8511 65.7267 46.51 66.3794C47.1689 67.0321 48.0625 67.3987 48.9943 67.3987Z" fill="#70747E"/>
<path fill-rule="evenodd" clip-rule="evenodd" d="M61.9215 55.3568C62.7384 55.3568 63.5369 55.1168 64.216 54.667C64.8951 54.2173 65.4243 53.5782 65.7366 52.8304C66.0488 52.0827 66.1302 51.2598 65.9703 50.4663C65.8104 49.6727 65.4164 48.9439 64.8383 48.3722C64.2601 47.8006 63.5238 47.4117 62.7225 47.2547C61.9211 47.0977 61.0907 47.1798 60.3365 47.4904C59.5822 47.8011 58.9379 48.3265 58.4852 49C58.0324 49.6736 57.7915 50.465 57.793 51.2742C57.793 51.811 57.8998 52.3425 58.1074 52.8383C58.3149 53.3341 58.6192 53.7844 59.0027 54.1636C59.3861 54.5428 59.8413 54.8434 60.3422 55.0481C60.843 55.2529 61.3797 55.3578 61.9215 55.3568Z" fill="#70747E"/>
<path fill-rule="evenodd" clip-rule="evenodd" d="M64.2564 37.5799C65.1953 37.5814 66.1135 37.3068 66.8947 36.791C67.676 36.2751 68.2851 35.5412 68.6451 34.6822C69.0051 33.8232 69.0997 32.8777 68.9169 31.9655C68.7341 31.0532 68.2821 30.2152 67.6182 29.5575C66.9543 28.8999 66.1084 28.4522 65.1875 28.2711C64.2666 28.09 63.3122 28.1836 62.445 28.5402C61.5779 28.8968 60.8371 29.5003 60.3164 30.2742C59.7957 31.0482 59.5186 31.9577 59.52 32.8878C59.52 34.1322 60.019 35.3257 60.9073 36.2057C61.7955 37.0856 63.0003 37.5799 64.2564 37.5799Z" fill="#70747E"/>
<path fill-rule="evenodd" clip-rule="evenodd" d="M53.2789 24.0837C54.3391 24.0837 55.3756 23.7723 56.257 23.1886C57.1384 22.6049 57.8253 21.7754 58.2307 20.8049C58.6361 19.8344 58.7418 18.7666 58.5344 17.7366C58.327 16.7066 57.8159 15.7605 57.0657 15.0183C56.3155 14.2762 55.3599 13.7712 54.3199 13.5672C53.2798 13.3632 52.2021 13.4694 51.223 13.8723C50.2439 14.2752 49.4074 14.9568 48.8194 15.8308C48.2315 16.7048 47.9185 17.7319 47.9199 18.7822C47.9199 19.479 48.0586 20.1691 48.328 20.8128C48.5974 21.4565 48.9923 22.0412 49.49 22.5336C49.9877 23.026 50.5785 23.4163 51.2287 23.6823C51.8788 23.9483 52.5755 24.0847 53.2789 24.0837Z" fill="#70747E"/>
<path fill-rule="evenodd" clip-rule="evenodd" d="M34.9932 23.1585C36.1733 23.1585 37.3269 22.8118 38.3082 22.1623C39.2894 21.5128 40.0541 20.5898 40.5057 19.5097C40.9574 18.4296 41.0756 17.2411 40.8453 16.0945C40.6151 14.9479 40.0468 13.8946 39.2123 13.0679C38.3779 12.2413 37.3146 11.6783 36.1572 11.4502C34.9998 11.2221 33.8 11.3393 32.7097 11.7867C31.6195 12.2341 30.6876 12.9917 30.0319 13.9637C29.3763 14.9358 29.0264 16.0786 29.0264 17.2477C29.0264 18.8154 29.655 20.3188 30.774 21.4273C31.893 22.5358 33.4107 23.1585 34.9932 23.1585Z" fill="#70747E"/>
<path fill-rule="evenodd" clip-rule="evenodd" d="M23.7929 37.6457C25.095 37.6457 26.3679 37.2632 27.4505 36.5464C28.533 35.8297 29.3767 34.8109 29.8746 33.619C30.3726 32.4271 30.5025 31.1157 30.2479 29.8507C29.9934 28.5856 29.3657 27.4238 28.4445 26.5122C27.5232 25.6006 26.3498 24.9801 25.0725 24.7294C23.7952 24.4786 22.4715 24.6088 21.269 25.1035C20.0664 25.5981 19.0389 26.4349 18.3166 27.5082C17.5942 28.5814 17.2095 29.8428 17.2109 31.1328C17.2129 32.8608 17.9072 34.5174 19.1413 35.7387C20.3755 36.9599 22.0485 37.6457 23.7929 37.6457Z" fill="#70747E"/>
<path fill-rule="evenodd" clip-rule="evenodd" d="M40.4335 0.395961C39.8615 0.362158 39.2921 0.497225 38.7975 0.783895C38.3028 1.07056 37.9051 1.49611 37.6545 2.00667C37.404 2.51723 37.3118 3.08991 37.3897 3.65234C37.4676 4.21478 37.7121 4.74161 38.0922 5.16643C38.4724 5.59125 38.9711 5.89485 39.5255 6.03892C40.0798 6.183 40.6648 6.16103 41.2065 5.97582C41.7482 5.79061 42.2223 5.45055 42.569 4.99846C42.9156 4.54636 43.1191 4.00263 43.1538 3.43597C43.1779 3.05917 43.1265 2.68139 43.0026 2.32433C42.8788 1.96728 42.6848 1.63793 42.432 1.3554C42.1792 1.07287 41.8724 0.8426 41.5295 0.677948C41.1865 0.513297 40.814 0.417474 40.4335 0.395961Z" fill="#EA7C05"/>
<path fill-rule="evenodd" clip-rule="evenodd" d="M18.7382 2.42268C17.9518 2.37038 17.1675 2.55049 16.4846 2.94022C15.8017 3.32995 15.251 3.91177 14.9022 4.61188C14.5534 5.312 14.4223 6.09896 14.5254 6.87298C14.6286 7.64699 14.9613 8.37317 15.4816 8.95964C16.0018 9.54612 16.6861 9.96653 17.4477 10.1674C18.2093 10.3682 19.0139 10.3404 19.7596 10.0878C20.5053 9.83512 21.1585 9.36889 21.6364 8.74811C22.1144 8.12732 22.3955 7.38009 22.4443 6.60085C22.5074 5.56107 22.1533 4.53854 21.4592 3.75606C20.7651 2.97359 19.7872 2.49438 18.7382 2.42268Z" fill="#EA7C05"/>
<path fill-rule="evenodd" clip-rule="evenodd" d="M5.37386 18.5182C4.37611 18.4576 3.38266 18.6913 2.51906 19.1901C1.65545 19.6888 0.960479 20.43 0.52201 21.3199C0.0835415 22.2098 -0.0787293 23.2085 0.0556726 24.1898C0.190074 25.1711 0.61513 26.0909 1.27712 26.8329C1.9391 27.5749 2.80827 28.1058 3.77479 28.3585C4.74131 28.6112 5.76179 28.5742 6.70718 28.2525C7.65258 27.9308 8.48047 27.3387 9.08619 26.5509C9.69192 25.7632 10.0483 24.8153 10.1103 23.827C10.1894 22.5016 9.73562 21.199 8.84805 20.2042C7.96048 19.2093 6.71136 18.6032 5.37386 18.5182Z" fill="#EA7C05"/>
<path fill-rule="evenodd" clip-rule="evenodd" d="M9.61345 38.5051C8.40201 38.4305 7.19541 38.7133 6.14627 39.3179C5.09713 39.9226 4.25252 40.8219 3.71926 41.9021C3.18599 42.9822 2.98802 44.1947 3.15036 45.3863C3.3127 46.5779 3.82807 47.6951 4.63131 48.5966C5.43454 49.4981 6.48954 50.1433 7.66295 50.4508C8.83637 50.7583 10.0755 50.7143 11.2236 50.3242C12.3717 49.9341 13.3773 49.2154 14.1132 48.2592C14.8491 47.303 15.2823 46.1522 15.3579 44.9521C15.4573 43.343 14.9084 41.7605 13.8314 40.5518C12.7545 39.3432 11.2376 38.6071 9.61345 38.5051Z" fill="#EA7C05"/>
<path fill-rule="evenodd" clip-rule="evenodd" d="M29.686 45.9064C28.2608 45.8177 26.8412 46.1497 25.6065 46.8603C24.3718 47.5709 23.3776 48.6281 22.7495 49.8985C22.1215 51.1689 21.8878 52.5953 22.0781 53.9973C22.2683 55.3992 22.874 56.7138 23.8185 57.7748C24.7629 58.8357 26.0038 59.5952 27.3841 59.9575C28.7644 60.3198 30.2222 60.2685 31.573 59.81C32.9239 59.3515 34.1071 58.5065 34.9732 57.3818C35.8392 56.2571 36.3492 54.9033 36.4385 53.4916C36.5582 51.5987 35.9141 49.7362 34.6478 48.3138C33.3815 46.8914 31.5967 46.0254 29.686 45.9064Z" fill="#EA7C05"/>
<path fill-rule="evenodd" clip-rule="evenodd" d="M45.3921 30.8027C43.7546 30.7012 42.1236 31.083 40.7052 31.8999C39.2869 32.7169 38.145 33.9321 37.424 35.3921C36.703 36.852 36.4352 38.4911 36.6546 40.1018C36.8739 41.7125 37.5705 43.2225 38.6564 44.4409C39.7422 45.6594 41.1683 46.5315 42.7545 46.9469C44.3407 47.3623 46.0156 47.3021 47.5673 46.7744C49.1191 46.2467 50.478 45.2751 51.4722 43.9822C52.4664 42.6893 53.0512 41.1333 53.1527 39.5111C53.2886 37.3369 52.5475 35.1983 51.0922 33.5653C49.637 31.9323 47.5867 30.9386 45.3921 30.8027Z" fill="#EA7C05"/>
</g>
<defs>
<clipPath id="clip0_432_103">
<rect width="69" height="69" fill="white" transform="translate(0 0.388672)"/>
</clipPath>
</defs>
</svg>
