<svg width="69" height="71" viewBox="0 0 69 71" fill="none" xmlns="http://www.w3.org/2000/svg">
<g clip-path="url(#clip0_432_153)">
<path d="M52.3586 40.0308C54.021 40.0308 55.3686 38.6744 55.3686 37.0012C55.3686 35.3281 54.021 33.9717 52.3586 33.9717C50.6962 33.9717 49.3486 35.3281 49.3486 37.0012C49.3486 38.6744 50.6962 40.0308 52.3586 40.0308Z" fill="#414648"/>
<path d="M45.9314 26.6404C47.5937 26.6404 48.9413 25.284 48.9413 23.6108C48.9413 21.9377 47.5937 20.5813 45.9314 20.5813C44.269 20.5813 42.9214 21.9377 42.9214 23.6108C42.9214 25.284 44.269 26.6404 45.9314 26.6404Z" fill="#70747E"/>
<path d="M31.3264 23.3517C32.9887 23.3517 34.3364 21.9953 34.3364 20.3222C34.3364 18.649 32.9887 17.2926 31.3264 17.2926C29.664 17.2926 28.3164 18.649 28.3164 20.3222C28.3164 21.9953 29.664 23.3517 31.3264 23.3517Z" fill="#70747E"/>
<path d="M19.9182 32.5487C21.5805 32.5487 22.9281 31.1923 22.9281 29.5192C22.9281 27.846 21.5805 26.4896 19.9182 26.4896C18.2558 26.4896 16.9082 27.846 16.9082 29.5192C16.9082 31.1923 18.2558 32.5487 19.9182 32.5487Z" fill="#70747E"/>
<path d="M19.9416 47.6635C21.604 47.6635 22.9516 46.3071 22.9516 44.6339C22.9516 42.9607 21.604 41.6044 19.9416 41.6044C18.2793 41.6044 16.9316 42.9607 16.9316 44.6339C16.9316 46.3071 18.2793 47.6635 19.9416 47.6635Z" fill="#70747E"/>
<path d="M31.3776 56.8228C33.04 56.8228 34.3876 55.4664 34.3876 53.7932C34.3876 52.12 33.04 50.7637 31.3776 50.7637C29.7153 50.7637 28.3677 52.12 28.3677 53.7932C28.3677 55.4664 29.7153 56.8228 31.3776 56.8228Z" fill="#70747E"/>
<path d="M45.969 53.4917C47.6313 53.4917 48.9789 52.1353 48.9789 50.4622C48.9789 48.789 47.6313 47.4326 45.969 47.4326C44.3066 47.4326 42.959 48.789 42.959 50.4622C42.959 52.1353 44.3066 53.4917 45.969 53.4917Z" fill="#70747E"/>
<path d="M57.0258 21.2268C60.3505 21.2268 63.0457 18.5141 63.0457 15.1677C63.0457 11.8214 60.3505 9.10864 57.0258 9.10864C53.7011 9.10864 51.0059 11.8214 51.0059 15.1677C51.0059 18.5141 53.7011 21.2268 57.0258 21.2268Z" fill="#EA7C05"/>
<path d="M40.8196 12.3313C43.9582 12.3313 46.5025 9.77046 46.5025 6.61146C46.5025 3.45247 43.9582 0.891602 40.8196 0.891602C37.681 0.891602 35.1367 3.45247 35.1367 6.61146C35.1367 9.77046 37.681 12.3313 40.8196 12.3313Z" fill="#EA7C05"/>
<path d="M22.1229 14.4609C25.0728 14.4609 27.4641 12.0541 27.4641 9.08502C27.4641 6.11599 25.0728 3.70911 22.1229 3.70911C19.1731 3.70911 16.7817 6.11599 16.7817 9.08502C16.7817 12.0541 19.1731 14.4609 22.1229 14.4609Z" fill="#EA7C05"/>
<path d="M8.75365 26.4567C11.5174 26.4567 13.7578 24.2017 13.7578 21.42C13.7578 18.6383 11.5174 16.3833 8.75365 16.3833C5.98994 16.3833 3.74951 18.6383 3.74951 21.42C3.74951 24.2017 5.98994 26.4567 8.75365 26.4567Z" fill="#EA7C05"/>
<path d="M4.6671 44.5397C7.24466 44.5397 9.33419 42.4366 9.33419 39.8422C9.33419 37.2479 7.24466 35.1448 4.6671 35.1448C2.08953 35.1448 0 37.2479 0 39.8422C0 42.4366 2.08953 44.5397 4.6671 44.5397Z" fill="#EA7C05"/>
<path d="M11.7497 61.313C14.1385 61.313 16.0751 59.3638 16.0751 56.9595C16.0751 54.5551 14.1385 52.606 11.7497 52.606C9.36085 52.606 7.42432 54.5551 7.42432 56.9595C7.42432 59.3638 9.36085 61.313 11.7497 61.313Z" fill="#EA7C05"/>
<path d="M27.0709 70.8916C29.2735 70.8916 31.0592 69.0943 31.0592 66.8773C31.0592 64.6603 29.2735 62.863 27.0709 62.863C24.8682 62.863 23.0825 64.6603 23.0825 66.8773C23.0825 69.0943 24.8682 70.8916 27.0709 70.8916Z" fill="#EA7C05"/>
<path d="M45.9687 69.7514C47.9852 69.7514 49.62 68.1061 49.62 66.0764C49.62 64.0467 47.9852 62.4014 45.9687 62.4014C43.9521 62.4014 42.3174 64.0467 42.3174 66.0764C42.3174 68.1061 43.9521 69.7514 45.9687 69.7514Z" fill="#EA7C05"/>
<path d="M60.3726 58.2786C62.2004 58.2786 63.6821 56.7873 63.6821 54.9475C63.6821 53.1078 62.2004 51.6165 60.3726 51.6165C58.5447 51.6165 57.063 53.1078 57.063 54.9475C57.063 56.7873 58.5447 58.2786 60.3726 58.2786Z" fill="#EA7C05"/>
<path d="M66.0277 40.1155C67.6694 40.1155 69.0002 38.776 69.0002 37.1237C69.0002 35.4713 67.6694 34.1318 66.0277 34.1318C64.386 34.1318 63.0552 35.4713 63.0552 37.1237C63.0552 38.776 64.386 40.1155 66.0277 40.1155Z" fill="#EA7C05"/>
<path d="M35.324 41.6327C37.8369 41.6327 39.8741 39.5823 39.8741 37.053C39.8741 34.5238 37.8369 32.4734 35.324 32.4734C32.8111 32.4734 30.7739 34.5238 30.7739 37.053C30.7739 39.5823 32.8111 41.6327 35.324 41.6327Z" fill="#EA7C05"/>
<path d="M52.3586 40.0825C54.021 40.0825 55.3686 38.7262 55.3686 37.053C55.3686 35.3798 54.021 34.0234 52.3586 34.0234C50.6962 34.0234 49.3486 35.3798 49.3486 37.053C49.3486 38.7262 50.6962 40.0825 52.3586 40.0825Z" fill="#EA7C05"/>
</g>
<defs>
<clipPath id="clip0_432_153">
<rect width="69" height="70" fill="white" transform="translate(0 0.891602)"/>
</clipPath>
</defs>
</svg>
