<svg width="18" height="18" viewBox="0 0 18 18" fill="none" xmlns="http://www.w3.org/2000/svg">
<circle cx="8.62305" cy="8.87109" r="8.62305" fill="#EA7C05"/>
<path d="M12.998 11.0791L11.8393 9.92422C11.6551 9.74095 11.4059 9.63807 11.146 9.63807C10.8862 9.63807 10.6369 9.74095 10.4527 9.92422L9.9893 10.3877C9.92785 10.4477 9.84533 10.4813 9.75943 10.4813C9.67352 10.4813 9.59102 10.4477 9.52957 10.3877L7.17122 8.02931C7.11028 7.96833 7.07605 7.88566 7.07605 7.79946C7.07605 7.71325 7.11028 7.63058 7.17122 7.5696L7.63466 7.10615C7.72631 7.01544 7.79908 6.90746 7.84873 6.78846C7.89838 6.66945 7.92394 6.54179 7.92394 6.41285C7.92394 6.2839 7.89838 6.15623 7.84873 6.03723C7.79908 5.91823 7.72631 5.81025 7.63466 5.71954L6.47979 4.56466C6.38908 4.47301 6.28109 4.40026 6.16209 4.35061C6.04309 4.30096 5.91541 4.27539 5.78647 4.27539C5.65752 4.27539 5.52988 4.30096 5.41087 4.35061C5.29187 4.40026 5.18388 4.47301 5.09317 4.56466L4.63347 5.0281C4.4209 5.24022 4.25226 5.49218 4.1372 5.76955C4.02213 6.04693 3.96289 6.34428 3.96289 6.64457C3.96289 6.94487 4.02213 7.24221 4.1372 7.51959C4.25226 7.79696 4.4209 8.04891 4.63347 8.26103L9.29785 12.9254C9.72737 13.354 10.3094 13.5948 10.9162 13.5948C11.523 13.5948 12.105 13.354 12.5345 12.9254L12.998 12.4657C13.1812 12.2815 13.2841 12.0323 13.2841 11.7724C13.2841 11.5126 13.1812 11.2633 12.998 11.0791Z" fill="white"/>
</svg>
