<svg width="18" height="18" viewBox="0 0 18 18" fill="none" xmlns="http://www.w3.org/2000/svg">
<path d="M7.426 8.06208C6.09899 9.38909 6.09899 11.5406 7.426 12.8676C8.75301 14.1946 10.9045 14.1946 12.2315 12.8676C13.5585 11.5406 13.5585 9.38909 12.2315 8.06208C10.9045 6.73508 8.75301 6.73508 7.426 8.06208Z" fill="#EA7C05"/>
<path d="M10.0382 3.69097L10.0337 9.74312" stroke="#EA7C05" stroke-miterlimit="10"/>
<path d="M8.67122 2.02234C7.91692 2.77664 7.91692 3.9996 8.67122 4.7539C9.42552 5.5082 10.6485 5.5082 11.4028 4.7539C12.1571 3.9996 12.1571 2.77664 11.4028 2.02234C10.6485 1.26805 9.42552 1.26805 8.67122 2.02234Z" fill="#EA7C05"/>
<path d="M4.01685 10.3858L10.7339 10.3839" stroke="#EA7C05" stroke-miterlimit="10"/>
<path d="M1.86405 9.3791C1.26148 9.98167 1.26148 10.9586 1.86405 11.5612C2.46662 12.1638 3.44358 12.1638 4.04616 11.5612C4.64873 10.9586 4.64873 9.98167 4.04615 9.3791C3.44358 8.77653 2.46662 8.77653 1.86405 9.3791Z" fill="#EA7C05"/>
</svg>
