<svg width="27" height="19" viewBox="0 0 27 19" fill="none" xmlns="http://www.w3.org/2000/svg">
<g clip-path="url(#clip0_432_258)">
<path d="M2.84613 8.43983C5.72353 5.59646 9.55431 4.0092 13.5392 4.0092C17.5241 4.0092 21.3554 5.59646 24.2328 8.43983L27.0394 5.54514C23.4097 1.94956 18.5719 -0.0585938 13.5392 -0.0585937C8.50653 -0.0585938 3.66927 1.94956 0.0395508 5.54514L2.84613 8.43983Z" fill="white"/>
<path d="M13.0452 19.0003H14.073L17.5123 15.4531C17.0325 14.8452 16.4309 14.3517 15.7485 14.0068C15.066 13.6619 14.3189 13.4734 13.5591 13.4548C12.8136 13.4658 12.0781 13.6345 11.3982 13.9501C10.7183 14.2656 10.1083 14.7217 9.60596 15.2899L13.0452 19.0003Z" fill="white"/>
<path d="M7.51116 13.2919C8.25927 12.4369 9.17408 11.7549 10.1961 11.2911C11.2182 10.8273 12.3243 10.592 13.4409 10.6008C14.584 10.6056 15.713 10.8587 16.7551 11.3434C17.7972 11.8281 18.7286 12.5339 19.4888 13.4144L22.2959 10.5192C21.1841 9.25122 19.8269 8.23798 18.3119 7.54435C16.7969 6.85072 15.1573 6.49219 13.4998 6.49219C11.8422 6.49219 10.2031 6.85072 8.68813 7.54435C7.17313 8.23798 5.81594 9.25122 4.7041 10.5192L7.51116 13.2919Z" fill="white"/>
</g>
<defs>
<clipPath id="clip0_432_258">
<rect width="27" height="19" fill="white"/>
</clipPath>
</defs>
</svg>
