<svg width="15" height="15" viewBox="0 0 15 15" fill="none" xmlns="http://www.w3.org/2000/svg">
<path d="M14.3032 7.14594C14.3032 6.35942 11.8289 6.07457 11.544 5.39009C11.2592 4.70561 12.7855 2.72868 12.254 2.19725C11.7226 1.66582 9.76693 3.19633 9.06119 2.90298C8.35545 2.60963 8.08761 0.143799 7.30109 0.143799C6.51458 0.143799 6.22973 2.62239 5.54525 2.90298C4.86076 3.18358 2.8881 1.66157 2.35241 2.19725C1.81673 2.73293 3.35575 4.6801 3.0624 5.39009C2.76906 6.10008 0.303223 6.35942 0.303223 7.14594C0.303223 7.93245 2.77756 8.21728 3.0624 8.90176C3.34725 9.58624 1.82098 11.5632 2.35241 12.0946C2.88384 12.626 4.83951 11.0955 5.54525 11.3889C6.25099 11.6822 6.51883 14.1481 7.30109 14.1481C8.08336 14.1481 8.37671 11.6737 9.06119 11.3889C9.74567 11.104 11.7183 12.6303 12.254 12.0946C12.7897 11.5589 11.2507 9.61175 11.544 8.90176C11.8374 8.19177 14.3032 7.93245 14.3032 7.14594ZM7.30109 9.96888C6.74295 9.96803 6.19757 9.80176 5.7339 9.49106C5.27023 9.18035 4.90906 8.73918 4.69605 8.22328C4.48304 7.70738 4.42775 7.1399 4.53715 6.59258C4.64655 6.04526 4.91575 5.54267 5.31071 5.1483C5.70568 4.75393 6.20869 4.48548 6.75618 4.3769C7.30366 4.26831 7.87105 4.32448 8.38663 4.53827C8.90221 4.75206 9.34284 5.11387 9.65284 5.57801C9.96284 6.04215 10.1283 6.58779 10.1283 7.14594C10.1283 7.51701 10.0551 7.88442 9.91301 8.2272C9.77088 8.56997 9.56256 8.88136 9.29998 9.14355C9.03739 9.40574 8.72568 9.6136 8.3827 9.75521C8.03971 9.89683 7.67217 9.96943 7.30109 9.96888Z" fill="#EA7C05"/>
</svg>
