<svg width="13" height="15" viewBox="0 0 13 15" fill="none" xmlns="http://www.w3.org/2000/svg">
<path d="M12.372 9.12156C12.3514 10.1716 11.99 11.1907 11.3361 12.0423C10.3071 13.3923 8.56343 14.2058 6.70116 14.262L6.41571 14.2707C5.55705 14.2973 4.70196 14.1549 3.90533 13.8525C3.1087 13.5502 2.38815 13.0946 1.78997 12.515C1.27459 12.0082 0.881959 11.4027 0.639006 10.7399C0.483148 10.3141 0.395483 9.86899 0.378886 9.41904C0.317885 7.83752 1.1063 6.23869 2.95936 5.22509L3.09402 5.15371C6.18782 3.53109 4.96665 0.98139 3.90776 0.273926C3.90776 0.273926 3.96416 0.273926 4.06429 0.273926C4.16442 0.273926 4.29448 0.289079 4.45332 0.309632C5.77233 0.479467 9.02151 1.36 8.95706 5.92715C8.95706 5.92715 10.748 5.14938 10.504 3.45212C10.5017 3.45969 12.4192 6.50913 12.372 9.12156Z" fill="#E11967"/>
</svg>
