<svg width="342" height="334" viewBox="0 0 342 334" fill="none" xmlns="http://www.w3.org/2000/svg">
<g clip-path="url(#clip0_493_1539)">
<path d="M227.316 70.711C228.157 71.1964 229.23 70.9124 229.712 70.0766C230.195 69.2408 229.904 68.1697 229.063 67.6843C228.223 67.1989 227.15 67.4829 226.667 68.3187C226.185 69.1545 226.475 70.2255 227.316 70.711Z" fill="#3C3C3C"/>
<path d="M194.161 178.304L194.971 178.084C194.157 175.881 193.156 173.752 191.979 171.718C188.843 166.297 184.5 161.662 179.288 158.174L199.194 123.429C206.38 126.773 214.567 127.237 222.056 124.722C229.722 122.156 236.094 116.754 239.864 109.627C243.633 102.5 244.512 94.1901 242.321 86.4057C241.295 82.7865 239.616 79.3806 237.369 76.3546L236.917 77.1364C238.996 80.0083 240.555 83.2193 241.522 86.6233C243.655 94.2038 242.798 102.296 239.127 109.235C235.457 116.175 229.252 121.436 221.789 123.936C214.378 126.424 206.27 125.914 199.202 122.515L198.863 122.319L178.189 158.41L178.528 158.606C185.727 163.315 191.219 170.209 194.186 178.261L194.161 178.304Z" fill="#3C3C3C"/>
<path d="M220.429 318.095C219.588 317.61 218.515 317.894 218.033 318.73C217.55 319.566 217.84 320.637 218.681 321.122C219.522 321.608 220.595 321.324 221.077 320.488C221.56 319.652 221.269 318.581 220.429 318.095Z" fill="#3C3C3C"/>
<path d="M13.19 202.436C14.0308 202.922 15.1036 202.638 15.5861 201.802C16.0686 200.966 15.7782 199.895 14.9374 199.409C14.0966 198.924 13.0239 199.208 12.5413 200.044C12.0588 200.88 12.3492 201.951 13.19 202.436Z" fill="#3C3C3C"/>
<path d="M126.236 219.936C120.065 213.13 116.427 204.423 115.936 195.284L115.914 194.888L73.3583 195.011L73.3287 195.396C72.7269 203.258 69.111 210.571 63.2314 215.818C57.4066 221.071 49.7504 223.852 41.8792 223.573C34.0604 223.321 26.6416 220.003 21.234 214.34C20.3272 213.389 19.4825 212.381 18.7053 211.322L17.8349 211.546C18.6887 212.732 19.6244 213.856 20.6345 214.912C26.1978 220.728 33.8209 224.14 41.8572 224.411C49.941 224.69 57.8013 221.829 63.7815 216.431C69.7204 211.131 73.414 203.775 74.1194 195.843L115.117 195.719C115.555 201.99 117.413 208.088 120.549 213.554C122.036 216.111 123.794 218.502 125.794 220.685L126.236 219.936Z" fill="#3C3C3C"/>
<path d="M206.591 320.592C205.725 320.426 204.871 320.239 203.97 319.968C196.463 317.811 190.094 312.797 186.243 306.013C182.347 299.189 181.252 291.138 183.19 283.555C185.096 275.934 189.872 269.351 196.529 265.168L196.866 264.951L175.781 228.152L175.42 228.345C169.699 231.448 163.306 233.13 156.781 233.249C153.518 233.3 150.258 232.953 147.074 232.216L146.66 232.933C156.415 235.256 166.667 233.943 175.48 229.24L195.797 264.669C189.127 268.971 184.351 275.641 182.431 283.337C180.44 291.125 181.563 299.396 185.564 306.405C188.256 311.146 192.169 315.089 196.895 317.824C199.066 319.073 201.38 320.056 203.787 320.751C204.805 321.046 205.837 321.288 206.88 321.475L206.591 320.592Z" fill="#3C3C3C"/>
<path d="M195.618 120.475L195.286 120.283C188.805 115.865 184.308 109.096 182.762 101.433C181.192 93.7192 182.643 85.7143 186.817 79.0645C190.991 72.4147 197.57 67.6256 205.202 65.6822C208.757 64.7844 212.45 64.5439 216.098 64.9727L216.549 64.1908C212.686 63.6957 208.767 63.9315 204.998 64.8856C197.155 66.8695 190.39 71.784 186.101 78.6148C181.811 85.4456 180.325 93.6712 181.948 101.594C183.508 109.339 188.004 116.201 194.499 120.747L174.588 155.499C168.932 152.73 162.718 151.296 156.43 151.308C154.103 151.313 151.783 151.519 149.494 151.923L149.712 152.728C158.152 151.251 166.859 152.537 174.533 156.395L174.872 156.591L195.618 120.475Z" fill="#3C3C3C"/>
<path d="M121.326 172.517C123.129 169.411 125.334 166.556 127.884 164.024L127.632 163.094C120.22 170.287 115.757 179.975 115.105 190.29L74.1489 190.409C73.519 182.521 69.8673 175.162 63.9521 169.861C57.9625 164.476 50.096 161.652 42.0607 162.004C33.9703 162.32 26.3356 165.757 20.7671 171.591C16.3878 176.134 13.4856 181.892 12.4375 188.118L13.316 187.879C14.3972 181.959 17.1981 176.493 21.3718 172.16C26.7936 166.485 34.2223 163.14 42.0953 162.827C49.9262 162.514 57.5839 165.275 63.4248 170.517C69.2657 175.76 72.8241 183.066 73.3361 190.867L73.3694 191.259L115.877 191.137L115.899 190.748C116.257 184.326 118.115 178.083 121.326 172.517Z" fill="#3C3C3C"/>
<path d="M241.89 300.528C244.455 292.906 243.952 284.573 240.486 277.282C237.073 270.085 230.994 264.48 223.534 261.65C216.074 258.821 207.817 258.989 200.511 262.12L180.017 226.38C188.101 220.642 193.859 212.215 196.265 202.605L195.337 202.844C192.888 212.208 187.182 220.384 179.235 225.919L178.921 226.13L200.167 263.166L200.511 263.02C207.64 259.865 215.74 259.627 223.073 262.358C230.406 265.088 236.389 270.569 239.739 277.625C243.114 284.724 243.603 292.836 241.104 300.256C239.099 306.325 235.233 311.605 230.05 315.353L230.281 316.204C235.729 312.349 239.795 306.859 241.89 300.528Z" fill="#3C3C3C"/>
</g>
<defs>
<clipPath id="clip0_493_1539">
<rect width="257.533" height="235.559" fill="white" transform="translate(118.333 0.75293) rotate(30)"/>
</clipPath>
</defs>
</svg>
