<svg width="19" height="24" viewBox="0 0 19 24" fill="none" xmlns="http://www.w3.org/2000/svg">
<path d="M18.9981 15.0869C18.9656 16.812 18.3933 18.4861 17.358 19.8852C15.7288 22.1031 12.968 23.4396 10.0194 23.532L9.5674 23.5462C8.20785 23.59 6.85396 23.356 5.59263 22.8593C4.3313 22.3625 3.19044 21.6141 2.24332 20.6619C1.4273 19.8293 0.805625 18.8344 0.42095 17.7455C0.174174 17.0461 0.0353707 16.3148 0.00909281 15.5756C-0.0874926 12.9774 1.16084 10.3508 4.09485 8.68558L4.30805 8.5683C9.20657 5.90256 7.27305 1.71378 5.59648 0.551514C5.59648 0.551514 5.68577 0.551514 5.84432 0.551514C6.00286 0.551514 6.20879 0.576408 6.46028 0.610174C8.54871 0.889188 13.6933 2.33578 13.5912 9.83895C13.5912 9.83895 16.4268 8.5612 16.0405 5.77283C16.0368 5.78527 19.0729 10.7951 18.9981 15.0869Z" fill="white"/>
</svg>
