<svg width="22" height="21" viewBox="0 0 22 21" fill="none" xmlns="http://www.w3.org/2000/svg">
<path d="M10.8236 16.9866L3.48083 9.59701L5.95981 7.11803L10.6369 11.7951L18.7749 3.65705C17.1566 1.8284 14.9481 0.625241 12.5341 0.257735C10.12 -0.109772 7.65327 0.381408 5.56416 1.64567C3.47504 2.90992 1.89548 4.86718 1.10119 7.17627C0.306908 9.48535 0.348367 12.0002 1.21766 14.2821C2.08696 16.564 3.72945 18.4683 5.85876 19.6637C7.98806 20.859 10.469 21.2694 12.8698 20.8232C15.2705 20.377 17.4388 19.1029 18.9964 17.2224C20.5541 15.3418 21.4024 12.9741 21.3938 10.5322C21.3901 9.24817 21.1363 7.97697 20.6458 6.79032L10.8236 16.9866Z" fill="#3C3C3C"/>
</svg>
