<svg width="14" height="18" viewBox="0 0 14 18" fill="none" xmlns="http://www.w3.org/2000/svg">
<path d="M10.9908 7.4944L11.9047 4.87823C12.0679 4.4113 12.1158 3.91258 12.0442 3.42368C11.9726 2.93478 11.7837 2.46988 11.4932 2.06775C11.2027 1.66562 10.8191 1.33793 10.3743 1.11201C9.92957 0.886094 9.43654 0.768502 8.9364 0.769045H4.39464C3.8945 0.768502 3.40147 0.886094 2.9567 1.11201C2.51193 1.33793 2.1283 1.66562 1.83782 2.06775C1.54734 2.46988 1.35843 2.93478 1.28686 3.42368C1.21528 3.91258 1.2631 4.4113 1.42635 4.87823L2.3402 7.4944C1.58179 8.16387 0.993433 9.00012 0.622629 9.93563C0.251824 10.8711 0.108971 11.8796 0.205613 12.8797C0.302254 13.8798 0.635683 14.8435 1.17896 15.6928C1.72224 16.5421 2.46014 17.2534 3.33307 17.769H10.0151C10.8893 17.2543 11.6283 16.5435 12.1725 15.6942C12.7167 14.8448 13.0506 13.8808 13.1473 12.8802C13.244 11.8796 13.1007 10.8706 12.729 9.93489C12.3574 8.99919 11.7678 8.16312 11.008 7.4944H10.9908ZM4.429 6.24569L3.68349 4.10457C3.64522 3.99597 3.63376 3.87992 3.65002 3.76606C3.66629 3.6522 3.70982 3.54381 3.77701 3.44991C3.8442 3.356 3.93311 3.27929 4.03635 3.22614C4.13959 3.17298 4.25417 3.14493 4.37059 3.14429H8.92953C9.04595 3.14493 9.16053 3.17298 9.26377 3.22614C9.36701 3.27929 9.45592 3.356 9.52311 3.44991C9.5903 3.54381 9.63383 3.6522 9.6501 3.76606C9.66636 3.87992 9.6549 3.99597 9.61663 4.10457L8.87112 6.24569C7.43108 5.7139 5.84499 5.7139 4.40495 6.24569H4.429Z" fill="#989898"/>
</svg>
