<svg width="21" height="21" viewBox="0 0 21 21" fill="none" xmlns="http://www.w3.org/2000/svg">
<g clip-path="url(#clip0_432_396)">
<path d="M14.8 16.7439C14.8011 17.4872 14.625 18.2201 14.2863 18.8819C13.9477 19.5436 13.4562 20.1152 12.8526 20.5491C11.3646 20.9708 9.79918 21.0421 8.27899 20.7576C6.7588 20.4731 5.32514 19.8404 4.09034 18.9092C2.85555 17.9779 1.85315 16.7734 1.16172 15.39C0.470283 14.0066 0.108615 12.4818 0.104991 10.9352C0.102959 9.54499 0.39164 8.16971 0.952516 6.89763C1.51339 5.62554 2.33404 4.48478 3.36182 3.54858C3.2353 4.06506 3.17144 4.59487 3.17157 5.12662C3.17454 6.96502 3.9069 8.72713 5.2079 10.026C6.50889 11.3249 8.27215 12.0544 10.1106 12.0544C11.3534 12.0574 12.5444 12.5524 13.4232 13.4312C14.302 14.31 14.797 15.5011 14.8 16.7439Z" fill="white"/>
<path d="M16.8484 18.3107C16.9742 17.7979 17.0381 17.2718 17.0386 16.7438C17.0356 14.9073 16.3048 13.1469 15.0062 11.8483C13.7077 10.5497 11.9473 9.81891 10.1108 9.81595C8.86605 9.81596 7.67213 9.32224 6.79092 8.44312C5.9097 7.56401 5.41316 6.37127 5.4102 5.12653C5.40708 4.37881 5.58454 3.64138 5.92748 2.97694C6.27041 2.3125 6.76871 1.74071 7.37999 1.3101C9.54721 0.692768 11.8594 0.82592 13.9415 1.688C16.0235 2.55007 17.7531 4.09047 18.8495 6.05917C19.946 8.02786 20.3449 10.3093 19.9817 12.5333C19.6184 14.7572 18.5142 16.7932 16.8484 18.3107Z" fill="white"/>
</g>
<defs>
<clipPath id="clip0_432_396">
<rect width="20" height="20" fill="white" transform="translate(0.10498 0.929688)"/>
</clipPath>
</defs>
</svg>
