<svg width="107" height="109" viewBox="0 0 107 109" fill="none" xmlns="http://www.w3.org/2000/svg">
<g clip-path="url(#clip0_432_481)">
<path d="M21.0737 13.4954C30.1439 6.12325 41.4144 2.05784 53.0594 1.95776C64.7044 1.85767 76.0418 5.72876 85.2351 12.944L86.4001 11.7681C76.8933 4.2458 65.1381 0.203887 53.0588 0.304064C40.9795 0.404242 29.2917 4.64056 19.9087 12.3195L21.0737 13.4954Z" fill="#E6523C"/>
<path d="M94.4909 19.6179L93.334 20.7938C101.005 30.0573 105.258 41.7185 105.368 53.7913C105.478 65.8642 101.438 77.6022 93.9366 87.0064L95.1015 88.1823C102.904 78.4603 107.11 66.3004 106.999 53.7894C106.888 41.2784 102.465 29.1967 94.4909 19.6179Z" fill="#E6523C"/>
<path d="M12.5256 86.3414C5.36487 77.0515 1.52601 65.5911 1.63249 53.8213C1.73896 42.0514 5.7845 30.6636 13.1121 21.5073L11.9471 20.3396C4.32018 29.8121 0.108147 41.6191 0.00158444 53.8248C-0.104978 66.0305 3.90025 77.9106 11.3606 87.5173L12.5256 86.3414Z" fill="#E6523C"/>
<path d="M85.9907 95.0346C76.6731 102.626 65.0351 106.721 53.061 106.62C41.0869 106.52 29.518 102.23 20.3269 94.4832L19.1699 95.6509C28.6694 103.709 40.6546 108.174 53.0631 108.276C65.4715 108.378 77.5272 104.111 87.1557 96.2104L85.9907 95.0346Z" fill="#E6523C"/>
<path d="M83.4197 65.5816L83.6527 65.4762C85.3469 64.7746 86.833 63.6433 87.9671 62.1919C90.4496 58.5265 90.9558 52.5256 89.1722 47.6438C88.4398 45.8763 87.1931 44.3747 85.597 43.3378C82.8658 41.6969 79.7364 40.8546 76.5584 40.905C73.7607 40.8605 70.9972 41.53 68.5242 42.8512C67.262 43.5357 66.1689 44.4984 65.326 45.6679C64.4831 46.8373 63.9121 48.1835 63.6554 49.6063C63.0689 52.331 62.1691 59.0698 66.371 63.1975C70.2034 66.5872 76.1487 67.7144 81.861 66.1087C82.4005 66 82.9242 65.8229 83.4197 65.5816ZM81.5798 58.4454C81.4629 59.073 81.1911 59.6606 80.7895 60.1539C80.3878 60.6471 79.8693 61.0302 79.2821 61.2675C78.519 61.5883 77.6982 61.7457 76.8718 61.7297C75.7082 61.7441 74.5595 61.4654 73.5295 60.9188L73.4572 60.8782C71.9709 59.824 71.7781 58.113 71.6174 56.7263V56.6371V56.11C71.4969 53.5393 71.3764 50.8876 72.0994 48.4872C72.9832 46.1841 75.5622 45.9814 76.4138 45.9165C77.9564 45.9165 79.8123 46.1274 81.0014 47.6925C81.5007 48.5623 81.764 49.5497 81.7646 50.5551C81.7646 50.7659 81.7646 50.9686 81.8209 51.1714V51.2768C81.8209 51.8931 81.8209 52.5419 81.8209 53.2068C81.8959 54.9568 81.8152 56.71 81.5798 58.4454Z" fill="url(#paint0_linear_432_481)"/>
<path d="M18.6232 41.1968C18.6232 42.7781 18.6232 44.4973 18.6232 46.1029H19.1374C19.9408 46.1029 20.8568 46.1029 21.7405 46.2084L22.4636 46.2732V60.6673L22.4073 61.4133L18.5991 61.4863C18.559 63.1082 18.5509 64.6409 18.5991 66.2222H34.1052V61.4782H33.2456C32.4411 61.4944 31.6364 61.4646 30.8353 61.389L30.1283 61.2998L30.1684 46.8328L30.6264 46.1759L34.0972 46.1354C34.0972 44.627 34.1374 42.8268 34.0972 41.213H20.2542L18.6232 41.1968Z" fill="url(#paint1_linear_432_481)"/>
<path d="M77.8758 69.8958C76.2215 72.3014 74.2265 74.4489 71.9545 76.2698C71.8742 76.3914 71.6412 76.3427 71.5689 76.2698C70.5967 75.6534 69.5523 75.1507 68.6203 74.5425C69.8787 73.0942 71.0079 71.5366 71.9947 69.8877H70.7896C69.8436 71.3895 68.7538 72.7937 67.5357 74.0803C65.9077 73.3851 64.2388 72.792 62.5384 72.3043L62.3456 72.1583C62.7039 71.4223 63.0152 70.6639 63.2775 69.8877H62.2572L61.2128 71.9637C58.8626 71.4819 56.4809 71.1729 54.0864 71.0393C53.9658 70.6987 54.0864 70.2283 53.9659 69.8877H52.9616C52.8812 70.35 53.0821 70.6987 52.8491 71.0798C50.5059 71.1776 48.1741 71.4624 45.8754 71.9313L44.7908 69.8958C44.4316 69.8368 44.0653 69.8368 43.7061 69.8958L44.6783 72.1664L44.5819 72.3286C42.8464 72.8425 41.1382 73.4461 39.4641 74.137L39.3114 74.064C38.2201 72.8754 37.2209 71.6039 36.3227 70.2608C36.1298 69.6039 35.3586 69.9931 34.9327 69.912C35.9272 71.5867 37.0672 73.1689 38.3393 74.6398C37.2948 75.2561 36.2504 75.9454 35.1657 76.4482C32.7949 74.6296 30.728 72.4393 29.0436 69.9607C28.6304 69.904 28.2115 69.904 27.7983 69.9607C30.7169 74.4127 34.7312 78.023 39.448 80.438H39.4882C39.4882 80.438 39.6006 80.511 39.4882 80.5515C42.5639 82.0827 45.8619 83.1092 49.2578 83.5925C55.0121 84.4161 60.8797 83.5647 66.1712 81.1384C71.4626 78.7122 75.958 74.8119 79.1291 69.8958C78.7123 69.8546 78.2925 69.8546 77.8758 69.8958ZM61.7269 73.3585L61.8394 73.2774C63.4729 73.6344 65.0605 74.1785 66.5716 74.8993C65.2832 76.2941 63.838 77.5324 62.2652 78.589C61.3815 79.1242 60.4816 79.7081 59.5497 80.2109L57.8946 79.4811L58.0071 79.2134C59.3908 77.3645 60.6343 75.4127 61.7269 73.3747V73.3585ZM54.0944 72.1989C56.2713 72.2215 58.4396 72.4798 60.562 72.9693L60.6021 73.0828C59.479 75.1848 58.1694 77.1798 56.6895 79.0432C56.0388 79.0236 55.391 78.9476 54.7532 78.8161L54.0944 78.735C54.0141 76.4806 53.9739 74.4857 54.0944 72.2151V72.1989ZM46.6145 72.8882C48.6804 72.4623 50.781 72.2315 52.8893 72.1989L52.9295 78.6863C52.126 78.8729 51.2262 78.8729 50.4469 79.0675C48.9019 77.2012 47.5554 75.1763 46.4297 73.026L46.6145 72.8882ZM40.38 74.9723C41.895 74.2504 43.4775 73.6827 45.1041 73.2774L45.2648 73.318C46.4412 75.4322 47.7452 77.4715 49.1694 79.4243C48.6311 79.7324 47.9723 79.919 47.434 80.2352C44.8124 78.9281 42.4276 77.1846 40.38 75.0777V74.9723ZM45.3772 81.5408C42.1192 80.6747 39.0453 79.2154 36.3066 77.2348V77.1131C37.2237 76.505 38.1821 75.963 39.1748 75.4913C41.2916 77.5565 43.6308 79.3762 46.1486 80.9164C45.9285 81.1686 45.671 81.3847 45.3853 81.5571L45.3772 81.5408ZM59.7505 82.0355C55.5447 82.9579 51.1897 82.9386 46.9921 81.9787C46.9118 81.7841 47.185 81.7436 47.2974 81.63C50.9048 79.2864 56.5207 79.2864 60.0478 81.8246C60.1362 82.0598 59.8469 81.9787 59.7505 82.0598V82.0355ZM63.4704 80.9651L61.6466 81.5408C61.341 81.3678 61.0554 81.1611 60.795 80.9245L60.8753 80.8029C63.3743 79.3242 65.6771 77.5312 67.7285 75.4669C68.7808 75.8949 69.7832 76.4388 70.7172 77.0888C68.5202 78.7641 66.0743 80.0778 63.4704 80.9813V80.9651Z" fill="url(#paint2_linear_432_481)"/>
<path d="M28.9472 37.4586C29.9025 36.1163 30.9524 34.8453 32.0886 33.6553C33.0091 32.6974 34.0209 31.8337 35.1095 31.0765C36.1138 31.7253 37.2386 32.2767 38.2107 32.8849C36.9724 34.3224 35.857 35.8633 34.8765 37.491C35.2582 37.5931 35.6597 37.5931 36.0415 37.491C37.0028 36.0256 38.0918 34.6497 39.2953 33.3796C40.9584 33.9959 42.5894 34.6527 44.2926 35.1149L44.4453 35.269L43.4812 37.491C43.851 37.5518 44.2281 37.5518 44.5979 37.491C44.9514 36.8423 45.2166 36.1124 45.6022 35.4555C47.9127 35.9461 50.2636 36.2176 52.6241 36.2665C52.9294 36.5422 52.6964 37.118 52.817 37.4586H53.8614C53.9739 37.0855 53.8212 36.6476 53.9739 36.3151C56.259 36.2264 58.5314 35.9279 60.7628 35.4231L60.9476 35.4637L61.9921 37.4586C62.3572 37.514 62.73 37.4891 63.0847 37.3856L62.1126 35.1555L62.1929 35.0825C63.946 34.5783 65.6661 33.9635 67.3429 33.2417C68.5567 34.5616 69.6712 35.9712 70.6771 37.4586C71.0668 37.4947 71.4597 37.47 71.842 37.3856C71.3626 36.523 70.8031 35.7084 70.1709 34.9528C69.6591 34.2184 69.0895 33.5269 68.4677 32.8849V32.6821L71.1752 31.109L71.5689 30.963C73.9301 32.7613 75.9938 34.9264 77.6829 37.3775C78.1489 37.3775 78.5426 37.5315 78.9282 37.3369C76.3528 33.4697 72.9463 30.2385 68.9624 27.884C64.9785 25.5294 60.5198 24.1121 55.9182 23.7376L55.878 23.8106L55.7977 23.7376C54.6528 23.6101 53.4984 23.5965 52.351 23.697C51.8713 23.6711 51.3903 23.6846 50.9128 23.7376C46.2613 24.0735 41.7489 25.486 37.7252 27.8654C33.7015 30.2448 30.2746 33.5273 27.71 37.4586C28.1202 37.5194 28.537 37.5194 28.9472 37.4586ZM45.0157 34.077H44.855C43.278 33.6798 41.7357 33.1537 40.2434 32.5038L40.3237 32.2767C42.365 30.2846 44.6716 28.5896 47.1769 27.2408C47.7634 27.476 48.3419 27.6625 48.9203 27.9382L48.8079 28.2383C47.4125 30.0852 46.1505 32.031 45.0318 34.0607L45.0157 34.077ZM52.7206 35.1149C51.6723 35.1959 50.6182 35.155 49.5792 34.9933C48.4288 34.8825 47.2895 34.6764 46.1727 34.377C47.2979 32.2315 48.6444 30.2119 50.1898 28.3518L52.6643 28.6924C52.817 30.671 52.7366 32.9822 52.7366 35.0987L52.7206 35.1149ZM53.9176 35.1555C53.8453 33.112 53.9176 30.8494 53.9176 28.7329L56.3279 28.3923C57.8803 30.2326 59.2274 32.2395 60.345 34.377C58.245 34.8841 56.0931 35.1399 53.9337 35.1393L53.9176 35.1555ZM66.2743 32.447C64.7568 33.1444 63.1743 33.6877 61.5502 34.0689C60.3215 31.9825 58.9805 29.9656 57.5331 28.0274C58.0794 27.7274 58.7382 27.5003 59.3247 27.2165C61.916 28.5432 64.281 30.2788 66.3306 32.3578L66.2743 32.447ZM61.3172 25.8703C64.5925 26.7285 67.6854 28.1822 70.4441 30.1602L70.3637 30.3142L67.6964 31.8145H67.4955C65.4347 29.7531 63.1176 27.9704 60.6021 26.511C60.6503 26.2596 61.0681 26.1055 61.3413 25.8703H61.3172ZM59.7666 25.4892V25.5703C57.9404 26.7901 55.8148 27.4747 53.6261 27.5477C51.4375 27.6207 49.2717 27.0793 47.3697 25.9839C47.1689 25.8298 46.7832 25.7568 46.7431 25.4892C51.0357 24.4881 55.498 24.4881 59.7907 25.4892H59.7666ZM36.1299 30.2575C38.5712 28.4731 41.285 27.1035 44.1641 26.2028C44.2846 26.0812 44.3569 25.9676 44.5176 25.9676V26.0487C44.8229 26.1217 45.0559 25.773 45.321 26.0001C45.5862 26.2271 45.8272 26.3488 46.02 26.5434C43.5149 28.081 41.1891 29.8981 39.0864 31.9604C38.0366 31.5544 37.045 31.009 36.1379 30.3386L36.1299 30.2575Z" fill="url(#paint3_linear_432_481)"/>
<path d="M44.2929 65.1112L44.9517 65.4599C48.2538 66.8466 53.3154 67.6007 57.4209 65.4599C58.6852 64.7723 59.709 63.7082 60.353 62.4125C60.9971 61.1168 61.23 59.6523 61.0202 58.2182C60.6667 55.4854 57.9431 52.639 54.9624 51.8686L45.4257 49.079L44.5661 48.6249C44.2984 48.4173 44.0918 48.14 43.9687 47.8228C43.8455 47.5056 43.8104 47.1605 43.8671 46.8246V46.6868L43.9394 46.5651C44.7991 45.073 46.4943 45.1866 47.7316 45.2758L48.3743 45.3163H48.4627C51.9576 45.811 54.3839 47.0517 55.8702 49.1115H56.6737C57.8306 49.1115 59.0197 49.1115 60.1927 49.1115C60.1927 47.1571 60.1927 45.3244 60.1445 43.3944C60.1445 42.8024 60.1445 42.2023 60.1445 41.586C58.7144 41.586 57.3084 41.586 56.1273 41.586C56.144 41.9613 56.0866 42.3362 55.9586 42.6889L55.6212 43.4998L53.0583 42.1212C49.3786 40.5642 43.61 40.1101 39.8018 42.8754C38.7577 43.7191 37.9814 44.853 37.5688 46.1371C37.1562 47.4212 37.1253 48.7992 37.4799 50.1008C37.9459 52.6633 40.4525 54.4474 42.6378 55.2827C44.4536 55.9314 46.3818 56.4991 48.2618 57.0505C49.8687 57.5289 51.5478 58.0236 53.1788 58.5831C53.5532 58.6949 53.8809 58.9276 54.1116 59.2455C54.3424 59.5633 54.4635 59.9489 54.4562 60.3429C54.4141 60.6379 54.2952 60.9165 54.1118 61.1501C53.9283 61.3837 53.6868 61.5641 53.4118 61.6728L53.2511 61.7377C51.3335 62.3373 49.2907 62.4014 47.3399 61.923C45.3892 61.4447 43.6032 60.4418 42.1719 59.0211C41.9813 58.7864 41.8094 58.537 41.6577 58.275C41.6169 58.1965 41.5713 58.1207 41.5211 58.048H37.504C37.4317 61.1863 37.4236 63.9191 37.504 66.1573H41.7621L41.8585 63.8785L42.9432 64.3813C43.3931 64.6246 43.843 64.8679 44.2929 65.1112Z" fill="url(#paint4_linear_432_481)"/>
<path d="M16.1491 69.847L16.3419 70.2849C16.3496 70.3051 16.3531 70.3267 16.3524 70.3483C16.3517 70.3699 16.3467 70.3912 16.3377 70.4108C16.3287 70.4305 16.3159 70.4481 16.3001 70.4627C16.2843 70.4773 16.2657 70.4885 16.2455 70.4957L10.6617 72.9285C10.643 72.9395 10.6222 72.9463 10.6007 72.9485C10.5792 72.9507 10.5574 72.9483 10.5369 72.9414C10.5164 72.9345 10.4976 72.9232 10.4817 72.9085C10.4658 72.8937 10.4532 72.8756 10.4447 72.8555L10.26 72.4176C10.2509 72.3981 10.246 72.3768 10.2456 72.3552C10.2452 72.3337 10.2493 72.3123 10.2577 72.2924C10.266 72.2725 10.2784 72.2546 10.294 72.2399C10.3096 72.2251 10.3281 72.2139 10.3483 72.2068L15.9723 69.774C16.0056 69.7655 16.0408 69.768 16.0726 69.7811C16.1044 69.7942 16.1312 69.8173 16.1491 69.847Z" fill="url(#paint5_linear_432_481)"/>
<path d="M14.5019 65.2898L14.6305 65.6871C14.6381 65.7084 14.6414 65.731 14.6402 65.7536C14.6391 65.7762 14.6335 65.7983 14.6238 65.8187C14.614 65.8391 14.6004 65.8573 14.5836 65.8723C14.5668 65.8873 14.5472 65.8988 14.526 65.9061L11.8265 66.8305C11.0231 67.1063 10.8383 67.4793 11.0231 68.1118C11.1768 68.4945 11.4128 68.8379 11.714 69.1174L15.1768 67.9334C15.2204 67.9224 15.2666 67.9279 15.3065 67.9488C15.3464 67.9697 15.3775 68.0046 15.3937 68.0469L15.5303 68.4524C15.5428 68.4954 15.538 68.5417 15.517 68.5812C15.4959 68.6206 15.4603 68.6501 15.4178 68.6633L11.24 70.0905C11.2189 70.0982 11.1966 70.1015 11.1742 70.1003C11.1518 70.0992 11.1298 70.0935 11.1096 70.0837C11.0895 70.0739 11.0714 70.0601 11.0565 70.0432C11.0417 70.0263 11.0303 70.0065 11.0231 69.9851L10.8865 69.5715C10.874 69.5285 10.8788 69.4822 10.8998 69.4427C10.9209 69.4033 10.9565 69.3738 10.999 69.3607L11.1516 69.3039C10.7773 68.9948 10.4984 68.584 10.3482 68.1199C10.0108 67.1306 10.4768 66.4981 11.5694 66.1007L14.2609 65.1844C14.2834 65.174 14.3079 65.1685 14.3326 65.1682C14.3574 65.168 14.3819 65.173 14.4047 65.1829C14.4274 65.1929 14.4478 65.2075 14.4645 65.2259C14.4813 65.2443 14.494 65.2661 14.5019 65.2898Z" fill="url(#paint6_linear_432_481)"/>
<path d="M10.9668 58.1128L11.3605 61.0078H11.481C12.5013 60.8619 12.8227 60.4078 12.7183 59.613C12.6468 59.0965 12.5449 58.5847 12.413 58.0804C12.4092 58.0671 12.4092 58.0531 12.413 58.0398C12.4082 58.0227 12.4072 58.0047 12.41 57.9871C12.4129 57.9695 12.4195 57.9528 12.4295 57.9381C12.4394 57.9234 12.4525 57.9111 12.4677 57.9021C12.4829 57.893 12.4998 57.8875 12.5174 57.8858L12.8066 57.8452C12.9191 57.8452 12.9753 57.8452 13.0236 57.9912C13.1926 58.4864 13.3136 58.997 13.3851 59.5157C13.447 59.7868 13.4473 60.0684 13.3859 60.3395C13.3245 60.6107 13.203 60.8642 13.0306 61.0812C12.8582 61.2982 12.6393 61.4728 12.3904 61.5922C12.1415 61.7115 11.869 61.7723 11.5935 61.7701L10.79 61.8755C10.5339 61.9426 10.2664 61.9524 10.0062 61.9042C9.74593 61.856 9.49927 61.751 9.28346 61.5965C9.06764 61.442 8.88788 61.2418 8.75676 61.0099C8.62564 60.7779 8.54633 60.5198 8.52438 60.2537C8.46954 59.9911 8.47327 59.7195 8.5353 59.4586C8.59733 59.1977 8.7161 58.954 8.88301 58.7452C9.04992 58.5364 9.26077 58.3676 9.50029 58.2513C9.73981 58.1349 10.002 58.0737 10.2678 58.0723L10.7338 58.0074C10.7555 57.9955 10.7796 57.9888 10.8043 57.9879C10.829 57.987 10.8536 57.9918 10.8761 58.002C10.8986 58.0122 10.9186 58.0275 10.9343 58.0467C10.95 58.0659 10.9611 58.0885 10.9668 58.1128ZM10.3964 58.8021C9.43225 58.94 9.10285 59.3617 9.20729 60.1239C9.31174 60.8862 9.78575 61.2268 10.7097 61.097H10.79L10.4767 58.8021H10.3964Z" fill="url(#paint7_linear_432_481)"/>
<path d="M8.78159 55.1043C8.80384 55.5291 8.94911 55.9379 9.19937 56.2801L12.8148 56.0936C12.859 56.0934 12.9017 56.11 12.9344 56.14C12.9671 56.17 12.9875 56.2113 12.9915 56.2558V56.6856C12.9915 56.7308 12.9738 56.7741 12.9421 56.806C12.9105 56.8379 12.8676 56.8559 12.8228 56.8559L8.42808 57.0911C8.38509 57.0915 8.34344 57.0761 8.31091 57.0477C8.27837 57.0193 8.25719 56.98 8.25133 56.937V56.5234C8.24895 56.5012 8.25141 56.4786 8.25854 56.4574C8.26566 56.4362 8.27727 56.4169 8.29257 56.4007C8.30786 56.3845 8.32647 56.3718 8.3471 56.3636C8.36772 56.3554 8.38987 56.3518 8.41201 56.3531H8.58876C8.30769 56.0113 8.14168 55.5882 8.11475 55.1448C8.11475 55.0205 8.16295 54.9556 8.25936 54.9502H8.61287C8.71731 54.9178 8.77356 54.9826 8.78159 55.1043Z" fill="url(#paint8_linear_432_481)"/>
<path d="M13.0237 50.5632V50.9768C13.0237 50.9998 13.0191 51.0227 13.0101 51.0439C13.0012 51.0651 12.988 51.0842 12.9715 51.1001C12.955 51.1161 12.9354 51.1284 12.914 51.1365C12.8926 51.1446 12.8698 51.1482 12.847 51.1471L10.0109 51.0335C9.13514 50.993 8.86197 51.2849 8.83787 51.9418C8.84349 52.3561 8.94239 52.7638 9.1271 53.1338L12.7586 53.2798C12.8041 53.2819 12.847 53.3016 12.8784 53.3349C12.9098 53.3681 12.9274 53.4123 12.9273 53.4582V53.8799C12.9233 53.9244 12.9029 53.9657 12.8702 53.9957C12.8375 54.0257 12.7948 54.0423 12.7505 54.0421L8.35582 53.8637C8.31107 53.8637 8.26815 53.8457 8.23651 53.8138C8.20487 53.7819 8.18709 53.7385 8.18709 53.6934V53.2555C8.18808 53.2335 8.1935 53.2118 8.20304 53.192C8.21259 53.1721 8.22605 53.1544 8.24259 53.14C8.25914 53.1256 8.27843 53.1147 8.29928 53.1081C8.32013 53.1015 8.3421 53.0992 8.36385 53.1014H8.53257C8.29286 52.6743 8.17339 52.1892 8.18709 51.6985C8.18709 50.6524 8.89411 50.2145 10.043 50.2632L12.8711 50.3686C12.9166 50.3747 12.9579 50.3984 12.9864 50.4347C13.0149 50.471 13.0283 50.5171 13.0237 50.5632Z" fill="url(#paint9_linear_432_481)"/>
<path d="M13.586 46.2976L13.5297 46.695C13.5201 46.7401 13.4942 46.7799 13.4571 46.8069C13.42 46.8339 13.3743 46.846 13.3289 46.8409H13.1441C13.3415 47.2771 13.4192 47.7588 13.369 48.2357C13.3658 48.4305 13.3179 48.6219 13.2293 48.795C13.1407 48.968 13.0137 49.1181 12.8582 49.2335C12.7026 49.3489 12.5228 49.4264 12.3327 49.4601C12.1426 49.4938 11.9474 49.4828 11.7622 49.4278H11.6578C10.7419 49.298 10.3562 48.6817 10.5812 47.1491L10.6776 46.5084L10.3321 46.4598C9.61706 46.3544 9.33587 46.5652 9.23142 47.2707C9.1682 47.7116 9.12798 48.1555 9.11091 48.6006C9.10712 48.6139 9.10712 48.6279 9.11091 48.6412C9.11091 48.7142 9.0627 48.7953 8.95022 48.779L8.65295 48.7304C8.55654 48.7304 8.51637 48.6493 8.51637 48.5277C8.5041 48.0744 8.53368 47.6211 8.60475 47.1734C8.60002 46.9442 8.64856 46.717 8.74648 46.5101C8.8444 46.3032 8.98897 46.1224 9.16862 45.9821C9.34826 45.8417 9.55797 45.7458 9.78094 45.7021C10.0039 45.6583 10.234 45.6678 10.4526 45.7299L13.4333 46.176C13.4678 46.1789 13.5006 46.192 13.5277 46.2137C13.5549 46.2353 13.5751 46.2645 13.586 46.2976ZM11.232 46.5409L11.1355 47.1815C10.9829 48.2195 11.1355 48.5276 11.7783 48.625H11.8827C12.4933 48.7223 12.6861 48.4547 12.7745 47.9519C12.8223 47.5385 12.7642 47.1197 12.6058 46.7355L11.232 46.5409Z" fill="url(#paint10_linear_432_481)"/>
<path d="M14.349 43.0782C14.332 43.2665 14.3024 43.4535 14.2606 43.6378C14.0758 44.4487 13.7866 44.7406 12.8627 44.5217L9.92213 43.8162L9.64093 44.6271C9.63619 44.6479 9.62745 44.6675 9.6152 44.6849C9.60294 44.7022 9.58742 44.717 9.56951 44.7283C9.5516 44.7396 9.53165 44.7472 9.51082 44.7507C9.48999 44.7542 9.46869 44.7535 9.44812 44.7487L9.22316 44.692C9.2021 44.6885 9.18205 44.6804 9.16446 44.6682C9.14687 44.656 9.13218 44.6401 9.12143 44.6215C9.11068 44.6029 9.10414 44.5821 9.10228 44.5606C9.10042 44.5392 9.10329 44.5176 9.11068 44.4974L9.30349 43.6864L8.50007 43.4918C8.45752 43.4821 8.42004 43.4568 8.39482 43.4209C8.36961 43.385 8.35845 43.3409 8.36349 43.2972V42.8431C8.37465 42.8068 8.39934 42.7764 8.43234 42.7583C8.46533 42.7401 8.50403 42.7356 8.54024 42.7457L9.45615 42.9647L9.67307 42.0483C9.68615 42.0047 9.71462 41.9673 9.75311 41.9434C9.79161 41.9195 9.83744 41.9107 9.88196 41.9186L10.1712 41.9916C10.2145 42.0048 10.2514 42.0335 10.2751 42.0724C10.2988 42.1112 10.3076 42.1575 10.2997 42.2024L10.0828 43.1188L13.0153 43.8243C13.4733 43.9297 13.5697 43.8243 13.65 43.4918L13.7625 43.0134C13.7625 42.8998 13.8348 42.8431 13.9232 42.8674L14.2124 42.9404C14.3169 42.9079 14.357 42.9647 14.349 43.0782Z" fill="url(#paint11_linear_432_481)"/>
<path d="M9.50474 40.013L9.37619 40.4347C9.37074 40.4565 9.36086 40.477 9.34714 40.4948C9.33343 40.5125 9.31619 40.5272 9.29654 40.5379C9.27689 40.5486 9.25525 40.555 9.233 40.5568C9.21075 40.5585 9.18837 40.5556 9.1673 40.5482L8.50046 40.3455C8.45738 40.3306 8.42166 40.2995 8.4007 40.2588C8.37975 40.218 8.37519 40.1706 8.38798 40.1265L8.51653 39.7048C8.52961 39.6598 8.55969 39.6219 8.60029 39.5991C8.64088 39.5764 8.68872 39.5706 8.73346 39.5832L9.39226 39.794C9.4142 39.8005 9.43462 39.8113 9.45228 39.8259C9.46994 39.8406 9.48446 39.8587 9.49498 39.8792C9.5055 39.8996 9.51179 39.9221 9.51347 39.9451C9.51514 39.9681 9.51217 39.9912 9.50474 40.013ZM14.7591 41.6348L14.6386 42.0322C14.6322 42.0544 14.6215 42.0749 14.607 42.0928C14.5925 42.1106 14.5745 42.1253 14.5543 42.1359C14.534 42.1465 14.5118 42.1528 14.489 42.1545C14.4662 42.1562 14.4433 42.1532 14.4217 42.1457L10.2198 40.8482C10.1767 40.8334 10.141 40.8023 10.12 40.7615C10.0991 40.7207 10.0945 40.6734 10.1073 40.6293L10.2278 40.2238C10.2425 40.1803 10.2733 40.1443 10.3137 40.1231C10.3541 40.102 10.4011 40.0974 10.4447 40.1103L14.6467 41.4159C14.6726 41.4201 14.6971 41.4306 14.718 41.4466C14.7389 41.4625 14.7557 41.4834 14.7668 41.5074C14.7779 41.5314 14.783 41.5578 14.7816 41.5842C14.7803 41.6107 14.7726 41.6364 14.7591 41.6592V41.6348Z" fill="url(#paint12_linear_432_481)"/>
<path d="M15.8274 38.8209C15.3534 40.0129 14.3411 40.3049 13.16 39.8264L12.5575 39.5831C11.3764 39.1128 10.8382 38.1964 11.3122 37.0044C11.3995 36.7446 11.5427 36.5075 11.7316 36.3102C11.9205 36.1129 12.1503 35.9603 12.4046 35.8634C12.6589 35.7665 12.9313 35.7276 13.2022 35.7496C13.4731 35.7717 13.7359 35.854 13.9715 35.9907L14.5821 36.234C14.8467 36.2988 15.0938 36.4218 15.3058 36.5942C15.5178 36.7667 15.6894 36.9842 15.8084 37.2314C15.9274 37.4785 15.9908 37.7492 15.9941 38.024C15.9974 38.2988 15.9405 38.5709 15.8274 38.8209ZM13.6903 36.6962C12.8869 36.3718 12.2281 36.4935 11.9228 37.2476C11.6175 38.0018 12.0112 38.5451 12.8387 38.8695L13.4413 39.1128C14.2447 39.4372 14.9115 39.3236 15.2088 38.5613C15.5061 37.7991 15.1284 37.2639 14.3009 36.9395L13.6903 36.6962Z" fill="url(#paint13_linear_432_481)"/>
<path d="M18.4626 33.1767L18.2698 33.5417C18.2596 33.5623 18.2454 33.5806 18.2281 33.5955C18.2107 33.6104 18.1905 33.6216 18.1687 33.6284C18.147 33.6353 18.124 33.6375 18.1014 33.6352C18.0787 33.6328 18.0567 33.6258 18.0368 33.6147L15.5301 32.2604C14.7267 31.8387 14.3892 31.9766 14.0759 32.5604C13.9057 32.9372 13.818 33.3466 13.8188 33.7606L17.0325 35.496C17.0532 35.5071 17.0715 35.5222 17.0863 35.5405C17.1012 35.5587 17.1123 35.5798 17.119 35.6024C17.1258 35.625 17.128 35.6488 17.1255 35.6723C17.1231 35.6958 17.116 35.7186 17.1048 35.7393L16.904 36.1123C16.8793 36.1496 16.8422 36.1766 16.7994 36.1885C16.7566 36.2005 16.711 36.1964 16.671 36.1772L12.7904 34.0688C12.7703 34.0594 12.7523 34.0458 12.7376 34.029C12.7229 34.0122 12.7118 33.9926 12.705 33.9712C12.6982 33.9499 12.6958 33.9274 12.6981 33.9051C12.7004 33.8828 12.7072 33.8612 12.7181 33.8417L12.919 33.4606C12.9298 33.4407 12.9445 33.4231 12.9622 33.409C12.9799 33.3949 13.0002 33.3846 13.0219 33.3785C13.0436 33.3725 13.0663 33.3709 13.0887 33.3738C13.111 33.3768 13.1325 33.3842 13.152 33.3957L13.2966 33.4768C13.2646 32.9878 13.3675 32.4994 13.5938 32.0658C14.0839 31.1413 14.8793 31.0359 15.8916 31.5792L18.3983 32.9416C18.4181 32.9525 18.4354 32.9674 18.4494 32.9852C18.4633 33.0031 18.4736 33.0236 18.4796 33.0455C18.4856 33.0674 18.4872 33.0903 18.4842 33.1129C18.4813 33.1354 18.474 33.1571 18.4626 33.1767Z" fill="url(#paint14_linear_432_481)"/>
<path d="M20.8006 29.6329L20.5676 29.9573C20.543 29.9948 20.5047 30.021 20.4611 30.0301C20.4174 30.0392 20.372 30.0305 20.3346 30.0059L20.1739 29.9005C20.1643 30.3753 20.0253 30.8382 19.7722 31.2385C19.686 31.4107 19.5619 31.5607 19.4095 31.6771C19.257 31.7934 19.0802 31.873 18.8926 31.9098C18.705 31.9466 18.5115 31.9396 18.327 31.8893C18.1424 31.839 17.9717 31.7468 17.8279 31.6197L17.7396 31.5629C16.9361 31.0277 16.896 30.306 17.7396 29.0328L18.1011 28.4976L17.8119 28.303C17.2173 27.8894 16.8719 27.9543 16.4862 28.5138C16.1006 29.0734 15.964 29.3247 15.8033 29.6491C15.8007 29.6625 15.8007 29.6763 15.8033 29.6897C15.7551 29.7545 15.6908 29.8032 15.6025 29.7383L15.3454 29.568C15.2731 29.5112 15.265 29.4302 15.3454 29.3247C15.5344 28.9119 15.7574 28.5159 16.0122 28.1408C16.1084 27.933 16.2514 27.7509 16.4298 27.609C16.6083 27.4671 16.8172 27.3694 17.0398 27.3237C17.2624 27.2779 17.4925 27.2855 17.7117 27.3457C17.9309 27.4059 18.133 27.5171 18.302 27.6704L20.7846 29.3896C20.8173 29.4205 20.8372 29.4629 20.8402 29.508C20.8432 29.5532 20.829 29.5979 20.8006 29.6329ZM18.5671 28.822L18.2136 29.3572C17.6191 30.2249 17.6592 30.5898 18.1654 30.9385L18.2457 30.9953C18.3235 31.0748 18.4195 31.1337 18.5251 31.1669C18.6308 31.2002 18.743 31.2067 18.8517 31.1858C18.9605 31.165 19.0625 31.1175 19.1487 31.0475C19.235 30.9775 19.3029 30.8871 19.3464 30.7844C19.5663 30.4334 19.6936 30.0314 19.716 29.6167L18.5671 28.822Z" fill="url(#paint15_linear_432_481)"/>
<path d="M21.9495 28.1732L21.6603 28.5219C21.6467 28.5389 21.6296 28.5525 21.6101 28.5619C21.5907 28.5713 21.5694 28.5761 21.5478 28.5761C21.5262 28.5761 21.5049 28.5713 21.4855 28.5619C21.466 28.5525 21.4489 28.5389 21.4353 28.5219L16.6148 24.6375C16.5853 24.6072 16.5688 24.5665 16.5688 24.524C16.5688 24.4816 16.5853 24.4408 16.6148 24.4105L16.896 24.0537C16.926 24.024 16.9664 24.0073 17.0085 24.0073C17.0505 24.0073 17.0909 24.024 17.1209 24.0537L21.9415 27.9381C21.9709 27.9696 21.9879 28.0108 21.9894 28.0541C21.9908 28.0974 21.9767 28.1397 21.9495 28.1732Z" fill="url(#paint16_linear_432_481)"/>
<path d="M25.7176 24.1835C24.7294 25.1161 23.468 25.2134 22.1584 23.8024L21.355 22.9914C20.0454 21.5723 20.2141 20.3154 21.2023 19.3747C22.1906 18.434 23.4519 18.3529 24.7615 19.7639L25.5649 20.5748C26.9067 21.9859 26.7058 23.2428 25.7176 24.1835ZM24.2232 20.3072C23.227 19.2368 22.4236 19.2368 21.7326 19.8855C21.0417 20.5343 20.9854 21.3615 21.9736 22.4319L22.7369 23.2428C23.7251 24.3132 24.5366 24.3051 25.2355 23.6483C25.9345 22.9914 25.9747 22.1805 24.9865 21.1182L24.2232 20.3072Z" fill="url(#paint17_linear_432_481)"/>
<path d="M27.1317 17.469C26.7977 17.7317 26.5465 18.0867 26.4086 18.4908L28.602 21.3858C28.6325 21.4188 28.6494 21.4623 28.6494 21.5074C28.6494 21.5526 28.6325 21.5961 28.602 21.6291L28.2645 21.8886C28.2331 21.9188 28.1914 21.9357 28.148 21.9357C28.1046 21.9357 28.0629 21.9188 28.0315 21.8886L25.2999 18.3286C25.2694 18.2956 25.2524 18.2521 25.2524 18.207C25.2524 18.1618 25.2694 18.1183 25.2999 18.0853L25.6213 17.842C25.637 17.8259 25.6557 17.813 25.6764 17.8042C25.6971 17.7955 25.7193 17.7909 25.7418 17.7909C25.7642 17.7909 25.7864 17.7955 25.8071 17.8042C25.8278 17.813 25.8466 17.8259 25.8623 17.842L25.9667 17.988C26.0893 17.5627 26.339 17.186 26.6818 16.9095C26.7782 16.8365 26.8585 16.8365 26.9228 16.9095L27.1397 17.1933C27.2442 17.3149 27.2281 17.396 27.1317 17.469Z" fill="url(#paint18_linear_432_481)"/>
<path d="M31.0443 14.8415L30.8194 15.0604C30.9731 15.1075 31.116 15.1848 31.2401 15.2878C31.3642 15.3907 31.4669 15.5174 31.5424 15.6605L31.5826 15.7173C32.0888 16.5282 31.8799 17.2905 30.7792 18.0122C30.4999 18.2097 30.1822 18.3452 29.8472 18.4096C29.8087 18.4625 29.7879 18.5264 29.7879 18.592C29.7879 18.6577 29.8087 18.7216 29.8472 18.7745C29.9276 18.9042 30.024 18.9286 30.2168 18.8637L31.4782 18.4501C32.2816 18.1744 33.1252 17.9392 33.559 18.6285V18.6853C34.0009 19.3908 33.8081 20.1207 32.611 20.891C31.4139 21.6614 30.6587 21.5154 30.2007 20.8018L30.1525 20.7288C30.0413 20.5476 29.9721 20.3434 29.9498 20.1314C29.9275 19.9194 29.9529 19.7051 30.024 19.5043H29.9597C29.8206 19.5192 29.6802 19.4925 29.556 19.4277C29.4318 19.3628 29.3291 19.2626 29.2607 19.1394C29.191 19.0336 29.1504 18.911 29.1434 18.7841C29.1363 18.6572 29.163 18.5307 29.2205 18.4177C29.0382 18.3845 28.8656 18.3105 28.7154 18.201C28.5652 18.0916 28.4413 17.9494 28.3528 17.7852L28.3127 17.7203C27.9029 17.0634 27.8547 16.1876 29.1161 15.3848L30.7229 14.3549C30.7669 14.3268 30.8199 14.3171 30.8709 14.3277C30.9218 14.3382 30.9667 14.3683 30.9961 14.4117L31.1086 14.5982C31.1243 14.6171 31.1352 14.6396 31.1405 14.6637C31.1457 14.6878 31.1452 14.7128 31.1389 14.7367C31.1326 14.7605 31.1207 14.7825 31.1043 14.8007C31.0878 14.8189 31.0672 14.8329 31.0443 14.8415ZM30.9077 16.066C30.6346 15.6281 30.2168 15.4091 29.4294 15.9119C28.6421 16.4147 28.6903 16.9175 28.9474 17.331V17.3878C29.1563 17.7122 29.566 18.0447 30.4016 17.5013C31.2371 16.958 31.205 16.5688 30.9158 16.1228L30.9077 16.066ZM32.8681 19.0421C32.6833 18.7502 32.378 18.7826 31.6228 19.0421L30.6667 19.3584C30.6032 19.5185 30.5803 19.692 30.5999 19.8634C30.6195 20.0347 30.6812 20.1984 30.7792 20.3396L30.8194 20.4045C31.0845 20.818 31.4862 20.9154 32.2896 20.4045C33.0931 19.8936 33.1654 19.5125 32.9083 19.1151L32.8681 19.0421Z" fill="url(#paint19_linear_432_481)"/>
<path d="M36.8046 16.6093L36.4511 16.7877C36.4094 16.8074 36.3618 16.81 36.3183 16.7949C36.2748 16.7797 36.2388 16.748 36.2181 16.7066L36.1377 16.5363C35.8882 16.9426 35.5397 17.2776 35.1255 17.5094C34.966 17.6167 34.7842 17.6856 34.5943 17.7109C34.4043 17.7361 34.2111 17.7171 34.0295 17.6553C33.8479 17.5934 33.6828 17.4903 33.5469 17.354C33.411 17.2176 33.3079 17.0516 33.2454 16.8687L33.1972 16.7796C32.7875 15.9686 33.0687 15.2712 34.4506 14.5819L35.021 14.2981L34.8684 13.9818C34.547 13.325 34.2095 13.2115 33.607 13.5115C33.2101 13.7096 32.8239 13.9288 32.45 14.1684C32.3858 14.1684 32.3054 14.217 32.2572 14.1116L32.1206 13.8359C32.0724 13.7548 32.1206 13.6818 32.209 13.6088C32.5706 13.3422 32.9551 13.1088 33.3579 12.9114C33.5427 12.7775 33.7559 12.689 33.9805 12.6529C34.2051 12.6168 34.435 12.6341 34.6518 12.7033C34.8687 12.7726 35.0665 12.892 35.2296 13.052C35.3927 13.212 35.5166 13.4082 35.5914 13.625L36.9251 16.3579C36.9366 16.3821 36.9426 16.4086 36.9426 16.4354C36.9425 16.4623 36.9365 16.4887 36.9249 16.5129C36.9134 16.5371 36.8965 16.5583 36.8757 16.575C36.8548 16.5916 36.8306 16.6034 36.8046 16.6093ZM35.262 14.7928L34.6836 15.0766C33.7516 15.5388 33.607 15.8875 33.8801 16.4309L33.9283 16.5282C33.9569 16.6352 34.0113 16.7335 34.0866 16.8143C34.1619 16.8951 34.2558 16.9558 34.3599 16.9911C34.4641 17.0264 34.5752 17.0352 34.6836 17.0167C34.7919 16.9982 34.894 16.9529 34.9808 16.885C35.344 16.696 35.6537 16.417 35.8807 16.074L35.262 14.7928Z" fill="url(#paint20_linear_432_481)"/>
<path d="M41.0952 14.947L40.7015 15.093C40.6804 15.1007 40.658 15.104 40.6356 15.1028C40.6132 15.1017 40.5913 15.096 40.5711 15.0862C40.5509 15.0764 40.5328 15.0626 40.518 15.0457C40.5031 15.0287 40.4918 15.009 40.4845 14.9876L39.5124 12.3196C39.2151 11.5087 38.8456 11.3384 38.2269 11.5573C37.8521 11.7267 37.5178 11.9756 37.2467 12.2871L38.4921 15.7417C38.4997 15.763 38.503 15.7856 38.5018 15.8082C38.5007 15.8308 38.4951 15.8529 38.4854 15.8733C38.4756 15.8937 38.462 15.9119 38.4452 15.9269C38.4284 15.9419 38.4088 15.9534 38.3876 15.9607L37.9939 16.1067C37.9513 16.12 37.9052 16.1165 37.8649 16.097C37.8247 16.0774 37.7933 16.0432 37.777 16.0012L36.2746 11.8249C36.2589 11.783 36.2602 11.7364 36.2782 11.6954C36.2963 11.6544 36.3296 11.6223 36.371 11.606L36.7727 11.4519C36.8154 11.4385 36.8615 11.442 36.9017 11.4616C36.942 11.4811 36.9734 11.5153 36.9896 11.5573L37.0459 11.7195C37.3426 11.333 37.7406 11.038 38.1948 10.868C39.175 10.5112 39.8016 10.9653 40.2274 12.052L41.1996 14.7443C41.2069 14.785 41.2006 14.827 41.1817 14.8637C41.1628 14.9004 41.1324 14.9297 41.0952 14.947Z" fill="url(#paint21_linear_432_481)"/>
<path d="M41.4486 9.07582L41.0228 9.19745C40.9781 9.20797 40.9311 9.20135 40.891 9.17887C40.851 9.15639 40.8206 9.11965 40.8058 9.07582L40.6291 8.39464C40.619 8.35062 40.6258 8.30439 40.6482 8.26526C40.6705 8.22612 40.7068 8.197 40.7496 8.18379L41.1754 8.07027C41.219 8.06008 41.2648 8.06697 41.3036 8.08955C41.3424 8.11213 41.3712 8.1487 41.3843 8.19191L41.5691 8.86497C41.5792 8.90898 41.5724 8.95524 41.55 8.99437C41.5276 9.03351 41.4914 9.06261 41.4486 9.07582ZM42.8787 14.4442L42.477 14.5577C42.4312 14.5679 42.3834 14.5601 42.3432 14.536C42.3029 14.5119 42.2732 14.4733 42.26 14.428L41.1111 10.1463C41.0987 10.1011 41.1044 10.0528 41.1269 10.0119C41.1495 9.97088 41.1871 9.94049 41.2316 9.92729L41.6253 9.82189C41.6701 9.80934 41.7179 9.81506 41.7585 9.83783C41.7991 9.86059 41.8292 9.89855 41.8422 9.94352L42.9911 14.2333C43.0013 14.2555 43.0065 14.2796 43.0061 14.304C43.0058 14.3284 43 14.3524 42.9891 14.3743C42.9783 14.3961 42.9628 14.4152 42.9437 14.4301C42.9245 14.445 42.9023 14.4554 42.8787 14.4604V14.4442Z" fill="url(#paint22_linear_432_481)"/>
<path d="M46.9922 13.5521L44.4293 14.0629C44.3649 14.0836 44.2969 14.0902 44.2297 14.0821C44.1626 14.0741 44.0979 14.0517 44.0401 14.0163C43.9823 13.981 43.9326 13.9336 43.8944 13.8773C43.8562 13.821 43.8304 13.7571 43.8187 13.6899V13.5277C43.7723 13.3262 43.8039 13.1145 43.9071 12.9358L45.5621 9.74878C45.5693 9.72223 45.5693 9.69425 45.5621 9.6677C45.5621 9.62716 45.5621 9.61092 45.4657 9.62714L43.4009 10.0326C43.3563 10.0399 43.3107 10.0297 43.2733 10.004C43.236 9.97839 43.2098 9.9393 43.2001 9.89476L43.1438 9.60281C43.1343 9.55658 43.1434 9.50843 43.169 9.4689C43.1946 9.42938 43.2346 9.40173 43.2804 9.39199L45.771 8.90542C46.1245 8.83244 46.2772 8.97029 46.3334 9.22979L46.3736 9.43253C46.4047 9.61004 46.3674 9.79284 46.2692 9.94342L44.582 13.1871C44.5728 13.2032 44.568 13.2214 44.568 13.2399C44.568 13.2584 44.5728 13.2765 44.582 13.2926C44.582 13.2926 44.582 13.3574 44.6623 13.3412L46.9039 12.9033C46.9261 12.8986 46.949 12.8985 46.9712 12.9029C46.9934 12.9074 47.0146 12.9163 47.0333 12.9292C47.0521 12.942 47.068 12.9586 47.0803 12.9778C47.0926 12.9971 47.1009 13.0186 47.1047 13.0412L47.1609 13.3331C47.1687 13.3591 47.1701 13.3866 47.1651 13.4133C47.1602 13.4399 47.149 13.465 47.1325 13.4865C47.116 13.5079 47.0947 13.525 47.0703 13.5364C47.0459 13.5478 47.0191 13.5532 46.9922 13.5521Z" fill="url(#paint23_linear_432_481)"/>
<path d="M51.0096 13.1305L50.6159 13.171C50.5931 13.1732 50.5701 13.1707 50.5483 13.1637C50.5265 13.1566 50.5063 13.1452 50.489 13.13C50.4717 13.1148 50.4577 13.0962 50.4477 13.0754C50.4378 13.0546 50.4321 13.0319 50.4312 13.0088V12.8142C50.0626 13.1164 49.617 13.3076 49.1457 13.3656C48.9592 13.4078 48.7657 13.4063 48.5799 13.3613C48.394 13.3164 48.2209 13.2291 48.0736 13.1063C47.9263 12.9834 47.8087 12.8282 47.73 12.6525C47.6512 12.4768 47.6133 12.2852 47.6192 12.0925V11.987C47.5388 11.0545 48.0289 10.5355 49.5635 10.3652L50.1982 10.3084V9.9597C50.1339 9.22986 49.8607 9.0028 49.1859 9.06767C48.749 9.10627 48.3145 9.16854 47.8843 9.25419H47.7959C47.7772 9.25907 47.7577 9.25965 47.7388 9.25588C47.7199 9.2521 47.702 9.24407 47.6866 9.23239C47.6712 9.22071 47.6585 9.20565 47.6496 9.18836C47.6408 9.17108 47.6358 9.15202 47.6352 9.13256V8.8244C47.6352 8.72709 47.6835 8.67032 47.804 8.64599C48.2341 8.52262 48.6756 8.44381 49.1216 8.41082C49.3408 8.35076 49.571 8.34369 49.7934 8.39015C50.0159 8.43661 50.2243 8.5353 50.402 8.67824C50.5796 8.82118 50.7213 9.00437 50.8157 9.21291C50.9101 9.42146 50.9545 9.64951 50.9454 9.8786L51.2265 12.9115C51.2324 12.9415 51.2308 12.9725 51.222 13.0018C51.2131 13.0311 51.1973 13.0577 51.1759 13.0793C51.1544 13.101 51.1281 13.1169 51.0991 13.1258C51.0701 13.1348 51.0394 13.1363 51.0096 13.1305ZM50.2062 10.8761L49.5715 10.9409C48.527 11.0382 48.278 11.2896 48.3342 11.9059V12.0114C48.3905 12.6358 48.7038 12.7736 49.1939 12.7331C49.6045 12.6798 49.9947 12.5206 50.3267 12.2709L50.2062 10.8761Z" fill="url(#paint24_linear_432_481)"/>
<path d="M54.3518 13.1305C54.1655 13.1585 53.9777 13.1747 53.7894 13.1792C52.986 13.1792 52.6084 12.9846 52.5923 12.0277L52.5522 8.98669L51.7085 8.90559C51.6657 8.9038 51.625 8.88636 51.594 8.85652C51.5629 8.82668 51.5437 8.78648 51.5398 8.7434V8.50822C51.5385 8.48694 51.5418 8.46563 51.5496 8.44578C51.5573 8.42594 51.5692 8.40805 51.5846 8.39337C51.5999 8.37868 51.6182 8.36755 51.6382 8.36077C51.6583 8.354 51.6795 8.35173 51.7005 8.35414H52.5441V7.49456C52.5439 7.45206 52.5595 7.41104 52.5877 7.37953C52.6159 7.34802 52.6549 7.32831 52.6968 7.32427L53.1467 7.24317C53.165 7.24302 53.1831 7.24684 53.1999 7.25435C53.2166 7.26186 53.2316 7.2729 53.2438 7.28672C53.2559 7.30055 53.265 7.31682 53.2705 7.33449C53.2759 7.35215 53.2775 7.37081 53.2752 7.38915V8.34605H54.2072C54.23 8.34495 54.2528 8.34853 54.2742 8.35659C54.2956 8.36466 54.3152 8.37705 54.3317 8.39297C54.3483 8.4089 54.3614 8.42804 54.3704 8.44925C54.3794 8.47046 54.384 8.49328 54.384 8.51634V8.80829C54.384 8.85423 54.3665 8.89842 54.335 8.93165C54.3036 8.96489 54.2607 8.9846 54.2152 8.98669H53.2752L53.3234 12.0358C53.3234 12.5142 53.452 12.5791 53.7974 12.571H54.2795C54.4081 12.571 54.4643 12.571 54.4723 12.6845V12.9927C54.5045 13.017 54.4643 13.0657 54.3518 13.1305Z" fill="url(#paint25_linear_432_481)"/>
<path d="M55.8299 13.171H55.4201C55.398 13.17 55.3763 13.1646 55.3562 13.155C55.3361 13.1455 55.3181 13.1321 55.3031 13.1155C55.2882 13.0989 55.2767 13.0796 55.2692 13.0585C55.2617 13.0374 55.2584 13.015 55.2595 12.9926L55.5085 8.55684C55.5126 8.51024 55.5338 8.46687 55.568 8.43533C55.6022 8.40379 55.647 8.38637 55.6933 8.38655H56.1111C56.1558 8.39249 56.1968 8.41473 56.2264 8.44909C56.256 8.48344 56.2722 8.52755 56.2718 8.57307L56.0147 13.0089C56.0088 13.054 55.9868 13.0954 55.9527 13.1253C55.9187 13.1552 55.875 13.1714 55.8299 13.171ZM56.1674 7.61618H55.7255C55.6807 7.61024 55.6397 7.588 55.6101 7.55364C55.5805 7.51929 55.5644 7.47518 55.5648 7.42966L55.6049 6.74036C55.609 6.69375 55.6302 6.65039 55.6644 6.61885C55.6987 6.5873 55.7434 6.56989 55.7897 6.57007H56.2316C56.2771 6.5742 56.3192 6.59591 56.3491 6.63068C56.3791 6.66544 56.3946 6.71058 56.3923 6.75659L56.3521 7.45398C56.3502 7.49636 56.3326 7.53649 56.3029 7.56649C56.2732 7.59648 56.2334 7.61421 56.1915 7.61618H56.1674Z" fill="url(#paint26_linear_432_481)"/>
<path d="M58.8345 13.5198C57.5731 13.3495 57.0429 12.4251 57.2277 11.1519L57.3161 10.4951C57.4848 9.22189 58.24 8.47583 59.5014 8.64613C60.7628 8.81642 61.293 9.74901 61.1082 11.0141L61.0279 11.6709C60.8511 12.9441 60.0879 13.6982 58.8345 13.5198ZM60.353 10.9167C60.4735 10.0328 60.2004 9.42461 59.3969 9.29486C58.5935 9.16512 58.1757 9.69222 58.0552 10.5842L57.9668 11.2411C57.8463 12.1169 58.1115 12.7332 58.9229 12.863C59.7344 12.9927 60.1521 12.4656 60.2727 11.5817L60.353 10.9167Z" fill="url(#paint27_linear_432_481)"/>
<path d="M64.8926 14.7522L64.4909 14.6468C64.4684 14.6421 64.4472 14.6328 64.4284 14.6195C64.4096 14.6061 64.3937 14.5891 64.3816 14.5694C64.3696 14.5496 64.3617 14.5276 64.3584 14.5047C64.3551 14.4817 64.3564 14.4583 64.3624 14.436L65.0613 11.6545C65.2783 10.7949 65.0614 10.4624 64.4267 10.3002C64.0244 10.2215 63.6097 10.2353 63.2135 10.3408L62.3136 13.9089C62.2989 13.9527 62.2685 13.9894 62.2284 14.0119C62.1883 14.0344 62.1414 14.041 62.0967 14.0305L61.687 13.9251C61.6662 13.9195 61.6468 13.9097 61.6299 13.8964C61.613 13.8831 61.5988 13.8666 61.5884 13.8477C61.5779 13.8288 61.5712 13.808 61.5689 13.7864C61.5665 13.7649 61.5684 13.7431 61.5745 13.7224L62.6591 9.40819C62.6628 9.38582 62.6711 9.36446 62.6835 9.34553C62.6959 9.3266 62.712 9.31052 62.731 9.29829C62.7499 9.28606 62.7712 9.27798 62.7934 9.27456C62.8156 9.27114 62.8383 9.27246 62.86 9.27844L63.2777 9.38387C63.3001 9.38842 63.3213 9.39773 63.3398 9.41116C63.3583 9.4246 63.3738 9.44185 63.3852 9.4618C63.3966 9.48174 63.4036 9.50392 63.4059 9.52684C63.4081 9.54975 63.4056 9.5729 63.3983 9.59472L63.3581 9.74877C63.822 9.60241 64.3169 9.58839 64.7882 9.70824C65.7925 9.96773 66.0897 10.7138 65.8005 11.841L65.1015 14.6225C65.0968 14.6452 65.0876 14.6667 65.0744 14.6856C65.0612 14.7046 65.0443 14.7206 65.0248 14.7328C65.0052 14.7449 64.9834 14.7529 64.9607 14.7563C64.938 14.7596 64.9148 14.7582 64.8926 14.7522Z" fill="url(#paint28_linear_432_481)"/>
<path d="M72.2119 11.0868L71.8262 10.9327C71.4486 10.7705 71.2879 10.8354 71.1111 11.2814L70.8701 11.8653L71.6735 12.214C71.6938 12.2211 71.7123 12.2323 71.7279 12.2471C71.7435 12.2618 71.7559 12.2797 71.7642 12.2996C71.7725 12.3195 71.7766 12.3409 71.7763 12.3625C71.7759 12.384 71.771 12.4053 71.7619 12.4248L71.6334 12.733C71.6268 12.7526 71.6159 12.7704 71.6015 12.7852C71.5871 12.8 71.5696 12.8113 71.5503 12.8183C71.531 12.8253 71.5104 12.8278 71.49 12.8257C71.4697 12.8236 71.45 12.8168 71.4325 12.806L70.5889 12.4573L69.0865 16.1389C69.0688 16.1792 69.0364 16.2111 68.9959 16.2277C68.9554 16.2443 68.9102 16.2445 68.8696 16.2281L68.4759 16.0659C68.436 16.0481 68.4044 16.0153 68.388 15.9745C68.3715 15.9336 68.3713 15.8879 68.3875 15.847L69.8899 12.1653L69.1508 11.7518C69.1309 11.7454 69.1124 11.735 69.0967 11.7212C69.0809 11.7074 69.0681 11.6905 69.0591 11.6715C69.05 11.6525 69.045 11.6318 69.0442 11.6107C69.0433 11.5897 69.0468 11.5687 69.0544 11.549L69.1428 11.3301C69.1619 11.2912 69.195 11.2612 69.2353 11.2461C69.2756 11.231 69.3201 11.2321 69.3597 11.249L70.1631 11.5734L70.4041 10.9895C70.4375 10.8192 70.5124 10.66 70.6219 10.5262C70.7315 10.3923 70.8724 10.2882 71.0318 10.223C71.1912 10.1578 71.3642 10.1337 71.5351 10.1529C71.7061 10.172 71.8696 10.2338 72.011 10.3326C72.1591 10.3991 72.3015 10.4778 72.4368 10.5678C72.5172 10.6327 72.5654 10.6894 72.5332 10.7624L72.4288 11.03C72.3645 11.1192 72.3002 11.1274 72.2119 11.0868Z" fill="url(#paint29_linear_432_481)"/>
<path d="M71.995 17.7689C70.8702 17.1769 70.6855 16.1471 71.28 14.9874L71.5853 14.4036C72.1718 13.2682 73.1359 12.8222 74.2607 13.4223C75.3855 14.0224 75.5703 15.0442 74.9838 16.2038L74.6785 16.7877C74.5872 17.0473 74.4402 17.2832 74.2479 17.4786C74.0556 17.674 73.8228 17.824 73.5663 17.9179C73.3097 18.0117 73.0358 18.0469 72.7641 18.0212C72.4924 17.9954 72.2298 17.9093 71.995 17.7689ZM74.3089 15.847C74.7186 15.0361 74.6624 14.3954 73.9473 14.0143C73.2323 13.6332 72.6699 13.9657 72.2521 14.7604L71.9468 15.3442C71.5451 16.1552 71.5853 16.7958 72.3084 17.1769C73.0315 17.5581 73.5938 17.2256 74.0036 16.4309L74.3089 15.847Z" fill="url(#paint30_linear_432_481)"/>
<path d="M78.3258 16.6175C77.9707 16.3895 77.5575 16.2712 77.1367 16.2769L75.1121 19.3422C75.0875 19.3797 75.0492 19.4059 75.0055 19.415C74.9619 19.4242 74.9164 19.4155 74.8791 19.3909L74.5176 19.1638C74.4847 19.1355 74.4627 19.0965 74.4553 19.0536C74.448 19.0106 74.4558 18.9664 74.4774 18.9286L76.8876 15.1983C76.8983 15.1782 76.9131 15.1606 76.931 15.1466C76.9489 15.1327 76.9696 15.1227 76.9915 15.1173C77.0135 15.112 77.0364 15.1113 77.0587 15.1155C77.0809 15.1197 77.102 15.1286 77.1206 15.1416L77.4581 15.3605C77.4953 15.3853 77.5212 15.424 77.5302 15.4681C77.5393 15.5121 77.5307 15.558 77.5063 15.5957L77.4099 15.7498C77.8469 15.7159 78.2832 15.8239 78.6552 16.0579C78.6768 16.0668 78.6961 16.0806 78.7116 16.0983C78.7271 16.1159 78.7384 16.1369 78.7446 16.1596C78.7508 16.1823 78.7517 16.2061 78.7474 16.2293C78.743 16.2524 78.7335 16.2743 78.7194 16.2931L78.5266 16.5931C78.4784 16.6742 78.3981 16.6823 78.3258 16.6175Z" fill="url(#paint31_linear_432_481)"/>
<path d="M79.4745 22.8617C79.1104 22.5433 78.7719 22.1962 78.4622 21.8237C78.3739 21.7102 78.3819 21.6696 78.4622 21.5967L78.6872 21.3372C78.7 21.3231 78.7155 21.312 78.7328 21.3043C78.7501 21.2967 78.7687 21.2927 78.7876 21.2927C78.8065 21.2927 78.8252 21.2967 78.8424 21.3043C78.8597 21.312 78.8753 21.3231 78.888 21.3372C79.1692 21.6291 79.6352 22.0589 79.9325 22.3184C80.7359 23.0077 81.2019 22.8698 81.5956 22.4076C81.8768 22.0832 81.8446 21.7264 81.5956 20.8425L81.2903 19.9018C81.0091 19.0017 81.0011 18.4097 81.451 17.8826C82.1339 17.0716 83.0176 17.2095 84.0059 18.0691C84.384 18.4056 84.7434 18.7629 85.0824 19.1395C85.1073 19.1689 85.121 19.2063 85.121 19.245C85.121 19.2836 85.1073 19.321 85.0824 19.3504L84.8414 19.6342C84.8286 19.6482 84.8131 19.6594 84.7958 19.667C84.7785 19.6747 84.7598 19.6786 84.741 19.6786C84.7221 19.6786 84.7034 19.6747 84.6861 19.667C84.6689 19.6594 84.6533 19.6482 84.6405 19.6342C84.3674 19.3666 83.9255 18.9449 83.5479 18.6124C82.873 18.0286 82.4633 17.9231 82.0535 18.4016C81.7804 18.7178 81.8446 19.0909 82.0535 19.8207L82.3428 20.7127C82.7123 21.8237 82.6722 22.4238 82.2222 22.9509C81.7723 23.478 80.7359 23.9889 79.4745 22.8617Z" fill="url(#paint32_linear_432_481)"/>
<path d="M83.1464 26.3162C82.998 26.2026 82.8584 26.0779 82.7286 25.9431C82.1662 25.3674 82.0537 24.9538 82.7286 24.2807L84.8737 22.1561L84.3596 21.483C84.344 21.4686 84.3315 21.451 84.323 21.4315C84.3145 21.412 84.3101 21.3908 84.3101 21.3695C84.3101 21.3481 84.3145 21.327 84.323 21.3075C84.3315 21.2879 84.344 21.2704 84.3596 21.2559L84.5283 21.0938C84.5418 21.0768 84.559 21.0632 84.5784 21.0538C84.5979 21.0444 84.6192 21.0396 84.6407 21.0396C84.6623 21.0396 84.6836 21.0444 84.7031 21.0538C84.7225 21.0632 84.7397 21.0768 84.7532 21.0938L85.3397 21.6939L85.9423 21.1019C85.9745 21.0734 86.0159 21.0576 86.0588 21.0576C86.1016 21.0576 86.143 21.0734 86.1753 21.1019L86.5449 21.3776C86.5677 21.4064 86.5801 21.4421 86.5801 21.479C86.5801 21.5158 86.5677 21.5516 86.5449 21.5803L85.87 22.2453L86.5208 22.9103C86.5518 22.9446 86.569 22.9894 86.569 23.0359C86.569 23.0825 86.5518 23.1273 86.5208 23.1616L86.3119 23.3725C86.2788 23.4057 86.234 23.4243 86.1873 23.4243C86.1407 23.4243 86.0959 23.4057 86.0628 23.3725L85.412 22.6994L83.2589 24.8322C82.9214 25.1646 82.9616 25.2944 83.2026 25.5458L83.54 25.8945C83.6204 25.9837 83.6445 26.0486 83.5802 26.1134L83.3633 26.3243C83.2669 26.381 83.2026 26.3811 83.1464 26.3162Z" fill="url(#paint33_linear_432_481)"/>
<path d="M85.6131 29.3492L85.3641 29.041C85.333 29.0066 85.3158 28.9618 85.3158 28.9153C85.3158 28.8688 85.333 28.824 85.3641 28.7896L85.5087 28.6761C85.0547 28.5173 84.6521 28.237 84.3437 27.8652C84.2053 27.7326 84.0988 27.57 84.0321 27.3896C83.9655 27.2092 83.9405 27.0158 83.9591 26.8242C83.9777 26.6326 84.0394 26.4478 84.1394 26.2839C84.2395 26.12 84.3753 25.9813 84.5365 25.8784L84.6169 25.8054C85.3399 25.2134 86.0469 25.3431 87.0271 26.5514L87.4288 27.0461L87.702 26.8272C88.2564 26.3649 88.2966 26.0162 87.8707 25.481C87.5913 25.1353 87.2936 24.805 86.9789 24.4917C86.9789 24.4917 86.8986 24.3538 86.9789 24.2808L87.2119 24.0862C87.2842 24.0295 87.3646 24.0376 87.4529 24.0862C87.7936 24.3825 88.1081 24.7081 88.393 25.0593C88.5635 25.2112 88.6965 25.4013 88.7811 25.6143C88.8656 25.8274 88.8995 26.0576 88.88 26.2863C88.8605 26.515 88.788 26.7359 88.6686 26.9312C88.5491 27.1266 88.3859 27.2909 88.1921 27.411L85.8541 29.3492C85.8384 29.3653 85.8197 29.3782 85.799 29.387C85.7783 29.3958 85.7561 29.4003 85.7336 29.4003C85.7112 29.4003 85.689 29.3958 85.6683 29.387C85.6476 29.3782 85.6288 29.3653 85.6131 29.3492ZM87.0271 27.4273L86.6174 26.9245C85.9586 26.1136 85.6051 26.0406 85.1311 26.4298L85.0507 26.4947C84.9532 26.548 84.8703 26.6248 84.8092 26.7182C84.748 26.8116 84.7107 26.9187 84.7003 27.0301C84.69 27.1416 84.707 27.2539 84.7499 27.3571C84.7928 27.4603 84.8603 27.5512 84.9463 27.6219C85.2145 27.9375 85.5611 28.1754 85.9505 28.3112L87.0271 27.4273Z" fill="url(#paint34_linear_432_481)"/>
<path d="M88.1354 33.1199L87.9105 32.7712C87.8864 32.7313 87.8789 32.6835 87.8894 32.638C87.8999 32.5925 87.9277 32.553 87.9667 32.528L90.377 30.971C91.1081 30.4925 91.1804 30.0952 90.8109 29.5437C90.5695 29.2076 90.2565 28.9305 89.8949 28.7328L86.8419 30.7358C86.8034 30.7608 86.7567 30.7698 86.7117 30.7607C86.6667 30.7516 86.627 30.7252 86.6009 30.6871L86.3679 30.3303C86.3562 30.3112 86.3484 30.2899 86.3449 30.2677C86.3414 30.2455 86.3423 30.2228 86.3475 30.2009C86.3527 30.1791 86.3622 30.1584 86.3753 30.1403C86.3885 30.1221 86.4051 30.1068 86.4241 30.0952L90.1199 27.6624C90.1563 27.637 90.2011 27.627 90.2446 27.6346C90.2882 27.6421 90.3271 27.6667 90.3529 27.7029L90.5859 28.0678C90.6103 28.1055 90.6189 28.1514 90.6099 28.1954C90.6008 28.2395 90.5749 28.2782 90.5377 28.303L90.3931 28.3922C90.8344 28.6014 91.2098 28.9298 91.4777 29.341C92.0401 30.2168 91.7509 30.9628 90.7868 31.5954L88.3765 33.1605C88.3389 33.1864 88.2928 33.1966 88.2479 33.189C88.203 33.1815 88.1627 33.1567 88.1354 33.1199Z" fill="url(#paint35_linear_432_481)"/>
<path d="M90.2565 37.0529C89.9348 36.6228 89.6525 36.1641 89.4128 35.6824C88.8424 34.5228 89.3245 33.6146 90.4814 33.0226L91.0438 32.7469C92.2489 32.1387 93.2131 32.3576 93.7674 33.4929C93.9187 33.801 94.045 34.1211 94.145 34.4498L95.5832 33.7281C95.6019 33.7172 95.6227 33.7104 95.6442 33.7082C95.6657 33.706 95.6874 33.7084 95.7079 33.7153C95.7284 33.7222 95.7472 33.7334 95.7631 33.7482C95.779 33.763 95.7916 33.781 95.8001 33.8011L95.9929 34.1985C96.0024 34.217 96.008 34.2373 96.0095 34.2581C96.011 34.2789 96.0083 34.2998 96.0015 34.3195C95.9947 34.3392 95.9841 34.3573 95.9702 34.3728C95.9563 34.3882 95.9394 34.4006 95.9206 34.4093L90.5136 37.1259C90.4171 37.1827 90.377 37.1827 90.2565 37.0529ZM93.5746 34.7337C93.4671 34.4093 93.3327 34.0946 93.1729 33.793C92.7953 33.0307 92.2088 32.982 91.3812 33.4362L90.8269 33.7119C89.9833 34.1336 89.6298 34.6201 90.0235 35.3824C90.171 35.6883 90.3346 35.9861 90.5136 36.2744L93.5746 34.7337Z" fill="url(#paint36_linear_432_481)"/>
<path d="M91.7348 41.1159L91.5902 40.7428C91.5826 40.7215 91.5793 40.6989 91.5804 40.6763C91.5816 40.6537 91.5872 40.6316 91.5969 40.6112C91.6066 40.5908 91.6202 40.5726 91.637 40.5576C91.6538 40.5426 91.6734 40.5311 91.6946 40.5239L91.8714 40.4509C91.4927 40.167 91.196 39.7863 91.0117 39.348C90.9249 39.1777 90.877 38.9898 90.8716 38.7983C90.8662 38.6068 90.9034 38.4166 90.9805 38.2415C91.0576 38.0665 91.1726 37.9111 91.317 37.7868C91.4615 37.6625 91.6317 37.5725 91.8151 37.5234L91.9115 37.4829C92.7873 37.1585 93.4059 37.4829 93.9442 38.9588L94.1692 39.567L94.4905 39.4453C95.1654 39.1858 95.2939 38.8696 95.085 38.2289C94.8762 37.5883 94.7075 37.3207 94.5548 37.0044C94.5548 37.0044 94.5548 37.0044 94.5548 36.9639C94.5457 36.946 94.5405 36.9264 94.5397 36.9063C94.5389 36.8863 94.5425 36.8662 94.5501 36.8477C94.5578 36.8292 94.5694 36.8125 94.584 36.799C94.5987 36.7854 94.6162 36.7753 94.6351 36.7692L94.9163 36.6638C95.0047 36.6638 95.077 36.6638 95.1333 36.7774C95.3617 37.1662 95.5527 37.5763 95.7037 38.0019C95.8177 38.2 95.884 38.4224 95.897 38.6512C95.9101 38.8799 95.8696 39.1086 95.7788 39.3186C95.6881 39.5286 95.5496 39.7141 95.3747 39.8601C95.1997 40.0061 94.9932 40.1085 94.7717 40.1589L91.9838 41.2213C91.9609 41.2331 91.9358 41.2397 91.9101 41.2407C91.8844 41.2417 91.8588 41.237 91.8351 41.2269C91.8114 41.2169 91.7901 41.2018 91.7728 41.1826C91.7554 41.1634 91.7425 41.1406 91.7348 41.1159ZM93.6791 39.7535L93.4621 39.1534C93.0926 38.164 92.7792 37.9857 92.2088 38.2046H92.1124C91.5259 38.4236 91.4777 38.756 91.6464 39.2345C91.803 39.6193 92.0547 39.9571 92.3775 40.2157L93.6791 39.7535Z" fill="url(#paint37_linear_432_481)"/>
<path d="M96.5633 42.981C96.4471 42.5695 96.2155 42.2006 95.8965 41.9187L92.4096 42.8837C92.388 42.8898 92.3654 42.8915 92.3431 42.8887C92.3208 42.8858 92.2993 42.8785 92.2799 42.8672C92.2604 42.8559 92.2434 42.8408 92.2298 42.8227C92.2162 42.8046 92.2063 42.784 92.2007 42.7621L92.0802 42.3485C92.0745 42.3048 92.0842 42.2605 92.1078 42.2234C92.1313 42.1863 92.1671 42.1588 92.2088 42.1457L96.4509 40.9699C96.4713 40.961 96.4934 40.9567 96.5156 40.9573C96.5379 40.958 96.5597 40.9635 96.5796 40.9735C96.5995 40.9836 96.617 40.9979 96.6308 41.0155C96.6447 41.0331 96.6545 41.0535 96.6597 41.0753L96.7722 41.4727C96.7823 41.5167 96.7755 41.5629 96.7531 41.6021C96.7307 41.6412 96.6945 41.6703 96.6517 41.6835L96.475 41.7322C96.8213 42.0035 97.0743 42.378 97.198 42.8026C97.198 42.9242 97.198 42.9891 97.0936 43.0215L96.7562 43.1108C96.6597 43.1351 96.5955 43.1351 96.5633 42.981Z" fill="url(#paint38_linear_432_481)"/>
<path d="M93.406 47.9276C93.2123 47.4266 93.0671 46.9079 92.9722 46.3788C92.7311 45.0975 93.4462 44.3514 94.7236 44.1162L95.3342 44.0027C96.6679 43.7513 97.5276 44.2298 97.7445 45.4786C97.804 45.8133 97.8362 46.1523 97.8409 46.4923L99.4478 46.2003C99.4684 46.1957 99.4898 46.1954 99.5106 46.1995C99.5314 46.2036 99.5511 46.212 99.5685 46.2242C99.5858 46.2364 99.6005 46.2521 99.6115 46.2703C99.6226 46.2886 99.6297 46.3089 99.6325 46.3301L99.7129 46.768C99.7199 46.8099 99.7104 46.8529 99.6864 46.8878C99.6623 46.9226 99.6257 46.9466 99.5843 46.9545L93.639 48.0655C93.5265 48.0898 93.4622 48.0736 93.406 47.9276ZM97.2303 46.6139C97.2123 46.2733 97.1693 45.9345 97.1018 45.6003C96.9491 44.7893 96.3787 44.5785 95.4949 44.7893L94.8843 44.9028C93.9604 45.0731 93.4944 45.4381 93.647 46.2896C93.7033 46.5815 93.8077 46.995 93.8881 47.2789L97.2303 46.6139Z" fill="url(#paint39_linear_432_481)"/>
<path d="M93.5105 49.7603L93.4623 49.3468C93.4577 49.3007 93.4711 49.2546 93.4996 49.2183C93.5281 49.1819 93.5695 49.1582 93.615 49.1522L98.0016 48.698C98.0234 48.6946 98.0456 48.6957 98.0669 48.7013C98.0882 48.7069 98.1081 48.7169 98.1254 48.7305C98.1427 48.7442 98.1571 48.7614 98.1676 48.7809C98.1781 48.8004 98.1845 48.8219 98.1864 48.844L98.2346 49.2657C98.2371 49.3126 98.2218 49.3587 98.1921 49.3948C98.1623 49.4308 98.1201 49.4542 98.074 49.4603L93.6953 49.9144C93.6729 49.9178 93.6501 49.9165 93.6283 49.9104C93.6065 49.9043 93.5862 49.8937 93.5687 49.8791C93.5513 49.8646 93.5371 49.8465 93.5271 49.826C93.517 49.8055 93.5114 49.7832 93.5105 49.7603ZM98.9899 49.2008L98.9417 48.7629C98.9395 48.7394 98.9419 48.7158 98.9487 48.6933C98.9556 48.6708 98.9669 48.6499 98.9818 48.6318C98.9968 48.6137 99.0151 48.5988 99.0358 48.5879C99.0565 48.577 99.0791 48.5703 99.1023 48.5683L99.7852 48.4953C99.8309 48.4907 99.8766 48.5042 99.9126 48.5329C99.9486 48.5617 99.9721 48.6034 99.9781 48.6494L100.018 49.0954C100.021 49.1411 100.007 49.1861 99.9787 49.222C99.9505 49.2579 99.9103 49.2821 99.8656 49.29L99.1827 49.3549C99.1599 49.3583 99.1367 49.3569 99.1144 49.3509C99.0921 49.3449 99.0713 49.3344 99.0532 49.3199C99.0352 49.3055 99.0202 49.2875 99.0093 49.267C98.9984 49.2465 98.9918 49.224 98.9899 49.2008Z" fill="url(#paint40_linear_432_481)"/>
<path d="M93.7273 54.034L93.6549 51.4066C93.6432 51.3391 93.6463 51.2698 93.6639 51.2036C93.6815 51.1374 93.7132 51.0759 93.7568 51.0233C93.8004 50.9708 93.8549 50.9285 93.9164 50.8995C93.9779 50.8704 94.045 50.8553 94.1129 50.8551H94.2736C94.4794 50.8384 94.6836 50.9023 94.844 51.0335L97.6881 53.1987C97.7118 53.2049 97.7367 53.2049 97.7604 53.1987C97.8006 53.1987 97.8247 53.1987 97.8247 53.1095L97.7604 50.993C97.7594 50.9696 97.7629 50.9461 97.7708 50.9241C97.7787 50.902 97.7908 50.8817 97.8065 50.8644C97.8221 50.8471 97.841 50.833 97.8621 50.8231C97.8831 50.8132 97.9059 50.8075 97.9291 50.8065H98.2184C98.2408 50.8042 98.2634 50.8067 98.2848 50.8138C98.3062 50.821 98.3259 50.8326 98.3426 50.8479C98.3592 50.8631 98.3725 50.8818 98.3816 50.9026C98.3906 50.9234 98.3953 50.9459 98.3951 50.9687L98.4755 53.5393C98.4755 53.8961 98.3228 54.034 98.0657 54.034H97.8568C97.7682 54.0373 97.6798 54.0224 97.597 53.9904C97.5141 53.9583 97.4386 53.9097 97.3748 53.8475L94.4664 51.6417C94.44 51.6172 94.4058 51.6029 94.37 51.6012C94.3298 51.6012 94.2977 51.6012 94.2977 51.6742L94.37 53.9772C94.3711 54.0003 94.3675 54.0233 94.3595 54.0449C94.3515 54.0665 94.3393 54.0862 94.3235 54.1029C94.3077 54.1196 94.2888 54.1329 94.2677 54.1419C94.2467 54.151 94.2241 54.1557 94.2013 54.1556H93.912C93.8721 54.1595 93.8321 54.1496 93.7985 54.1275C93.765 54.1054 93.7398 54.0724 93.7273 54.034Z" fill="url(#paint41_linear_432_481)"/>
<path d="M93.5024 58.194V57.7885C93.5045 57.7661 93.5108 57.7444 93.5212 57.7245C93.5316 57.7046 93.5458 57.6869 93.563 57.6726C93.5802 57.6583 93.6 57.6475 93.6213 57.641C93.6427 57.6344 93.665 57.6322 93.6872 57.6344H93.872C93.6438 57.2181 93.5301 56.7477 93.5426 56.2721C93.5319 56.0791 93.5649 55.8862 93.6391 55.708C93.7133 55.5298 93.8267 55.371 93.9707 55.2436C94.1147 55.1162 94.2855 55.0236 94.4703 54.9728C94.655 54.922 94.8488 54.9143 95.037 54.9503H95.1977C96.1296 55.0232 96.5554 55.599 96.451 57.1479L96.4028 57.7966H96.7483C97.4713 57.8453 97.7365 57.6101 97.7847 56.9289C97.8113 56.486 97.8113 56.0419 97.7847 55.599C97.7884 55.583 97.7884 55.5663 97.7847 55.5503C97.7847 55.4774 97.7847 55.3963 97.9293 55.4044H98.2346C98.331 55.4044 98.3792 55.4693 98.3792 55.599C98.422 56.0494 98.422 56.5029 98.3792 56.9533C98.2908 58.1616 97.6561 58.5751 96.6358 58.5346L93.631 58.3237C93.5999 58.3159 93.5715 58.2997 93.5489 58.2768C93.5263 58.254 93.5102 58.2253 93.5024 58.194ZM95.8404 57.7642L95.8806 57.1236C95.9529 56.0693 95.744 55.7693 95.1334 55.7288H95.0289C94.4103 55.7288 94.2255 55.972 94.1853 56.4748C94.1704 56.8912 94.2617 57.3044 94.4505 57.675L95.8404 57.7642Z" fill="url(#paint42_linear_432_481)"/>
<path d="M93.0044 61.4782C93.0052 61.2883 93.0186 61.0987 93.0446 60.9106C93.1731 60.0996 93.4383 59.7671 94.3702 59.9212L97.3509 60.3915L97.5759 59.5806C97.5788 59.5592 97.586 59.5386 97.5969 59.5201C97.6078 59.5015 97.6223 59.4853 97.6395 59.4724C97.6567 59.4596 97.6763 59.4504 97.6971 59.4453C97.7179 59.4402 97.7395 59.4393 97.7607 59.4427H97.9856C98.0066 59.4456 98.0268 59.4528 98.0448 59.464C98.0629 59.4751 98.0785 59.4899 98.0906 59.5075C98.1027 59.525 98.111 59.5449 98.1151 59.5659C98.1191 59.5868 98.1188 59.6084 98.1142 59.6293L97.9856 60.4402L98.7891 60.5699C98.8302 60.5776 98.8673 60.5997 98.8938 60.6324C98.9202 60.6651 98.9344 60.7062 98.9337 60.7484V61.2349C98.9299 61.2533 98.9225 61.2707 98.9119 61.286C98.9012 61.3014 98.8876 61.3144 98.8718 61.3243C98.856 61.3342 98.8384 61.3407 98.82 61.3434C98.8017 61.3462 98.7829 61.3451 98.765 61.3403L97.833 61.1944L97.6884 62.127C97.6854 62.1494 97.6781 62.171 97.6667 62.1906C97.6554 62.2102 97.6403 62.2272 97.6223 62.2408C97.6044 62.2544 97.5839 62.2643 97.5621 62.2698C97.5404 62.2753 97.5177 62.2763 97.4955 62.2729L97.1983 62.2243C97.1536 62.2145 97.1141 62.1884 97.0874 62.1509C97.0607 62.1135 97.0487 62.0674 97.0537 62.0215L97.1983 61.0971L94.2256 60.6186C93.7516 60.5456 93.6632 60.6592 93.615 60.9997L93.5427 61.4863C93.5427 61.6079 93.4784 61.6566 93.39 61.6485L93.0928 61.5998C93.0446 61.6404 93.0044 61.5917 93.0044 61.4782Z" fill="url(#paint43_linear_432_481)"/>
<path d="M92.6989 62.9541L92.7873 62.5405C92.8003 62.4969 92.8288 62.4595 92.8673 62.4356C92.9058 62.4117 92.9517 62.4029 92.9962 62.4108L97.2945 63.3758C97.3169 63.3805 97.3382 63.3898 97.357 63.4032C97.3758 63.4165 97.3917 63.4335 97.4038 63.4533C97.4158 63.473 97.4237 63.495 97.427 63.5179C97.4303 63.5409 97.429 63.5643 97.423 63.5866L97.3347 63.9921C97.325 64.0362 97.2985 64.0746 97.2608 64.0989C97.2232 64.1233 97.1775 64.1315 97.1338 64.1219L92.8355 63.1568C92.8131 63.153 92.7918 63.1446 92.7727 63.1322C92.7537 63.1198 92.7373 63.1037 92.7245 63.0848C92.7118 63.0658 92.7029 63.0445 92.6985 63.0221C92.6941 62.9996 92.6943 62.9765 92.6989 62.9541ZM98.0738 64.1786L98.1702 63.7407C98.1817 63.6955 98.2095 63.6563 98.2481 63.6308C98.2868 63.6053 98.3335 63.5953 98.3791 63.6028L99.054 63.7569C99.0983 63.7685 99.1364 63.7969 99.1604 63.8362C99.1843 63.8755 99.1923 63.9227 99.1825 63.9678L99.0861 64.3976C99.0823 64.4201 99.074 64.4417 99.0617 64.4609C99.0494 64.4801 99.0335 64.4967 99.0147 64.5096C98.996 64.5224 98.9748 64.5314 98.9526 64.5358C98.9303 64.5403 98.9074 64.5401 98.8853 64.5354L98.2104 64.3814C98.1727 64.374 98.1387 64.3539 98.1139 64.3244C98.0891 64.295 98.0749 64.2578 98.0738 64.2192V64.1786Z" fill="url(#paint44_linear_432_481)"/>
<path d="M91.8796 65.841C92.2492 64.6165 93.2374 64.2192 94.4506 64.6165L95.0773 64.8112C96.2904 65.1842 96.901 66.06 96.5315 67.244C96.1619 68.4279 95.1656 68.8658 93.9525 68.4766L93.3258 68.282C92.1126 67.9414 91.502 67.0574 91.8796 65.841ZM94.1774 67.7873C94.9809 68.0468 95.6557 67.8684 95.8967 67.0899C96.1378 66.3114 95.7039 65.8086 94.8523 65.5491L94.2256 65.3545C93.382 65.0869 92.7473 65.2572 92.5143 66.0357C92.2813 66.8141 92.6991 67.325 93.5508 67.5927L94.1774 67.7873Z" fill="url(#paint45_linear_432_481)"/>
<path d="M89.7025 71.6393L89.8712 71.2582C89.8799 71.2372 89.8927 71.2183 89.9088 71.2024C89.9249 71.1865 89.944 71.174 89.965 71.1657C89.986 71.1574 90.0084 71.1534 90.0309 71.154C90.0534 71.1545 90.0756 71.1597 90.0961 71.169L92.6992 72.3124C93.5027 72.6692 93.8642 72.507 94.1213 71.8988C94.2642 71.5106 94.3191 71.0949 94.282 70.6824L90.9397 69.2065C90.9006 69.1857 90.8707 69.1508 90.8558 69.1088C90.8409 69.0668 90.8422 69.0206 90.8594 68.9795L91.0281 68.5902C91.0376 68.57 91.0509 68.5518 91.0674 68.5368C91.0838 68.5217 91.103 68.5101 91.1239 68.5026C91.1448 68.4951 91.167 68.4918 91.1891 68.4929C91.2113 68.494 91.233 68.4995 91.2531 68.5092L95.2702 70.2851C95.2914 70.2922 95.3109 70.3037 95.3274 70.3189C95.3439 70.334 95.3572 70.3525 95.3662 70.3731C95.3753 70.3937 95.38 70.416 95.3801 70.4385C95.3802 70.4611 95.3755 70.4834 95.3666 70.504L95.1898 70.9095C95.1812 70.9295 95.1686 70.9475 95.1529 70.9624C95.1372 70.9774 95.1187 70.989 95.0984 70.9966C95.0782 71.0041 95.0566 71.0075 95.0351 71.0065C95.0135 71.0055 94.9924 71.0001 94.9729 70.9906L94.8203 70.9257C94.8911 71.4096 94.8271 71.9037 94.6355 72.353C94.2177 73.3099 93.4384 73.4802 92.3859 73.0179L89.7908 71.8664C89.7503 71.847 89.7186 71.8127 89.7022 71.7705C89.6858 71.7283 89.6859 71.6814 89.7025 71.6393Z" fill="url(#paint46_linear_432_481)"/>
<path d="M31.4779 88.6851C32.0527 88.668 32.6224 88.7992 33.133 89.0662C33.5973 89.3138 33.9757 89.6985 34.2176 90.1691C34.499 90.7457 34.6343 91.3837 34.6113 92.0261C34.6311 92.7275 34.4735 93.4225 34.1533 94.0453C33.8616 94.5803 33.4238 95.0194 32.8919 95.3104C32.3113 95.6124 31.665 95.763 31.0119 95.7483C30.6491 95.7506 30.2874 95.707 29.9353 95.6185C29.6192 95.5425 29.3159 95.4195 29.0355 95.2536L29.7345 93.875C29.9153 94.0062 30.1201 94.0999 30.3371 94.1507C30.5452 94.1995 30.7581 94.2239 30.9718 94.2237C31.2008 94.2349 31.4296 94.1982 31.644 94.1159C31.8583 94.0335 32.0534 93.9074 32.2171 93.7453C32.3826 93.5573 32.5092 93.3377 32.5892 93.0996C32.6692 92.8614 32.7012 92.6094 32.6831 92.3586V92.0099C32.695 91.8885 32.695 91.7663 32.6831 91.645L33.1571 92.0423C33.0512 92.2748 32.8979 92.482 32.7072 92.6505C32.513 92.8141 32.2893 92.938 32.0483 93.0154C31.7711 93.1075 31.4804 93.1513 31.1887 93.1452C30.7874 93.1508 30.3906 93.059 30.0318 92.8776C29.7028 92.702 29.4257 92.4418 29.2283 92.1234C29.0084 91.7902 28.8962 91.3964 28.907 90.9962C28.8972 90.5585 29.0205 90.1283 29.2605 89.7636C29.5047 89.4147 29.834 89.1354 30.2165 88.9527C30.6142 88.7766 31.0437 88.6855 31.4779 88.6851ZM31.5984 90.0555C31.4367 90.0499 31.2763 90.0862 31.1324 90.1609C30.9969 90.2278 30.8828 90.3317 30.803 90.461C30.7042 90.6321 30.664 90.8313 30.6887 91.0277C30.7134 91.2242 30.8016 91.4069 30.9396 91.5477C31.1277 91.7074 31.3691 91.7886 31.6145 91.7747C31.7838 91.7793 31.9518 91.7431 32.1046 91.6693C32.2401 91.6025 32.3543 91.4985 32.434 91.3692C32.5098 91.2303 32.5485 91.0738 32.5465 90.9151C32.5483 90.7591 32.5095 90.6053 32.434 90.4691C32.3543 90.3399 32.2401 90.2359 32.1046 90.1691C31.947 90.0917 31.7736 90.0528 31.5984 90.0555Z" fill="url(#paint47_linear_432_481)"/>
<path d="M38.2431 95.7645C37.7006 95.7813 37.1652 95.6364 36.7037 95.348C36.2422 95.0596 35.875 94.6404 35.6481 94.1427C35.3937 93.5359 35.2627 92.8837 35.2627 92.2248C35.2627 91.566 35.3937 90.9138 35.6481 90.307C35.8808 89.8122 36.2478 89.3942 36.7064 89.1016C37.165 88.8089 37.6965 88.6536 38.2391 88.6536C38.7817 88.6536 39.3132 88.8089 39.7718 89.1016C40.2305 89.3942 40.5974 89.8122 40.8301 90.307C41.0845 90.9138 41.2156 91.566 41.2156 92.2248C41.2156 92.8837 41.0845 93.5359 40.8301 94.1427C40.6037 94.6391 40.2378 95.0574 39.7779 95.3457C39.318 95.634 38.7843 95.7797 38.2431 95.7645ZM38.2431 94.1913C38.4429 94.1973 38.6377 94.1279 38.7895 93.9967C38.9709 93.8299 39.0995 93.6127 39.159 93.3723C39.259 92.9998 39.305 92.6147 39.2956 92.2289C39.3066 91.8403 39.2606 91.4523 39.159 91.0774C39.0995 90.837 38.9709 90.6198 38.7895 90.4529C38.6377 90.3217 38.4429 90.2523 38.2431 90.2583C38.0442 90.2574 37.8511 90.3262 37.6968 90.4529C37.5182 90.6221 37.3901 90.8384 37.3272 91.0774C37.2185 91.4509 37.1696 91.8397 37.1826 92.2289C37.1748 92.6302 37.2318 93.03 37.3513 93.4128C37.4142 93.6518 37.5423 93.8681 37.7209 94.0373C37.8698 94.1559 38.0534 94.2215 38.2431 94.2238V94.1913Z" fill="url(#paint48_linear_432_481)"/>
<path d="M44.8471 95.7645C44.3046 95.7813 43.7692 95.6364 43.3077 95.348C42.8462 95.0596 42.479 94.6404 42.2521 94.1427C41.9977 93.5359 41.8667 92.8837 41.8667 92.2248C41.8667 91.566 41.9977 90.9138 42.2521 90.307C42.4848 89.8122 42.8518 89.3942 43.3104 89.1016C43.769 88.8089 44.3005 88.6536 44.8431 88.6536C45.3857 88.6536 45.9172 88.8089 46.3758 89.1016C46.8345 89.3942 47.2014 89.8122 47.4342 90.307C47.6885 90.9138 47.8196 91.566 47.8196 92.2248C47.8196 92.8837 47.6885 93.5359 47.4342 94.1427C47.2077 94.6391 46.8419 95.0574 46.3819 95.3457C45.922 95.634 45.3883 95.7797 44.8471 95.7645ZM44.8471 94.1913C45.0469 94.1973 45.2417 94.1279 45.3935 93.9967C45.5721 93.8276 45.7001 93.6112 45.763 93.3723C45.863 92.9998 45.909 92.6147 45.8996 92.2289C45.9106 91.8403 45.8646 91.4523 45.763 91.0774C45.7001 90.8384 45.5721 90.6221 45.3935 90.4529C45.2417 90.3217 45.0469 90.2523 44.8471 90.2583C44.6482 90.2574 44.4551 90.3262 44.3008 90.4529C44.1222 90.6221 43.9942 90.8384 43.9312 91.0774C43.8225 91.4509 43.7737 91.8397 43.7866 92.2289C43.7753 92.6153 43.8241 93.0011 43.9312 93.3723C43.9942 93.6112 44.1222 93.8276 44.3008 93.9967C44.4506 94.1352 44.6442 94.2156 44.8471 94.2238V94.1913Z" fill="url(#paint49_linear_432_481)"/>
<path d="M49.4027 95.6347V89.5122L50.2061 90.3231H48.1333V88.8391H51.2988V95.651L49.4027 95.6347Z" fill="url(#paint50_linear_432_481)"/>
<path d="M54.1428 92.4558C53.995 92.4634 53.8473 92.4399 53.709 92.3868C53.5707 92.3338 53.4449 92.2523 53.3394 92.1476C53.2334 92.0425 53.1506 91.9158 53.0966 91.7761C53.0426 91.6363 53.0186 91.4865 53.026 91.3367C53.0165 91.1866 53.0395 91.0363 53.0937 90.8962C53.1478 90.7561 53.2317 90.6297 53.3394 90.5258C53.5554 90.3325 53.8341 90.2258 54.1227 90.2258C54.4114 90.2258 54.69 90.3325 54.9061 90.5258C55.0138 90.6297 55.0976 90.7561 55.1518 90.8962C55.2059 91.0363 55.229 91.1866 55.2194 91.3367C55.2268 91.4865 55.2028 91.6363 55.1488 91.7761C55.0948 91.9158 55.0121 92.0425 54.9061 92.1476C54.702 92.3482 54.4276 92.459 54.1428 92.4558ZM54.1428 95.6995C53.995 95.7071 53.8473 95.6836 53.709 95.6306C53.5707 95.5775 53.4449 95.4961 53.3394 95.3914C53.2334 95.2862 53.1506 95.1596 53.0966 95.0198C53.0426 94.88 53.0186 94.7303 53.026 94.5804C53.0165 94.4304 53.0395 94.28 53.0937 94.1399C53.1478 93.9998 53.2317 93.8734 53.3394 93.7695C53.5554 93.5763 53.8341 93.4696 54.1227 93.4696C54.4114 93.4696 54.69 93.5763 54.9061 93.7695C55.0138 93.8734 55.0976 93.9998 55.1518 94.1399C55.2059 94.28 55.229 94.4304 55.2194 94.5804C55.2268 94.7303 55.2028 94.88 55.1488 95.0198C55.0948 95.1596 55.0121 95.2862 54.9061 95.3914C54.8063 95.4936 54.6876 95.5749 54.5566 95.6306C54.4256 95.6863 54.2849 95.7152 54.1428 95.7157V95.6995Z" fill="url(#paint51_linear_432_481)"/>
<path d="M56.6336 95.6348V94.4266L59.1563 92.0424C59.3064 91.9095 59.4412 91.7599 59.558 91.5964C59.6344 91.4871 59.6939 91.3668 59.7348 91.2396C59.7589 91.1414 59.7724 91.0407 59.7749 90.9396C59.7803 90.8433 59.7635 90.747 59.7259 90.6584C59.6883 90.5698 59.6308 90.4911 59.558 90.4287C59.3709 90.2885 59.1394 90.2222 58.9072 90.2421C58.6702 90.242 58.4364 90.2975 58.2243 90.4043C58.0086 90.5177 57.8279 90.6889 57.7021 90.899L56.2881 90.0881C56.5475 89.6495 56.9232 89.2928 57.3727 89.0582C57.9018 88.7857 58.4902 88.6518 59.084 88.6689C59.5514 88.6586 60.0161 88.7441 60.4498 88.9203C60.8184 89.0692 61.1385 89.3192 61.3737 89.6421C61.596 89.9624 61.7113 90.3459 61.7032 90.7368C61.7026 90.9588 61.6728 91.1796 61.6148 91.3937C61.5438 91.6429 61.4325 91.8785 61.2854 92.0911C61.0704 92.3864 60.8253 92.6582 60.5543 92.902L58.5537 94.7672L58.2324 94.086H61.888V95.6186L56.6336 95.6348Z" fill="url(#paint52_linear_432_481)"/>
<path d="M65.3989 95.7645C64.8564 95.7813 64.3209 95.6364 63.8594 95.348C63.3979 95.0596 63.0308 94.6404 62.8038 94.1427C62.5495 93.5359 62.4185 92.8837 62.4185 92.2248C62.4185 91.566 62.5495 90.9138 62.8038 90.307C63.0366 89.8122 63.4035 89.3942 63.8622 89.1016C64.3208 88.8089 64.8523 88.6536 65.3949 88.6536C65.9375 88.6536 66.469 88.8089 66.9276 89.1016C67.3863 89.3942 67.7532 89.8122 67.9859 90.307C68.2403 90.9138 68.3713 91.566 68.3713 92.2248C68.3713 92.8837 68.2403 93.5359 67.9859 94.1427C67.7595 94.6391 67.3936 95.0574 66.9337 95.3457C66.4738 95.634 65.9401 95.7797 65.3989 95.7645ZM65.3989 94.1913C65.5987 94.1973 65.7934 94.1279 65.9452 93.9967C66.1267 93.8299 66.2553 93.6127 66.3148 93.3723C66.4148 92.9998 66.4608 92.6147 66.4514 92.2289C66.4624 91.8403 66.4163 91.4523 66.3148 91.0774C66.2553 90.837 66.1267 90.6198 65.9452 90.4529C65.7934 90.3217 65.5987 90.2523 65.3989 90.2583C65.2 90.2574 65.0069 90.3262 64.8526 90.4529C64.674 90.6221 64.5459 90.8384 64.483 91.0774C64.3742 91.4509 64.3254 91.8397 64.3384 92.2289C64.3271 92.6153 64.3759 93.0011 64.483 93.3723C64.5459 93.6112 64.674 93.8276 64.8526 93.9967C65.0024 94.1352 65.1959 94.2156 65.3989 94.2238V94.1913Z" fill="url(#paint53_linear_432_481)"/>
<path d="M69.9379 95.6347V89.5122L70.7413 90.3231H68.6846V88.8391H71.8501V95.651L69.9379 95.6347Z" fill="url(#paint54_linear_432_481)"/>
<path d="M75.2244 95.7646C74.7534 95.764 74.2841 95.7068 73.8264 95.5943C73.3999 95.4913 72.991 95.3246 72.6133 95.0996L73.2962 93.6481C73.5753 93.828 73.8783 93.9672 74.196 94.0616C74.5115 94.157 74.8389 94.2062 75.1682 94.2076C75.4483 94.2269 75.7279 94.162 75.9716 94.0211C76.0636 93.9684 76.1398 93.8917 76.1922 93.7989C76.2445 93.7061 76.271 93.6007 76.2689 93.494C76.2701 93.3635 76.2307 93.2358 76.1564 93.129C76.058 93.0032 75.9184 92.917 75.7627 92.8858C75.5002 92.8191 75.2299 92.789 74.9593 92.7966H73.1034L73.4408 88.823H77.7391V90.307H74.1157L75.0878 89.4961L74.8709 92.1803L73.8907 91.3693H75.3851C75.9347 91.3457 76.4829 91.4425 76.9919 91.6531C77.3578 91.8125 77.6663 92.0814 77.8757 92.4235C78.065 92.7534 78.1622 93.129 78.1569 93.5102C78.1574 93.9079 78.049 94.298 77.8436 94.6374C77.6118 95.0114 77.2805 95.3121 76.8875 95.5051C76.36 95.7184 75.7911 95.8072 75.2244 95.7646Z" fill="url(#paint55_linear_432_481)"/>
<path d="M15.9963 18.1825C16.9769 18.1825 17.7718 17.3801 17.7718 16.3903C17.7718 15.4005 16.9769 14.5981 15.9963 14.5981C15.0157 14.5981 14.2207 15.4005 14.2207 16.3903C14.2207 17.3801 15.0157 18.1825 15.9963 18.1825Z" fill="#E9722C"/>
<path d="M90.2487 18.1825C91.2293 18.1825 92.0243 17.3801 92.0243 16.3903C92.0243 15.4005 91.2293 14.5981 90.2487 14.5981C89.2681 14.5981 88.4731 15.4005 88.4731 16.3903C88.4731 17.3801 89.2681 18.1825 90.2487 18.1825Z" fill="#E9722C"/>
<path d="M15.9963 92.7074C16.9769 92.7074 17.7718 91.905 17.7718 90.9152C17.7718 89.9254 16.9769 89.123 15.9963 89.123C15.0157 89.123 14.2207 89.9254 14.2207 90.9152C14.2207 91.905 15.0157 92.7074 15.9963 92.7074Z" fill="#E9722C"/>
<path d="M90.2487 92.7074C91.2293 92.7074 92.0243 91.905 92.0243 90.9152C92.0243 89.9254 91.2293 89.123 90.2487 89.123C89.2681 89.123 88.4731 89.9254 88.4731 90.9152C88.4731 91.905 89.2681 92.7074 90.2487 92.7074Z" fill="#E9722C"/>
</g>
<defs>
<linearGradient id="paint0_linear_432_481" x1="22.3996" y1="100.541" x2="102.973" y2="32.522" gradientUnits="userSpaceOnUse">
<stop stop-color="#E87D24"/>
<stop offset="0.5" stop-color="#E23445"/>
<stop offset="1" stop-color="#DA0E82"/>
</linearGradient>
<linearGradient id="paint1_linear_432_481" x1="1.15679" y1="75.3776" x2="81.7223" y2="7.35858" gradientUnits="userSpaceOnUse">
<stop stop-color="#E87D24"/>
<stop offset="0.5" stop-color="#E23445"/>
<stop offset="1" stop-color="#DA0E82"/>
</linearGradient>
<linearGradient id="paint2_linear_432_481" x1="20.8809" y1="98.7407" x2="101.454" y2="30.7218" gradientUnits="userSpaceOnUse">
<stop stop-color="#E87D24"/>
<stop offset="0.5" stop-color="#E23445"/>
<stop offset="1" stop-color="#DA0E82"/>
</linearGradient>
<linearGradient id="paint3_linear_432_481" x1="4.14553" y1="78.9135" x2="84.711" y2="10.8945" gradientUnits="userSpaceOnUse">
<stop stop-color="#E87D24"/>
<stop offset="0.5" stop-color="#E23445"/>
<stop offset="1" stop-color="#DA0E82"/>
</linearGradient>
<linearGradient id="paint4_linear_432_481" x1="10.7901" y1="86.7874" x2="91.3635" y2="18.7766" gradientUnits="userSpaceOnUse">
<stop stop-color="#E87D24"/>
<stop offset="0.5" stop-color="#E23445"/>
<stop offset="1" stop-color="#DA0E82"/>
</linearGradient>
<linearGradient id="paint5_linear_432_481" x1="4.29052" y1="79.0916" x2="84.864" y2="11.0727" gradientUnits="userSpaceOnUse">
<stop stop-color="#E87D24"/>
<stop offset="0.5" stop-color="#E23445"/>
<stop offset="1" stop-color="#DA0E82"/>
</linearGradient>
<linearGradient id="paint6_linear_432_481" x1="2.37826" y1="76.8212" x2="82.9434" y2="8.81031" gradientUnits="userSpaceOnUse">
<stop stop-color="#E87D24"/>
<stop offset="0.5" stop-color="#E23445"/>
<stop offset="1" stop-color="#DA0E82"/>
</linearGradient>
<linearGradient id="paint7_linear_432_481" x1="-2.29775" y1="71.2904" x2="78.2755" y2="3.27145" gradientUnits="userSpaceOnUse">
<stop stop-color="#E87D24"/>
<stop offset="0.5" stop-color="#E23445"/>
<stop offset="1" stop-color="#DA0E82"/>
</linearGradient>
<linearGradient id="paint8_linear_432_481" x1="-4.41062" y1="68.7765" x2="76.1543" y2="0.765638" gradientUnits="userSpaceOnUse">
<stop stop-color="#E87D24"/>
<stop offset="0.5" stop-color="#E23445"/>
<stop offset="1" stop-color="#DA0E82"/>
</linearGradient>
<linearGradient id="paint9_linear_432_481" x1="-6.09779" y1="66.7819" x2="74.4676" y2="-1.22908" gradientUnits="userSpaceOnUse">
<stop stop-color="#E87D24"/>
<stop offset="0.5" stop-color="#E23445"/>
<stop offset="1" stop-color="#DA0E82"/>
</linearGradient>
<linearGradient id="paint10_linear_432_481" x1="-8.30732" y1="64.1706" x2="72.2661" y2="-3.84835" gradientUnits="userSpaceOnUse">
<stop stop-color="#E87D24"/>
<stop offset="0.5" stop-color="#E23445"/>
<stop offset="1" stop-color="#DA0E82"/>
</linearGradient>
<linearGradient id="paint11_linear_432_481" x1="-10.1956" y1="61.9323" x2="70.3776" y2="-6.08661" gradientUnits="userSpaceOnUse">
<stop stop-color="#E87D24"/>
<stop offset="0.5" stop-color="#E23445"/>
<stop offset="1" stop-color="#DA0E82"/>
</linearGradient>
<linearGradient id="paint12_linear_432_481" x1="-11.328" y1="60.5864" x2="69.2375" y2="-7.43259" gradientUnits="userSpaceOnUse">
<stop stop-color="#E87D24"/>
<stop offset="0.5" stop-color="#E23445"/>
<stop offset="1" stop-color="#DA0E82"/>
</linearGradient>
<linearGradient id="paint13_linear_432_481" x1="-11.947" y1="59.8565" x2="68.6185" y2="-8.16263" gradientUnits="userSpaceOnUse">
<stop stop-color="#E87D24"/>
<stop offset="0.5" stop-color="#E23445"/>
<stop offset="1" stop-color="#DA0E82"/>
</linearGradient>
<linearGradient id="paint14_linear_432_481" x1="-13.1521" y1="58.4292" x2="67.4214" y2="-9.58964" gradientUnits="userSpaceOnUse">
<stop stop-color="#E87D24"/>
<stop offset="0.5" stop-color="#E23445"/>
<stop offset="1" stop-color="#DA0E82"/>
</linearGradient>
<linearGradient id="paint15_linear_432_481" x1="-14.1644" y1="57.237" x2="66.409" y2="-10.782" gradientUnits="userSpaceOnUse">
<stop stop-color="#E87D24"/>
<stop offset="0.5" stop-color="#E23445"/>
<stop offset="1" stop-color="#DA0E82"/>
</linearGradient>
<linearGradient id="paint16_linear_432_481" x1="-15.2249" y1="55.972" x2="65.3405" y2="-12.0471" gradientUnits="userSpaceOnUse">
<stop stop-color="#E87D24"/>
<stop offset="0.5" stop-color="#E23445"/>
<stop offset="1" stop-color="#DA0E82"/>
</linearGradient>
<linearGradient id="paint17_linear_432_481" x1="-15.6668" y1="55.445" x2="64.8986" y2="-12.5741" gradientUnits="userSpaceOnUse">
<stop stop-color="#E87D24"/>
<stop offset="0.5" stop-color="#E23445"/>
<stop offset="1" stop-color="#DA0E82"/>
</linearGradient>
<linearGradient id="paint18_linear_432_481" x1="-15.1445" y1="56.0694" x2="65.4289" y2="-11.9496" gradientUnits="userSpaceOnUse">
<stop stop-color="#E87D24"/>
<stop offset="0.5" stop-color="#E23445"/>
<stop offset="1" stop-color="#DA0E82"/>
</linearGradient>
<linearGradient id="paint19_linear_432_481" x1="-14.3411" y1="57.0262" x2="66.2323" y2="-10.9928" gradientUnits="userSpaceOnUse">
<stop stop-color="#E87D24"/>
<stop offset="0.5" stop-color="#E23445"/>
<stop offset="1" stop-color="#DA0E82"/>
</linearGradient>
<linearGradient id="paint20_linear_432_481" x1="-14.2931" y1="57.0748" x2="66.2722" y2="-10.9442" gradientUnits="userSpaceOnUse">
<stop stop-color="#E87D24"/>
<stop offset="0.5" stop-color="#E23445"/>
<stop offset="1" stop-color="#DA0E82"/>
</linearGradient>
<linearGradient id="paint21_linear_432_481" x1="-13.4172" y1="58.1131" x2="67.1484" y2="-9.90594" gradientUnits="userSpaceOnUse">
<stop stop-color="#E87D24"/>
<stop offset="0.5" stop-color="#E23445"/>
<stop offset="1" stop-color="#DA0E82"/>
</linearGradient>
<linearGradient id="paint22_linear_432_481" x1="-13.0642" y1="58.5346" x2="67.5013" y2="-9.48502" gradientUnits="userSpaceOnUse">
<stop stop-color="#E87D24"/>
<stop offset="0.5" stop-color="#E23445"/>
<stop offset="1" stop-color="#DA0E82"/>
</linearGradient>
<linearGradient id="paint23_linear_432_481" x1="-11.5934" y1="60.2698" x2="68.9719" y2="-7.74917" gradientUnits="userSpaceOnUse">
<stop stop-color="#E87D24"/>
<stop offset="0.5" stop-color="#E23445"/>
<stop offset="1" stop-color="#DA0E82"/>
</linearGradient>
<linearGradient id="paint24_linear_432_481" x1="-10.0826" y1="62.0622" x2="70.4828" y2="-5.95664" gradientUnits="userSpaceOnUse">
<stop stop-color="#E87D24"/>
<stop offset="0.5" stop-color="#E23445"/>
<stop offset="1" stop-color="#DA0E82"/>
</linearGradient>
<linearGradient id="paint25_linear_432_481" x1="-8.70083" y1="63.7004" x2="71.8646" y2="-4.31855" gradientUnits="userSpaceOnUse">
<stop stop-color="#E87D24"/>
<stop offset="0.5" stop-color="#E23445"/>
<stop offset="1" stop-color="#DA0E82"/>
</linearGradient>
<linearGradient id="paint26_linear_432_481" x1="-7.88981" y1="64.6652" x2="72.6836" y2="-3.35399" gradientUnits="userSpaceOnUse">
<stop stop-color="#E87D24"/>
<stop offset="0.5" stop-color="#E23445"/>
<stop offset="1" stop-color="#DA0E82"/>
</linearGradient>
<linearGradient id="paint27_linear_432_481" x1="-5.88953" y1="67.0334" x2="74.6761" y2="-0.985892" gradientUnits="userSpaceOnUse">
<stop stop-color="#E87D24"/>
<stop offset="0.5" stop-color="#E23445"/>
<stop offset="1" stop-color="#DA0E82"/>
</linearGradient>
<linearGradient id="paint28_linear_432_481" x1="-3.44657" y1="69.92" x2="77.1188" y2="1.90102" gradientUnits="userSpaceOnUse">
<stop stop-color="#E87D24"/>
<stop offset="0.5" stop-color="#E23445"/>
<stop offset="1" stop-color="#DA0E82"/>
</linearGradient>
<linearGradient id="paint29_linear_432_481" x1="-0.385554" y1="73.5449" x2="80.1798" y2="5.53397" gradientUnits="userSpaceOnUse">
<stop stop-color="#E87D24"/>
<stop offset="0.5" stop-color="#E23445"/>
<stop offset="1" stop-color="#DA0E82"/>
</linearGradient>
<linearGradient id="paint30_linear_432_481" x1="2.19366" y1="76.6021" x2="82.759" y2="8.59127" gradientUnits="userSpaceOnUse">
<stop stop-color="#E87D24"/>
<stop offset="0.5" stop-color="#E23445"/>
<stop offset="1" stop-color="#DA0E82"/>
</linearGradient>
<linearGradient id="paint31_linear_432_481" x1="4.26625" y1="79.0593" x2="84.8317" y2="11.0404" gradientUnits="userSpaceOnUse">
<stop stop-color="#E87D24"/>
<stop offset="0.5" stop-color="#E23445"/>
<stop offset="1" stop-color="#DA0E82"/>
</linearGradient>
<linearGradient id="paint32_linear_432_481" x1="8.211" y1="83.7303" x2="88.7764" y2="15.7115" gradientUnits="userSpaceOnUse">
<stop stop-color="#E87D24"/>
<stop offset="0.5" stop-color="#E23445"/>
<stop offset="1" stop-color="#DA0E82"/>
</linearGradient>
<linearGradient id="paint33_linear_432_481" x1="10.6939" y1="86.6738" x2="91.2672" y2="18.6552" gradientUnits="userSpaceOnUse">
<stop stop-color="#E87D24"/>
<stop offset="0.5" stop-color="#E23445"/>
<stop offset="1" stop-color="#DA0E82"/>
</linearGradient>
<linearGradient id="paint34_linear_432_481" x1="13.1764" y1="89.6094" x2="93.7416" y2="21.5903" gradientUnits="userSpaceOnUse">
<stop stop-color="#E87D24"/>
<stop offset="0.5" stop-color="#E23445"/>
<stop offset="1" stop-color="#DA0E82"/>
</linearGradient>
<linearGradient id="paint35_linear_432_481" x1="16.1649" y1="93.1533" x2="96.7302" y2="25.1426" gradientUnits="userSpaceOnUse">
<stop stop-color="#E87D24"/>
<stop offset="0.5" stop-color="#E23445"/>
<stop offset="1" stop-color="#DA0E82"/>
</linearGradient>
<linearGradient id="paint36_linear_432_481" x1="19.4666" y1="97.0701" x2="100.04" y2="29.0509" gradientUnits="userSpaceOnUse">
<stop stop-color="#E87D24"/>
<stop offset="0.5" stop-color="#E23445"/>
<stop offset="1" stop-color="#DA0E82"/>
</linearGradient>
<linearGradient id="paint37_linear_432_481" x1="22.0619" y1="100.136" x2="102.628" y2="32.1168" gradientUnits="userSpaceOnUse">
<stop stop-color="#E87D24"/>
<stop offset="0.5" stop-color="#E23445"/>
<stop offset="1" stop-color="#DA0E82"/>
</linearGradient>
<linearGradient id="paint38_linear_432_481" x1="24.448" y1="102.966" x2="105.014" y2="34.9471" gradientUnits="userSpaceOnUse">
<stop stop-color="#E87D24"/>
<stop offset="0.5" stop-color="#E23445"/>
<stop offset="1" stop-color="#DA0E82"/>
</linearGradient>
<linearGradient id="paint39_linear_432_481" x1="26.8184" y1="105.771" x2="107.384" y2="37.7523" gradientUnits="userSpaceOnUse">
<stop stop-color="#E87D24"/>
<stop offset="0.5" stop-color="#E23445"/>
<stop offset="1" stop-color="#DA0E82"/>
</linearGradient>
<linearGradient id="paint40_linear_432_481" x1="28.5697" y1="107.856" x2="109.143" y2="39.8368" gradientUnits="userSpaceOnUse">
<stop stop-color="#E87D24"/>
<stop offset="0.5" stop-color="#E23445"/>
<stop offset="1" stop-color="#DA0E82"/>
</linearGradient>
<linearGradient id="paint41_linear_432_481" x1="29.8792" y1="109.405" x2="110.453" y2="41.3856" gradientUnits="userSpaceOnUse">
<stop stop-color="#E87D24"/>
<stop offset="0.5" stop-color="#E23445"/>
<stop offset="1" stop-color="#DA0E82"/>
</linearGradient>
<linearGradient id="paint42_linear_432_481" x1="31.9283" y1="111.829" x2="112.493" y2="43.8102" gradientUnits="userSpaceOnUse">
<stop stop-color="#E87D24"/>
<stop offset="0.5" stop-color="#E23445"/>
<stop offset="1" stop-color="#DA0E82"/>
</linearGradient>
<linearGradient id="paint43_linear_432_481" x1="33.9527" y1="114.221" x2="114.518" y2="46.2025" gradientUnits="userSpaceOnUse">
<stop stop-color="#E87D24"/>
<stop offset="0.5" stop-color="#E23445"/>
<stop offset="1" stop-color="#DA0E82"/>
</linearGradient>
<linearGradient id="paint44_linear_432_481" x1="35.2059" y1="115.706" x2="115.772" y2="47.687" gradientUnits="userSpaceOnUse">
<stop stop-color="#E87D24"/>
<stop offset="0.5" stop-color="#E23445"/>
<stop offset="1" stop-color="#DA0E82"/>
</linearGradient>
<linearGradient id="paint45_linear_432_481" x1="35.9854" y1="116.63" x2="116.551" y2="48.6108" gradientUnits="userSpaceOnUse">
<stop stop-color="#E87D24"/>
<stop offset="0.5" stop-color="#E23445"/>
<stop offset="1" stop-color="#DA0E82"/>
</linearGradient>
<linearGradient id="paint46_linear_432_481" x1="37.3755" y1="118.284" x2="117.949" y2="50.2652" gradientUnits="userSpaceOnUse">
<stop stop-color="#E87D24"/>
<stop offset="0.5" stop-color="#E23445"/>
<stop offset="1" stop-color="#DA0E82"/>
</linearGradient>
<linearGradient id="paint47_linear_432_481" x1="21.411" y1="100.825" x2="101.984" y2="32.814" gradientUnits="userSpaceOnUse">
<stop stop-color="#E87D24"/>
<stop offset="0.5" stop-color="#E23445"/>
<stop offset="1" stop-color="#DA0E82"/>
</linearGradient>
<linearGradient id="paint48_linear_432_481" x1="24.2877" y1="104.231" x2="104.853" y2="36.2116" gradientUnits="userSpaceOnUse">
<stop stop-color="#E87D24"/>
<stop offset="0.5" stop-color="#E23445"/>
<stop offset="1" stop-color="#DA0E82"/>
</linearGradient>
<linearGradient id="paint49_linear_432_481" x1="27.0593" y1="107.523" x2="107.633" y2="39.5041" gradientUnits="userSpaceOnUse">
<stop stop-color="#E87D24"/>
<stop offset="0.5" stop-color="#E23445"/>
<stop offset="1" stop-color="#DA0E82"/>
</linearGradient>
<linearGradient id="paint50_linear_432_481" x1="29.1084" y1="109.948" x2="109.682" y2="41.9294" gradientUnits="userSpaceOnUse">
<stop stop-color="#E87D24"/>
<stop offset="0.5" stop-color="#E23445"/>
<stop offset="1" stop-color="#DA0E82"/>
</linearGradient>
<linearGradient id="paint51_linear_432_481" x1="31.3498" y1="112.599" x2="111.915" y2="44.5809" gradientUnits="userSpaceOnUse">
<stop stop-color="#E87D24"/>
<stop offset="0.5" stop-color="#E23445"/>
<stop offset="1" stop-color="#DA0E82"/>
</linearGradient>
<linearGradient id="paint52_linear_432_481" x1="33.3102" y1="114.919" x2="113.876" y2="46.8998" gradientUnits="userSpaceOnUse">
<stop stop-color="#E87D24"/>
<stop offset="0.5" stop-color="#E23445"/>
<stop offset="1" stop-color="#DA0E82"/>
</linearGradient>
<linearGradient id="paint53_linear_432_481" x1="35.7043" y1="117.757" x2="116.278" y2="49.738" gradientUnits="userSpaceOnUse">
<stop stop-color="#E87D24"/>
<stop offset="0.5" stop-color="#E23445"/>
<stop offset="1" stop-color="#DA0E82"/>
</linearGradient>
<linearGradient id="paint54_linear_432_481" x1="37.7608" y1="120.19" x2="118.326" y2="52.1708" gradientUnits="userSpaceOnUse">
<stop stop-color="#E87D24"/>
<stop offset="0.5" stop-color="#E23445"/>
<stop offset="1" stop-color="#DA0E82"/>
</linearGradient>
<linearGradient id="paint55_linear_432_481" x1="39.7934" y1="122.598" x2="120.367" y2="54.5875" gradientUnits="userSpaceOnUse">
<stop stop-color="#E87D24"/>
<stop offset="0.5" stop-color="#E23445"/>
<stop offset="1" stop-color="#DA0E82"/>
</linearGradient>
<clipPath id="clip0_432_481">
<rect width="107" height="108" fill="white" transform="translate(0 0.301514)"/>
</clipPath>
</defs>
</svg>
