<svg width="130" height="156" viewBox="0 0 130 156" fill="none" xmlns="http://www.w3.org/2000/svg">
<g clip-path="url(#clip0_432_422)">
<path d="M65.0648 0.643709C56.6062 0.635248 48.2289 2.28613 40.4121 5.50188C32.5952 8.71763 25.4922 13.4352 19.5093 19.3847C13.5263 25.3342 8.7809 32.399 5.54433 40.1749C2.30776 47.9509 0.643572 56.2854 0.646978 64.7018V64.895C0.646361 74.5079 2.82494 83.9972 7.02054 92.6564C11.2161 101.316 17.3206 108.922 24.8796 114.908L65.246 155.073L108.691 111.844C115.222 105.864 120.433 98.5995 123.997 90.5114C127.56 82.4233 129.397 73.6874 129.392 64.8563V64.7018C129.395 56.293 127.734 47.9658 124.503 40.1957C121.272 32.4257 116.535 25.3649 110.562 19.4165C104.588 13.4682 97.4962 8.74878 89.6898 5.52773C81.8834 2.30668 73.5158 0.64709 65.0648 0.643709V0.643709Z" stroke="#00AFCA" stroke-miterlimit="10"/>
<path d="M28.3338 111.046L28.101 110.866C21.1395 105.36 15.5193 98.3598 11.6611 90.3878C7.80301 82.4157 5.80677 73.6787 5.82186 64.8305V64.7018C5.82186 49.085 12.0567 34.1079 23.1547 23.0652C34.2527 12.0225 49.3048 5.81879 64.9998 5.81879C80.6948 5.81879 95.747 12.0225 106.845 23.0652C117.943 34.1079 124.178 49.085 124.178 64.7018V64.882C124.162 72.996 122.467 81.0198 119.197 88.453C115.927 95.8861 111.153 102.569 105.172 108.085L65.2457 147.8L28.3338 111.046Z" stroke="#00AFCA" stroke-miterlimit="10"/>
<path d="M63.9651 75.0391C75.3191 75.0391 84.5234 65.8807 84.5234 54.5833C84.5234 43.2858 75.3191 34.1274 63.9651 34.1274C52.611 34.1274 43.4067 43.2858 43.4067 54.5833C43.4067 65.8807 52.611 75.0391 63.9651 75.0391Z" fill="#FEC50C"/>
<path d="M63.9652 31.3339C64.1928 31.3562 64.4224 31.3278 64.6376 31.2507C64.8527 31.1736 65.0479 31.0499 65.209 30.8884C65.37 30.7269 65.493 30.5317 65.5687 30.3171C65.6445 30.1024 65.6712 29.8737 65.6471 29.6475C65.2278 27.2775 64.6662 24.9346 63.9652 22.6315C63.2643 24.9346 62.7025 27.2775 62.2833 29.6475C62.2566 29.8742 62.2818 30.104 62.3567 30.3198C62.4316 30.5355 62.5544 30.7318 62.716 30.8938C62.8776 31.0559 63.0738 31.1795 63.2901 31.2557C63.5064 31.3319 63.7372 31.3587 63.9652 31.3339Z" fill="#FEC50C"/>
<path d="M87.3176 54.5833C87.2993 54.8094 87.3314 55.0367 87.4113 55.2491C87.4912 55.4615 87.617 55.6538 87.78 55.8123C87.9431 55.9708 88.1392 56.0916 88.3545 56.1663C88.5697 56.2409 88.7988 56.2674 89.0255 56.244C91.4024 55.8288 93.7525 55.2743 96.0637 54.5833C93.753 53.8871 91.4029 53.3283 89.0255 52.9098C88.7971 52.8837 88.5658 52.9088 88.3484 52.9833C88.1311 53.0577 87.9333 53.1797 87.7695 53.3402C87.6057 53.5007 87.48 53.6957 87.4018 53.9108C87.3236 54.1259 87.2949 54.3557 87.3176 54.5833Z" fill="#FEC50C"/>
<path d="M63.965 77.8198C63.7375 77.7975 63.5077 77.8258 63.2925 77.9029C63.0774 77.9799 62.8823 78.1037 62.7213 78.2652C62.5602 78.4267 62.4373 78.6218 62.3615 78.8365C62.2857 79.0511 62.2589 79.2799 62.283 79.5062C62.7023 81.8762 63.264 84.2191 63.965 86.5222C64.666 84.2191 65.2276 81.8762 65.6468 79.5062C65.671 79.2799 65.6443 79.0511 65.5685 78.8365C65.4927 78.6218 65.3698 78.4267 65.2087 78.2652C65.0477 78.1037 64.8525 77.9799 64.6373 77.9029C64.4222 77.8258 64.1926 77.7975 63.965 77.8198Z" fill="#FEC50C"/>
<path d="M40.5991 54.5833C40.6215 54.3569 40.593 54.1283 40.5155 53.9142C40.4381 53.7002 40.3138 53.5059 40.1515 53.3457C39.9892 53.1854 39.793 53.0632 39.5772 52.9878C39.3615 52.9124 39.1316 52.8857 38.9043 52.9098C36.5224 53.327 34.1677 53.8858 31.853 54.5833C34.1682 55.2756 36.5229 55.8301 38.9043 56.2439C39.131 56.2701 39.3606 56.2453 39.5764 56.1715C39.7922 56.0977 39.9887 55.9767 40.1513 55.8174C40.3139 55.658 40.4385 55.4645 40.516 55.2509C40.5935 55.0374 40.6219 54.8092 40.5991 54.5833Z" fill="#FEC50C"/>
<path d="M72.9053 33.0976C73.1066 33.2043 73.3291 33.2652 73.557 33.2759C73.7848 33.2865 74.0122 33.2467 74.2227 33.1593C74.4331 33.0718 74.6215 32.9388 74.774 32.7701C74.9265 32.6013 75.0395 32.401 75.1047 32.1835C75.6258 29.8351 76.006 27.4579 76.2433 25.0646C74.7136 26.9229 73.2965 28.8702 71.9996 30.8962C71.8872 31.0957 71.8216 31.3178 71.8075 31.5461C71.7935 31.7743 71.8315 32.0027 71.9186 32.2143C72.0056 32.426 72.1395 32.6153 72.3104 32.7682C72.4813 32.9211 72.6847 33.0337 72.9053 33.0976Z" fill="#FEC50C"/>
<path d="M85.5451 63.4788C85.4378 63.6791 85.3767 63.9006 85.366 64.1274C85.3552 64.3541 85.3952 64.5803 85.4831 64.7897C85.571 64.9991 85.7046 65.1865 85.8742 65.3382C86.0438 65.49 86.2452 65.6024 86.4638 65.6673C88.8241 66.1848 91.2131 66.5631 93.6183 66.8002C91.7506 65.2782 89.7937 63.8681 87.7575 62.5777C87.5571 62.4659 87.3337 62.4005 87.1043 62.3866C86.875 62.3726 86.6455 62.4103 86.4328 62.497C86.2201 62.5836 86.0298 62.7169 85.8761 62.8869C85.7224 63.0569 85.6092 63.2592 85.5451 63.4788Z" fill="#FEC50C"/>
<path d="M55.0247 76.0561C54.8234 75.9493 54.6007 75.8885 54.3729 75.8778C54.1451 75.8671 53.9177 75.9069 53.7072 75.9944C53.4967 76.0819 53.3086 76.2148 53.156 76.3835C53.0035 76.5522 52.8905 76.7526 52.8253 76.9701C52.2946 79.3173 51.9101 81.6948 51.6738 84.0891C53.2041 82.2282 54.6252 80.2811 55.9303 78.2575C56.0402 78.0575 56.1039 77.8357 56.1167 77.6081C56.1294 77.3806 56.0911 77.153 56.0044 76.9421C55.9176 76.7312 55.7845 76.5423 55.6151 76.389C55.4456 76.2357 55.2439 76.122 55.0247 76.0561Z" fill="#FEC50C"/>
<path d="M42.3716 45.6749C42.4813 45.475 42.5446 45.2533 42.5565 45.0258C42.5685 44.7984 42.5288 44.5712 42.4406 44.3611C42.3524 44.151 42.2178 43.9633 42.0469 43.8119C41.8759 43.6605 41.673 43.5493 41.453 43.4864C39.0928 42.9679 36.7037 42.5896 34.2983 42.3536C36.1685 43.8782 38.1301 45.2883 40.1722 46.576C40.3722 46.6854 40.5943 46.7488 40.8221 46.7614C41.0499 46.7741 41.2777 46.7359 41.4887 46.6494C41.6997 46.563 41.8885 46.4305 42.0413 46.2619C42.1941 46.0932 42.307 45.8926 42.3716 45.6749Z" fill="#FEC50C"/>
<path d="M80.4865 38.1439C80.6309 38.3191 80.8126 38.4602 81.0184 38.5571C81.2243 38.654 81.449 38.7042 81.6767 38.7042C81.9044 38.7042 82.1293 38.654 82.3351 38.5571C82.541 38.4602 82.7226 38.3191 82.8671 38.1439C84.2528 36.1742 85.5186 34.1237 86.6578 32.0033C84.5268 33.1368 82.4661 34.3964 80.4865 35.7753C80.3105 35.919 80.1687 36.0997 80.0713 36.3045C79.974 36.5093 79.9233 36.733 79.9233 36.9596C79.9233 37.1862 79.974 37.4099 80.0713 37.6147C80.1687 37.8195 80.3105 38.0002 80.4865 38.1439Z" fill="#FEC50C"/>
<path d="M80.4864 71.0098C80.3101 71.1548 80.1681 71.3366 80.0707 71.5425C79.9733 71.7483 79.9229 71.9731 79.9229 72.2006C79.9229 72.4281 79.9733 72.6528 80.0707 72.8586C80.1681 73.0645 80.3101 73.2464 80.4864 73.3914C82.4659 74.7702 84.5266 76.0298 86.6576 77.1633C85.5184 75.0429 84.2526 72.9923 82.8669 71.0226C82.7234 70.8467 82.5425 70.7047 82.3372 70.6067C82.1319 70.5087 81.9074 70.4572 81.6797 70.456C81.452 70.4547 81.2268 70.5037 81.0205 70.5995C80.8141 70.6953 80.6317 70.8354 80.4864 71.0098Z" fill="#FEC50C"/>
<path d="M47.4431 71.0098C47.2975 70.8344 47.1146 70.6931 46.9077 70.5962C46.7009 70.4993 46.475 70.449 46.2463 70.449C46.0177 70.449 45.7919 70.4993 45.5851 70.5962C45.3782 70.6931 45.1953 70.8344 45.0497 71.0098C43.6686 72.9825 42.4029 75.0327 41.2588 77.1503C43.3898 76.0168 45.4506 74.7572 47.4302 73.3784C47.607 73.2357 47.7498 73.0557 47.8482 72.8514C47.9467 72.6472 47.9985 72.4237 47.9997 72.1971C48.0009 71.9706 47.9518 71.7465 47.8555 71.5412C47.7593 71.3359 47.6184 71.1544 47.4431 71.0098Z" fill="#FEC50C"/>
<path d="M47.4434 38.1439C47.6196 37.999 47.7615 37.8171 47.8589 37.6113C47.9563 37.4054 48.0069 37.1807 48.0069 36.9532C48.0069 36.7256 47.9563 36.5009 47.8589 36.295C47.7615 36.0892 47.6196 35.9073 47.4434 35.7624C45.4638 34.3835 43.403 33.124 41.272 31.9905C42.416 34.1081 43.6818 36.1583 45.0628 38.131C45.2076 38.305 45.3888 38.4452 45.594 38.5419C45.7991 38.6386 46.0231 38.6893 46.25 38.6905C46.477 38.6917 46.7015 38.6434 46.9077 38.549C47.1138 38.4545 47.2967 38.3163 47.4434 38.1439Z" fill="#FEC50C"/>
<path d="M85.5451 45.6749C85.6113 45.893 85.7257 46.0937 85.8797 46.2624C86.0338 46.431 86.2237 46.5633 86.4356 46.6496C86.6476 46.736 86.8763 46.7742 87.105 46.7614C87.3336 46.7487 87.5566 46.6853 87.7575 46.576C89.7937 45.2855 91.7506 43.8756 93.6183 42.3536C91.2131 42.5906 88.8241 42.9689 86.4638 43.4864C86.2452 43.5513 86.0438 43.6637 85.8742 43.8154C85.7046 43.9672 85.571 44.1546 85.4831 44.364C85.3952 44.5734 85.3552 44.7997 85.366 45.0264C85.3767 45.2531 85.4378 45.4746 85.5451 45.6749Z" fill="#FEC50C"/>
<path d="M72.9051 76.0561C72.6858 76.122 72.484 76.2357 72.3145 76.389C72.1451 76.5423 72.0122 76.7312 71.9254 76.9421C71.8386 77.153 71.8002 77.3806 71.8129 77.6081C71.8257 77.8357 71.8894 78.0575 71.9993 78.2575C73.2963 80.2834 74.7133 82.2307 76.243 84.0891C76.0057 81.6957 75.6255 79.3185 75.1044 76.9701C75.0392 76.7526 74.9263 76.5522 74.7737 76.3835C74.6212 76.2148 74.4328 76.0819 74.2224 75.9944C74.0119 75.9069 73.7845 75.8671 73.5567 75.8778C73.3288 75.8885 73.1063 75.9493 72.9051 76.0561Z" fill="#FEC50C"/>
<path d="M42.3716 63.4788C42.3049 63.2624 42.191 63.0635 42.0379 62.8962C41.8847 62.7289 41.6962 62.5974 41.4859 62.5112C41.2756 62.4251 41.0486 62.3864 40.8215 62.3978C40.5943 62.4093 40.3726 62.4707 40.1722 62.5776C38.1301 63.8654 36.1685 65.2755 34.2983 66.8001C36.7037 66.5641 39.0928 66.1858 41.453 65.6673C41.673 65.6045 41.8759 65.4932 42.0469 65.3418C42.2178 65.1904 42.3524 65.0027 42.4406 64.7926C42.5288 64.5825 42.5685 64.3553 42.5565 64.1279C42.5446 63.9005 42.4813 63.6786 42.3716 63.4788Z" fill="#FEC50C"/>
<path d="M55.0247 33.0976C55.2439 33.0317 55.4456 32.9179 55.6151 32.7646C55.7845 32.6113 55.9176 32.4223 56.0044 32.2114C56.0911 32.0005 56.1294 31.773 56.1167 31.5455C56.1039 31.318 56.0402 31.0961 55.9303 30.8962C54.6252 28.8725 53.2041 26.9255 51.6738 25.0646C51.9101 27.4589 52.2946 29.8364 52.8253 32.1835C52.8905 32.401 53.0035 32.6013 53.156 32.7701C53.3086 32.9388 53.4967 33.0718 53.7072 33.1593C53.9177 33.2467 54.1451 33.2865 54.3729 33.2759C54.6007 33.2652 54.8234 33.2043 55.0247 33.0976Z" fill="#FEC50C"/>
<path d="M68.5191 31.7716C68.7349 31.8372 68.9624 31.8549 69.1858 31.8233C69.4091 31.7918 69.6228 31.7118 69.8117 31.589C70.0005 31.4661 70.16 31.3035 70.2787 31.1126C70.3974 30.9217 70.4724 30.7072 70.4985 30.4842C70.5486 28.0823 70.458 25.6795 70.2269 23.288C69.0898 25.4114 68.0789 27.5993 67.1994 29.8405C67.1377 30.0547 67.1239 30.2799 67.1593 30.4999C67.1948 30.72 67.2785 30.9295 67.4044 31.1138C67.5304 31.2981 67.6954 31.4526 67.888 31.5662C68.0807 31.6799 68.2962 31.75 68.5191 31.7716Z" fill="#FEC50C"/>
<path d="M86.8778 59.1147C86.8118 59.3293 86.7941 59.5558 86.8259 59.778C86.8576 60.0003 86.9379 60.2129 87.0613 60.4008C87.1848 60.5887 87.3482 60.7474 87.54 60.8655C87.7319 60.9836 87.9475 61.0583 88.1716 61.0843C90.5856 61.1346 93.0004 61.0443 95.4038 60.814C93.2759 59.6793 91.0811 58.6734 88.8314 57.8016C88.6154 57.7379 88.3877 57.7226 88.165 57.7568C87.9422 57.7909 87.73 57.8738 87.5432 57.9993C87.3564 58.1248 87.1999 58.2899 87.0849 58.4828C86.9698 58.6756 86.8991 58.8914 86.8778 59.1147Z" fill="#FEC50C"/>
<path d="M59.3979 77.3821C59.1822 77.3164 58.9546 77.2988 58.7313 77.3304C58.5079 77.3619 58.2942 77.4419 58.1054 77.5647C57.9165 77.6876 57.7571 77.8501 57.6384 78.041C57.5197 78.2319 57.4445 78.4464 57.4184 78.6694C57.3714 81.0716 57.4666 83.4745 57.7031 85.8657C58.8405 83.7443 59.8471 81.556 60.7176 79.3131C60.7794 79.0989 60.793 78.8738 60.7576 78.6538C60.7221 78.4337 60.6385 78.2241 60.5126 78.0399C60.3867 77.8556 60.2215 77.7011 60.0289 77.5874C59.8362 77.4738 59.6208 77.4036 59.3979 77.3821Z" fill="#FEC50C"/>
<path d="M41.0519 50.0389C41.1155 49.8243 41.1317 49.5985 41.099 49.3771C41.0662 49.1557 40.9854 48.944 40.8624 48.7567C40.7393 48.5694 40.5769 48.4109 40.3862 48.2922C40.1956 48.1735 39.9812 48.0975 39.7581 48.0693C37.3441 48.0195 34.9293 48.1097 32.5259 48.3396C34.6572 49.4764 36.8564 50.4824 39.1112 51.352C39.3264 51.4112 39.5521 51.423 39.7723 51.3868C39.9926 51.3505 40.2022 51.2671 40.3869 51.1422C40.5715 51.0173 40.7267 50.8539 40.8415 50.6634C40.9564 50.4729 41.0281 50.2598 41.0519 50.0389Z" fill="#FEC50C"/>
<path d="M76.9413 35.2474C77.1183 35.3919 77.3255 35.4953 77.5478 35.5501C77.77 35.6048 78.0018 35.6095 78.2261 35.5639C78.4504 35.5183 78.6617 35.4235 78.8446 35.2863C79.0274 35.1492 79.1772 34.9732 79.283 34.7711C80.2528 32.5695 81.091 30.3127 81.793 28.0126C79.926 29.5384 78.1544 31.1763 76.4884 32.9173C76.3398 33.0909 76.2325 33.2954 76.1742 33.5158C76.116 33.7363 76.1083 33.9669 76.1518 34.1907C76.1953 34.4145 76.2888 34.6257 76.4255 34.8086C76.5622 34.9915 76.7385 35.1415 76.9413 35.2474Z" fill="#FEC50C"/>
<path d="M83.3847 67.4953C83.2418 67.6723 83.1398 67.8786 83.0861 68.0993C83.0324 68.32 83.0282 68.5498 83.0739 68.7723C83.1196 68.9948 83.214 69.2045 83.3505 69.3865C83.4869 69.5685 83.6621 69.7184 83.8634 69.8254C86.077 70.7883 88.3449 71.6222 90.6558 72.3228C89.1224 70.4651 87.4761 68.7025 85.7264 67.0448C85.552 66.897 85.3466 66.7901 85.125 66.7321C84.9035 66.6741 84.6716 66.6665 84.4467 66.7097C84.2218 66.753 84.0095 66.8461 83.8257 66.9821C83.6419 67.1181 83.4912 67.2935 83.3847 67.4953Z" fill="#FEC50C"/>
<path d="M50.9879 73.9063C50.8108 73.7618 50.6037 73.6584 50.3814 73.6036C50.1591 73.5489 49.9274 73.5441 49.7031 73.5897C49.4787 73.6354 49.2674 73.7303 49.0846 73.8674C48.9018 74.0046 48.752 74.1806 48.6462 74.3826C47.6453 76.5806 46.7812 78.8377 46.0586 81.1412C47.9274 79.6127 49.703 77.9749 51.3761 76.2364C51.5249 76.0661 51.6341 75.8652 51.6959 75.6481C51.7576 75.431 51.7704 75.203 51.7333 74.9804C51.6962 74.7578 51.6101 74.5461 51.4812 74.3604C51.3524 74.1747 51.1839 74.0197 50.9879 73.9063Z" fill="#FEC50C"/>
<path d="M44.5321 41.6583C44.6755 41.4821 44.7783 41.2767 44.8329 41.0565C44.8876 40.8364 44.8929 40.6071 44.8484 40.3847C44.804 40.1623 44.7108 39.9523 44.5757 39.7698C44.4405 39.5872 44.2666 39.4364 44.0663 39.3283C41.8528 38.3653 39.5848 37.5314 37.2739 36.8308C38.806 38.6857 40.4476 40.4482 42.1902 42.109C42.3646 42.2568 42.5703 42.3636 42.7918 42.4216C43.0133 42.4796 43.2452 42.4872 43.4701 42.4439C43.695 42.4006 43.9073 42.3076 44.0911 42.1716C44.275 42.0356 44.4256 41.8602 44.5321 41.6583Z" fill="#FEC50C"/>
<path d="M83.3844 41.6583C83.4926 41.8584 83.6441 42.032 83.8281 42.1666C84.012 42.3011 84.2237 42.3933 84.4478 42.4364C84.672 42.4796 84.903 42.4726 85.1241 42.4159C85.3452 42.3593 85.5508 42.2544 85.7261 42.109C87.4758 40.4512 89.1221 38.6885 90.6555 36.8308C88.3446 37.5314 86.0766 38.3653 83.8631 39.3283C83.6601 39.4336 83.4831 39.5826 83.3453 39.7646C83.2074 39.9465 83.1122 40.1567 83.0664 40.38C83.0205 40.6032 83.0252 40.8337 83.0803 41.0549C83.1353 41.2761 83.2392 41.4822 83.3844 41.6583Z" fill="#FEC50C"/>
<path d="M76.9413 73.9063C76.7385 74.0122 76.5622 74.1621 76.4255 74.3451C76.2888 74.528 76.1953 74.7392 76.1518 74.963C76.1083 75.1867 76.116 75.4174 76.1742 75.6378C76.2325 75.8582 76.3398 76.0629 76.4884 76.2364C78.1544 77.9774 79.926 79.6154 81.793 81.1412C81.091 78.841 80.2528 76.5843 79.283 74.3826C79.1772 74.1806 79.0274 74.0046 78.8446 73.8674C78.6617 73.7303 78.4504 73.6354 78.2261 73.5897C78.0018 73.5441 77.77 73.5489 77.5478 73.6036C77.3255 73.6584 77.1183 73.7618 76.9413 73.9063Z" fill="#FEC50C"/>
<path d="M44.5321 67.4953C44.4256 67.2935 44.275 67.1181 44.0911 66.9821C43.9073 66.8461 43.695 66.753 43.4701 66.7097C43.2452 66.6665 43.0133 66.6741 42.7918 66.7321C42.5703 66.7901 42.3646 66.897 42.1902 67.0448C40.4476 68.7055 38.806 70.468 37.2739 72.3228C39.5848 71.6222 41.8528 70.7883 44.0663 69.8254C44.2684 69.7189 44.444 69.569 44.5806 69.3866C44.7171 69.2041 44.8111 68.9936 44.8557 68.7705C44.9003 68.5474 44.8944 68.3172 44.8385 68.0966C44.7825 67.8761 44.6778 67.6706 44.5321 67.4953Z" fill="#FEC50C"/>
<path d="M50.9882 35.2474C51.1875 35.1381 51.3602 34.9865 51.4941 34.8034C51.6279 34.6203 51.7197 34.4102 51.7629 34.1879C51.8061 33.9656 51.7997 33.7366 51.7441 33.517C51.6884 33.2975 51.5849 33.0927 51.441 32.9173C49.7679 31.1788 47.9923 29.541 46.1235 28.0126C46.8461 30.316 47.7103 32.5731 48.7111 34.7711C48.8167 34.9647 48.9632 35.1331 49.1407 35.2647C49.3182 35.3963 49.5223 35.488 49.7389 35.5333C49.9556 35.5786 50.1794 35.5765 50.3952 35.5271C50.6109 35.4778 50.8132 35.3823 50.9882 35.2474Z" fill="#FEC50C"/>
<path d="M86.8777 50.0389C86.9035 50.2634 86.9789 50.4794 87.0984 50.6715C87.2179 50.8636 87.3786 51.027 87.569 51.15C87.7594 51.2731 87.9748 51.3527 88.1998 51.3832C88.4248 51.4136 88.6537 51.3942 88.8702 51.3263C91.1199 50.4545 93.3146 49.4486 95.4426 48.3139C93.0392 48.0836 90.6244 47.9933 88.2104 48.0436C87.9789 48.0611 87.7545 48.1308 87.5542 48.2476C87.3539 48.3644 87.1829 48.5252 87.0545 48.7176C86.926 48.91 86.8433 49.129 86.8127 49.3579C86.782 49.5869 86.8043 49.8198 86.8777 50.0389Z" fill="#FEC50C"/>
<path d="M68.5189 77.3821C68.2948 77.4081 68.0792 77.4829 67.8873 77.601C67.6955 77.7191 67.532 77.8777 67.4086 78.0656C67.2852 78.2535 67.2047 78.4661 67.173 78.6884C67.1413 78.9106 67.1591 79.1371 67.2251 79.3518C68.1046 81.593 69.1154 83.7809 70.2525 85.9043C70.4836 83.5128 70.5743 81.1101 70.5242 78.7081C70.5066 78.4778 70.4365 78.2545 70.3192 78.0552C70.2018 77.8559 70.0402 77.6858 69.8468 77.5579C69.6534 77.4301 69.4333 77.3478 69.2032 77.3174C68.9731 77.2869 68.7391 77.309 68.5189 77.3821Z" fill="#FEC50C"/>
<path d="M41.0518 59.1147C41.026 58.8902 40.9508 58.6743 40.8313 58.4822C40.7118 58.2901 40.5511 58.1267 40.3607 58.0037C40.1703 57.8806 39.9549 57.801 39.7299 57.7705C39.5049 57.7401 39.276 57.7594 39.0595 57.8273C36.8047 58.697 34.6055 59.703 32.4741 60.8398C34.8776 61.0697 37.2924 61.16 39.7064 61.1101C39.938 61.0921 40.1625 61.022 40.363 60.9054C40.5636 60.7887 40.7349 60.6284 40.8643 60.4364C40.9938 60.2445 41.0779 60.0258 41.1104 59.7969C41.1429 59.568 41.1228 59.3348 41.0518 59.1147Z" fill="#FEC50C"/>
<path d="M59.3979 31.7716C59.623 31.7478 59.8399 31.6744 60.033 31.5569C60.2261 31.4394 60.3905 31.2807 60.5144 31.0922C60.6382 30.9036 60.7184 30.6901 60.7491 30.467C60.7797 30.2438 60.7601 30.0167 60.6917 29.802C59.8212 27.559 58.8146 25.3708 57.6773 23.2494C57.4407 25.6405 57.3455 28.0434 57.3925 30.4457C57.4101 30.676 57.4803 30.8993 57.5977 31.0986C57.715 31.2979 57.8765 31.468 58.0699 31.5958C58.2632 31.7237 58.4833 31.8059 58.7135 31.8364C58.9436 31.8669 59.1777 31.8447 59.3979 31.7716Z" fill="#FEC50C"/>
<path d="M60.2904 98.8936C59.7459 98.9124 59.2063 99.0033 58.6859 99.1639C57.9614 99.254 57.2758 99.4986 56.5643 99.6145H56.2795H55.8008C55.8126 99.7472 55.8126 99.8808 55.8008 100.014C55.8203 100.142 55.8203 100.272 55.8008 100.4C55.7567 100.517 55.686 100.623 55.5939 100.709C55.5043 100.823 55.3891 100.916 55.2575 100.979C55.1363 101.039 55.0043 101.074 54.8693 101.082C54.7326 101.108 54.5921 101.108 54.4554 101.082C54.3123 101.03 54.1805 100.952 54.0672 100.85L53.6403 100.928H53.2391L52.8122 100.786L52.4111 100.58C51.8518 100.826 51.366 101.212 51.0009 101.7C50.8442 101.943 50.755 102.223 50.7422 102.511C50.7248 102.876 50.8003 103.239 50.962 103.567C50.962 103.67 51.0657 103.219 51.2338 103.155C51.5365 102.92 51.8842 102.749 52.2558 102.653C52.5663 102.498 52.5275 102.653 52.3981 102.91C52.2687 103.168 52.1911 103.515 52.3981 103.271C53.4537 102.875 54.5695 102.661 55.6974 102.64C57.3146 102.472 58.9448 102.434 60.562 102.408C62.1793 102.382 63.6282 102.408 65.1549 102.511C65.876 102.596 66.6035 102.618 67.3285 102.575C67.5096 102.575 67.7685 102.511 67.872 102.408C67.5378 102.26 67.1768 102.181 66.811 102.176H63.8999C63.0783 102.161 62.2633 102.026 61.4806 101.777C61.2736 101.7 61.0795 101.507 60.8855 101.713C60.5934 101.816 60.2888 101.881 59.9797 101.906C59.4439 101.938 58.9079 101.846 58.4143 101.636C58.7765 101.146 59.2035 100.722 59.5917 100.258L58.6602 100.065C59.2165 99.6917 59.734 99.2541 60.2645 98.855L60.2904 98.8936Z" fill="#FEC50C"/>
<path d="M84.0833 104.146C82.9836 104.802 82.1427 103.631 81.2112 103.283C80.5513 103.631 80.4866 104.828 79.9174 105.395C79.1799 106.231 78.2743 105.163 78.3519 104.339C77.4592 105.073 77.0581 106.759 75.5832 106.527C74.9104 105.987 74.4058 104.828 73.8883 106.141C73.4743 106.785 72.3488 107.699 71.7666 106.733C71.5855 105.871 71.1584 104.867 70.6797 106.231C70.6193 106.474 70.5093 106.701 70.3564 106.9C70.2035 107.098 70.011 107.263 69.7912 107.384C69.5713 107.504 69.3288 107.579 69.0787 107.602C68.8287 107.625 68.5765 107.597 68.338 107.519C67.7946 107.068 68.7778 105.42 68.0792 105.549C67.0441 106.231 66.436 107.918 64.987 107.789C64.4177 107.158 65.3234 106.09 64.7153 105.395C63.9779 106.321 63.1758 107.686 61.9079 107.789C61.2998 107.3 61.9079 105.884 61.5456 105.678C60.2518 106.45 58.958 107.828 57.2631 107.39C57.8971 104.983 60.5493 104.133 62.7747 103.953C66.656 103.476 70.641 104.339 74.3283 102.961C74.9234 102.601 76.3724 102.086 75.8549 101.249C75.3373 100.413 77.0322 100.85 77.1486 100.078C77.0451 99.0995 77.8992 99.2411 78.7272 99.151C82.4533 98.9965 86.1276 99.7689 89.8408 99.9105C89.8708 100.323 89.7965 100.736 89.6244 101.113C89.4524 101.489 89.1882 101.816 88.8561 102.065C88.524 102.313 88.1345 102.475 87.7234 102.535C87.3122 102.595 86.8925 102.551 86.5027 102.408C85.7264 102.537 84.575 100.644 84.795 102.022C84.6397 102.743 84.7949 103.695 84.0833 104.184M52.3984 100.49C53.2653 101.275 53.8604 100.348 54.6755 100.001C57.3211 98.9646 59.8079 97.565 62.0632 95.8425C63.4734 94.6839 64.6507 93.1778 66.5785 92.8044C70.2658 91.6973 74.1989 91.8261 77.8991 90.8091C80.7196 86.9471 85.5196 85.6597 89.5432 83.3811C89.929 83.2225 90.2705 82.9735 90.5385 82.6552C90.8066 82.3368 90.9934 81.9588 91.0828 81.5531C92.6081 79.106 94.6914 77.0507 97.1637 75.554C98.3309 74.864 99.7078 74.6129 101.045 74.846C100.868 76.4005 100.127 77.8375 98.9619 78.8883C99.8546 78.8883 100.618 78.309 101.549 78.3347C101.86 79.9439 100.113 80.7807 99.1819 81.7848C99.6994 81.9007 101.679 82.0551 100.605 82.5701C99.1507 83.3941 97.7427 84.2966 96.3873 85.2734C97.5517 85.4923 97.6812 85.7369 96.5038 86.1617C95.8569 86.5865 94.6148 86.7411 94.4984 87.5907C95.3782 88.1314 94.0845 88.6721 93.5928 88.8781C92.6354 89.1098 91.6262 89.5217 92.8941 90.2426C92.6072 90.5667 92.2403 90.8108 91.8297 90.9507C91.419 91.0907 90.9787 91.1218 90.5523 91.0408C90.811 91.8518 91.1733 92.7658 90.1124 93.1263C87.7462 94.9851 84.9142 96.1647 81.9228 96.5377C85.6989 96.904 89.4928 96.0461 92.7389 94.0918C93.1529 93.6026 95.3264 93.0619 94.1361 92.65C93.5539 92.4054 92.2989 92.135 92.2084 91.6973C93.9421 90.6288 96.0897 91.0021 98.0045 90.4099C98.0045 89.8177 96.5813 89.9852 96.0379 89.8436C94.7442 89.7406 94.7442 89.4059 96.0379 89.2771C97.6293 88.8652 99.4277 88.7751 100.773 87.7452C99.6865 87.2431 98.3151 87.7451 97.1507 87.2817C99.1173 86.4192 101.446 86.3291 103.219 85.0417C104.021 84.1535 102.184 84.4239 101.653 84.4496C100.553 84.6427 100.049 84.1148 101.291 83.6643C103.413 82.1066 106.091 81.0896 107.579 78.8496C107.941 78.3476 108.42 76.8157 107.294 77.3692C105.806 77.8584 104.512 79.5062 102.818 79.0041C106.232 76.5185 109.194 73.4709 111.576 69.9927C111.693 68.9757 110.076 68.8598 109.662 69.658C107.527 71.7049 105.599 74.1251 102.869 75.3996C105.445 72.8381 107.684 69.9615 109.532 66.8387C109.933 65.9118 111.02 64.8176 110.425 63.8006C109.481 63.0153 108.29 63.7362 107.837 64.6631C106.181 66.8258 104.913 69.3361 102.779 71.0998C104.655 67.5596 106.582 63.7877 106.66 59.694C106.66 58.8572 106.479 57.6085 105.366 57.7759C104.461 57.9303 104.68 59.2949 104.305 59.9772C103.477 62.7708 103.089 65.796 101.394 68.2419C101.769 65.9762 102.442 63.6075 101.925 61.316C101.692 60.2862 100.023 60.7239 100.243 61.7409C99.1628 66.7204 97.04 71.4174 94.0126 75.5255C90.9852 79.6336 87.1213 83.0604 82.6731 85.5824C78.5938 87.8363 74.1344 89.3285 69.5153 89.9852C68.2552 90.0871 67.0025 90.2633 65.7634 90.5129C62.8912 92.7014 61.1575 96.3575 57.5349 97.5032C55.9177 98.3013 53.7958 98.4687 52.6314 99.9749C52.5418 100.168 52.5019 100.38 52.515 100.593" fill="#FEC50C"/>
<path d="M63.2535 90.2941C62.8183 91.3152 62.3036 92.3008 61.714 93.2421C59.6439 91.3625 56.6423 91.4269 53.9512 91.2982C51.7906 91.1823 49.4359 90.9892 47.7539 89.4573C46.072 87.9253 44.5583 86.1488 42.5788 84.9774C40.7404 84.5888 39.0122 83.7972 37.52 82.6602C34.4408 80.0855 32.6684 76.4423 29.6538 73.8547C29.0549 73.3183 28.4194 72.8236 27.752 72.3743C27.131 72.5288 27.4155 73.8419 26.6651 73.1725C26.2511 72.8764 25.242 72.8506 25.1385 73.2497C26.1778 74.4182 26.8641 75.8551 27.1181 77.3949C26.4841 77.3949 25.3713 77.2662 25.0608 77.4979C25.897 78.7523 26.9532 79.8468 28.1789 80.7291C27.5967 80.8193 26.4452 80.7291 26.2253 80.9994C27.3647 82.0931 28.7756 82.8662 30.3137 83.2395C30.6371 83.6643 29.835 84.5268 30.5078 84.8487C30.8959 85.0031 32.1767 85.2735 31.297 85.7112C31.1746 85.7966 31.0824 85.9182 31.0334 86.0588C30.9844 86.1993 30.9811 86.3517 31.0241 86.4942C31.067 86.6367 31.154 86.7621 31.2727 86.8527C31.3913 86.9432 31.5356 86.9942 31.685 86.9985C32.1767 87.256 33.2764 87.3075 33.367 87.7452C32.9401 88.1829 31.5816 88.7106 32.7331 89.1226C33.8137 89.7331 35.0238 90.0816 36.2651 90.1396C35.6441 90.6545 34.8937 90.9506 34.2469 91.4269C37.1308 92.987 40.1648 94.2549 43.3034 95.2117C44.5367 95.6433 45.799 95.9875 47.0811 96.2416C43.3683 95.963 39.7378 95.0119 36.3685 93.4352C34.609 92.6628 32.8365 91.929 31.0381 91.2596C31.8273 90.8605 32.733 90.7575 33.6257 90.3971C31.8701 90.2434 30.1567 89.7769 28.5671 89.0196C28.8 88.6206 29.6668 88.5948 30.1455 88.3888C31.0511 88.17 31.6075 87.9125 30.3396 87.8352C29.0458 87.4876 27.5838 87.6421 26.4582 86.8697C26.5358 86.4063 27.752 86.5737 28.2048 86.3677C28.8343 86.3319 29.4423 86.1273 29.9643 85.7755C27.9848 84.9516 25.3843 85.5309 23.8318 83.793C23.4695 83.1236 24.9445 83.6643 25.3585 83.5484C26.432 83.7317 27.5315 83.7011 28.593 83.4583C25.6949 82.171 22.6026 81.0123 20.3903 78.6822C20.1444 78.296 19.4071 77.279 20.0022 77.1503C21.723 77.3692 22.9649 79.2358 24.8021 78.9526C25.0479 78.6179 23.7283 78.0901 23.4049 77.6653C20.6387 75.468 18.226 72.8633 16.2502 69.9412C16.1208 68.9371 17.6992 68.7955 18.1132 69.5679C20.1703 71.5247 21.9945 73.8161 24.5821 75.1549C25.4878 75.5926 24.0647 74.64 23.8706 74.2924C21.446 71.6127 19.3483 68.657 17.6215 65.487C17.324 64.9077 16.8454 63.8649 17.7251 63.556C18.1394 63.3964 18.5997 63.4024 19.0096 63.5727C19.4196 63.7431 19.7474 64.0646 19.9245 64.47C21.6582 66.6456 22.939 69.2332 25.0997 71.0354C23.2495 67.4952 21.2959 63.7491 21.2183 59.6683C21.2183 58.8701 21.3089 57.6729 22.3957 57.7115C23.4825 57.7501 23.159 58.7285 23.4565 59.2692C24.3492 62.2816 24.7503 65.5256 26.5228 68.1776C25.9431 65.9654 25.7462 63.6712 25.9407 61.3933C25.9631 61.2342 26.0292 61.0844 26.1314 60.9602C26.2337 60.836 26.3683 60.7423 26.5206 60.6891C26.6729 60.6359 26.8369 60.6255 26.9947 60.6588C27.1526 60.6922 27.2982 60.7682 27.4156 60.8784C27.8555 61.9597 27.946 63.2856 28.36 64.4443C30.7613 72.3028 35.7808 79.1134 42.5917 83.7544C48.1772 87.5516 54.6904 89.7756 61.4422 90.1911C62.0503 90.1911 62.6584 90.2555 63.2665 90.2941" fill="#FEC50C"/>
<path d="M54.7275 100.683C54.9276 100.683 55.0898 100.522 55.0898 100.322C55.0898 100.123 54.9276 99.962 54.7275 99.962C54.5274 99.962 54.3652 100.123 54.3652 100.322C54.3652 100.522 54.5274 100.683 54.7275 100.683Z" fill="#FEC50C"/>
<path d="M54.7014 100.413C54.78 100.413 54.8437 100.349 54.8437 100.271C54.8437 100.193 54.78 100.129 54.7014 100.129C54.6228 100.129 54.5591 100.193 54.5591 100.271C54.5591 100.349 54.6228 100.413 54.7014 100.413Z" fill="#FEC50C" stroke="#00AFCA" stroke-width="0.04" stroke-miterlimit="2"/>
</g>
<defs>
<clipPath id="clip0_432_422">
<rect width="130" height="156" fill="white"/>
</clipPath>
</defs>
</svg>
