<svg width="292" height="64" viewBox="0 0 292 64" fill="none" xmlns="http://www.w3.org/2000/svg">
<g clip-path="url(#clip0_432_185)">
<path d="M57.4212 46.4809C58.9754 43.7771 60.0843 40.8407 60.7054 37.7844C60.4712 37.8123 60.2357 37.8272 59.9998 37.8288C59.3591 37.8282 58.7228 37.7234 58.1157 37.5186C57.5684 40.0859 56.6447 42.5582 55.3745 44.8555C56.1434 45.2783 56.8353 45.8278 57.4212 46.4809Z" fill="#70747E"/>
<path d="M46.456 57.4495C43.7658 58.9922 40.8461 60.0947 37.8076 60.7153C37.8342 60.4847 37.8478 60.2529 37.8482 60.0208C37.8485 59.3773 37.7424 58.7381 37.5342 58.1292C40.0823 57.5835 42.5359 56.6649 44.8157 55.4028C45.2429 56.1729 45.7975 56.8649 46.456 57.4495Z" fill="#70747E"/>
<path d="M26.3625 58.1475C26.1585 58.7509 26.0549 59.3835 26.0559 60.0205C26.0557 60.2588 26.0705 60.497 26.1002 60.7335C23.0397 60.1186 20.0974 59.0172 17.3853 57.4714C18.0269 56.8742 18.5639 56.1737 18.9738 55.3989C21.2859 56.6783 23.7764 57.6048 26.3625 58.1475Z" fill="#70747E"/>
<path d="M5.70741 37.522C6.25032 40.1091 7.17937 42.5999 8.46338 44.9107C7.68637 45.3157 6.98421 45.8504 6.38716 46.4918C4.84069 43.7884 3.73691 40.8549 3.11768 37.8027C3.35171 37.8324 3.58738 37.8472 3.82329 37.847C4.465 37.8438 5.10174 37.734 5.70741 37.522Z" fill="#70747E"/>
<path d="M6.37609 17.4136C6.98731 18.0372 7.69762 18.5554 8.47817 18.9469C7.19022 21.2577 6.25506 23.7481 5.70372 26.3356C5.09846 26.1285 4.46297 26.0235 3.82329 26.0251C3.58738 26.0249 3.35171 26.0398 3.11768 26.0695C3.73683 23.0294 4.83678 20.1073 6.37609 17.4136Z" fill="#70747E"/>
<path d="M26.0153 3.84796C26.0138 4.48764 26.1186 5.12306 26.3257 5.72832C23.7386 6.27549 21.2481 7.20693 18.937 8.49168C18.5487 7.7092 18.0302 6.99841 17.4038 6.38962C20.0955 4.85321 23.015 3.75584 26.0523 3.13867C26.025 3.3741 26.0127 3.61098 26.0153 3.84796Z" fill="#70747E"/>
<path d="M46.4303 6.40092C45.7877 6.9983 45.2528 7.70202 44.8491 8.48098C42.5471 7.20436 40.0682 6.27673 37.4937 5.72862C37.7007 5.12336 37.8056 4.48794 37.804 3.84826C37.8042 3.61235 37.7894 3.37661 37.7597 3.14258C40.8049 3.76023 43.7319 4.86015 46.4303 6.40092Z" fill="#70747E"/>
<path d="M88.8747 43.3151H100.726C102.121 43.321 103.461 42.7728 104.451 41.7912C105.442 40.8095 106.002 39.4747 106.009 38.0801V31.7997H92.5875V34.8439H102.965V38.0801C102.957 38.6714 102.719 39.2365 102.301 39.6547C101.883 40.0729 101.318 40.3112 100.726 40.3189H88.8747C88.2795 40.3034 87.7141 40.0553 87.2997 39.6278C86.8853 39.2003 86.655 38.6274 86.6581 38.0321V28.5635C86.6586 28.2738 86.7164 27.9869 86.8283 27.7197C86.9402 27.4524 87.1039 27.2099 87.31 27.0062C87.516 26.8026 87.7604 26.6418 88.029 26.5331C88.2975 26.4243 88.585 26.3698 88.8747 26.3727H104.439V23.3287H88.8747C87.4801 23.3228 86.1402 23.8708 85.1496 24.8524C84.1589 25.834 83.5986 27.1689 83.5918 28.5635V38.0321C83.5967 39.4317 84.1548 40.7726 85.1445 41.7623C86.1342 42.752 87.4751 43.3102 88.8747 43.3151Z" fill="#70747E"/>
<path d="M110.531 37.6516V43.3151H113.579V37.6516C113.573 37.3605 113.625 37.071 113.732 36.8004C113.839 36.5297 113.999 36.2831 114.203 36.075C114.407 35.8669 114.65 35.7016 114.918 35.5885C115.186 35.4754 115.475 35.4169 115.766 35.4164H123.154L127.724 43.3151H131.437L126.819 35.3684C128.067 35.2433 129.225 34.6657 130.076 33.7448C130.927 32.8239 131.411 31.6235 131.437 30.3701V28.5635C131.439 27.8755 131.305 27.1939 131.043 26.5579C130.78 25.9219 130.395 25.3441 129.908 24.8576C129.422 24.3711 128.844 23.9855 128.208 23.7231C127.572 23.4608 126.89 23.3267 126.202 23.3286H110.959V26.3727H126.191C126.479 26.3722 126.764 26.4287 127.03 26.5386C127.295 26.6486 127.537 26.81 127.74 27.0136C127.943 27.2172 128.104 27.4589 128.214 27.7249C128.323 27.9909 128.379 28.2758 128.378 28.5635V30.1816C128.379 30.4691 128.323 30.7539 128.214 31.0197C128.104 31.2854 127.943 31.5269 127.74 31.7302C127.537 31.9335 127.295 32.0947 127.029 32.2043C126.763 32.3138 126.479 32.3696 126.191 32.3686H115.766C114.371 32.3754 113.036 32.9358 112.055 33.9264C111.073 34.9171 110.525 36.257 110.531 37.6516Z" fill="#70747E"/>
<path d="M147.796 23.3287H146.514C145.678 23.3295 144.859 23.5724 144.158 24.028C143.456 24.4836 142.902 25.1323 142.561 25.8961L134.899 43.3151H138.224L145.269 27.1338C145.391 26.9004 145.575 26.7057 145.802 26.5713C146.028 26.4369 146.288 26.3681 146.551 26.3727H147.796C148.056 26.3551 148.315 26.419 148.536 26.5554C148.758 26.6918 148.932 26.894 149.033 27.1338L156.175 43.3151H159.5L151.789 25.9923C151.463 25.201 150.908 24.525 150.195 24.0506C149.482 23.5761 148.645 23.3248 147.788 23.3287H147.796Z" fill="#70747E"/>
<path d="M155.317 35.5566H139.517V38.6045H155.317V35.5566Z" fill="#70747E"/>
<path d="M185.873 39.225V23.3393H182.892V39.225C182.874 39.5803 182.722 39.9155 182.466 40.1625C182.21 40.4095 181.87 40.5498 181.514 40.555C181.274 40.5642 181.036 40.5071 180.826 40.3898C180.616 40.2725 180.443 40.0996 180.325 39.8901L172.197 25.2309C171.792 24.5978 171.237 24.0751 170.581 23.7095C169.924 23.3439 169.187 23.147 168.436 23.1362C167.26 23.1362 166.133 23.6033 165.301 24.4347C164.47 25.2661 164.003 26.3937 164.003 27.5694V43.3222H167.047V27.5473C167.048 27.1814 167.194 26.8309 167.453 26.5726C167.712 26.3143 168.063 26.1693 168.429 26.1693C168.656 26.1668 168.88 26.2221 169.079 26.33C169.279 26.4379 169.448 26.5949 169.57 26.7862L177.757 41.4934C178.326 42.6017 179.804 43.5881 181.518 43.5881C182.677 43.5832 183.788 43.1204 184.608 42.3005C185.428 41.4805 185.891 40.3698 185.896 39.2102L185.873 39.225Z" fill="#70747E"/>
<path d="M197.629 40.3188C197.042 40.312 196.481 40.0724 196.07 39.6526C195.66 39.2329 195.432 38.6673 195.438 38.08V23.3286H192.394V38.032C192.396 39.4243 192.947 40.7598 193.926 41.7487C194.906 42.7377 196.237 43.3005 197.629 43.315H208.479C209.876 43.3025 211.213 42.7418 212.201 41.7538C213.189 40.7658 213.75 39.4293 213.762 38.032V23.3286H210.718V38.08C210.718 38.6738 210.482 39.2432 210.062 39.6631C209.642 40.0829 209.073 40.3188 208.479 40.3188H197.629Z" fill="#70747E"/>
<path d="M31.9116 7.43167C33.8908 7.43167 35.4952 5.82728 35.4952 3.84816C35.4952 1.86904 33.8908 0.264648 31.9116 0.264648C29.9325 0.264648 28.3281 1.86904 28.3281 3.84816C28.3281 5.82728 29.9325 7.43167 31.9116 7.43167Z" fill="#70747E"/>
<path d="M3.82717 35.5161C5.80628 35.5161 7.41068 33.9118 7.41068 31.9326C7.41068 29.9535 5.80628 28.3491 3.82717 28.3491C1.84805 28.3491 0.243652 29.9535 0.243652 31.9326C0.243652 33.9118 1.84805 35.5161 3.82717 35.5161Z" fill="#70747E"/>
<path d="M59.9995 35.5161C61.9786 35.5161 63.583 33.9118 63.583 31.9326C63.583 29.9535 61.9786 28.3491 59.9995 28.3491C58.0204 28.3491 56.416 29.9535 56.416 31.9326C56.416 33.9118 58.0204 35.5161 59.9995 35.5161Z" fill="#70747E"/>
<path d="M31.9561 63.604C33.9352 63.604 35.5396 61.9996 35.5396 60.0205C35.5396 58.0414 33.9352 56.437 31.9561 56.437C29.977 56.437 28.3726 58.0414 28.3726 60.0205C28.3726 61.9996 29.977 63.604 31.9561 63.604Z" fill="#70747E"/>
<path d="M51.7428 6.81104C50.6998 6.81031 49.6801 7.11901 48.8125 7.698C47.945 8.277 47.2688 9.10016 46.8693 10.0636C46.4698 11.0271 46.3651 12.0874 46.5684 13.1104C46.7717 14.1333 47.2739 15.0731 48.0114 15.8106C48.7489 16.5481 49.6886 17.0502 50.7115 17.2535C51.7345 17.4568 52.7948 17.3521 53.7583 16.9526C54.7217 16.5532 55.545 15.8768 56.124 15.0093C56.703 14.1418 57.0117 13.1221 57.0109 12.0791C57.0114 11.3871 56.8755 10.7019 56.6109 10.0625C56.3463 9.42315 55.9583 8.84228 55.469 8.35299C54.9797 7.8637 54.3988 7.47553 53.7594 7.21096C53.12 6.94638 52.4348 6.81055 51.7428 6.81104ZM51.7724 14.063C51.3797 14.0637 50.9956 13.9479 50.6688 13.7302C50.342 13.5125 50.0871 13.2026 49.9365 12.84C49.7859 12.4773 49.7463 12.0782 49.8228 11.6931C49.8992 11.3079 50.0882 10.9541 50.3659 10.6764C50.6435 10.3987 50.9974 10.2097 51.3825 10.1332C51.7677 10.0568 52.1669 10.0965 52.5296 10.2471C52.8922 10.3977 53.202 10.6524 53.4197 10.9793C53.6374 11.3061 53.7533 11.6902 53.7525 12.0829C53.7525 12.6068 53.5449 13.1092 53.1752 13.4803C52.8054 13.8515 52.3036 14.061 51.7797 14.063H51.7724Z" fill="#E11967"/>
<path d="M12.0729 6.81104C11.0299 6.81031 10.0101 7.11901 9.14262 7.698C8.27511 8.277 7.59884 9.10016 7.19937 10.0636C6.7999 11.0271 6.69518 12.0874 6.89848 13.1104C7.10178 14.1333 7.60395 15.0731 8.34145 15.8106C9.07895 16.5481 10.0186 17.0502 11.0416 17.2535C12.0646 17.4568 13.1249 17.3521 14.0883 16.9526C15.0518 16.5532 15.8751 15.8768 16.4541 15.0093C17.0331 14.1418 17.3418 13.1221 17.341 12.0791C17.3415 11.3871 17.2056 10.7019 16.941 10.0625C16.6764 9.42315 16.2884 8.84228 15.7991 8.35299C15.3098 7.8637 14.7289 7.47553 14.0895 7.21096C13.4501 6.94638 12.7648 6.81055 12.0729 6.81104ZM12.0729 14.063C11.6802 14.0637 11.2961 13.9479 10.9693 13.7302C10.6425 13.5125 10.3877 13.2026 10.2371 12.84C10.0864 12.4773 10.0468 12.0782 10.1233 11.6931C10.1997 11.3079 10.3887 10.9541 10.6664 10.6764C10.9441 10.3987 11.2979 10.2097 11.6831 10.1332C12.0682 10.0568 12.4674 10.0965 12.8301 10.2471C13.1927 10.3977 13.5025 10.6524 13.7203 10.9793C13.938 11.3061 14.0538 11.6902 14.053 12.0829C14.053 12.608 13.8444 13.1117 13.4731 13.483C13.1017 13.8544 12.5981 14.063 12.0729 14.063Z" fill="#E5601C"/>
<path d="M51.7428 46.5181C50.7 46.5173 49.6804 46.8258 48.8129 47.4047C47.9455 47.9835 47.2692 48.8067 46.8696 49.7699C46.4701 50.7332 46.3651 51.7933 46.5681 52.8161C46.7711 53.839 47.2729 54.7787 48.0101 55.5164C48.7472 56.254 49.6865 56.7565 50.7093 56.9602C51.732 57.1639 52.7922 57.0596 53.7557 56.6607C54.7192 56.2618 55.5428 55.5861 56.1222 54.719C56.7017 53.852 57.011 52.8327 57.011 51.7899C57.0119 51.0976 56.8763 50.4119 56.612 49.7721C56.3476 49.1323 55.9597 48.551 55.4703 48.0613C54.981 47.5716 54.3999 47.1832 53.7603 46.9183C53.1207 46.6535 52.4351 46.5176 51.7428 46.5181ZM51.7724 53.77C51.3807 53.77 50.9979 53.6539 50.6723 53.4363C50.3466 53.2187 50.0928 52.9095 49.9429 52.5477C49.7931 52.1859 49.7538 51.7876 49.8302 51.4035C49.9067 51.0194 50.0952 50.6667 50.3722 50.3897C50.6491 50.1128 51.0019 49.9241 51.386 49.8477C51.7702 49.7713 52.1683 49.8105 52.5301 49.9604C52.892 50.1103 53.2012 50.3641 53.4188 50.6897C53.6364 51.0154 53.7525 51.3983 53.7525 51.7899C53.7535 52.0499 53.7033 52.3076 53.6046 52.5483C53.506 52.7889 53.361 53.0077 53.1778 53.1922C52.9946 53.3768 52.7768 53.5235 52.537 53.6239C52.2971 53.7243 52.0398 53.7764 51.7797 53.7774L51.7724 53.77Z" fill="#E11967"/>
<path d="M31.9524 26.3765C30.9106 26.3772 29.8925 26.6868 29.0266 27.2661C28.1608 27.8455 27.4861 28.6683 27.088 29.631C26.6898 30.5937 26.586 31.6529 26.7897 32.6745C26.9934 33.6962 27.4954 34.6346 28.2323 35.371C28.9692 36.1074 29.9079 36.6088 30.9297 36.8117C31.9515 37.0147 33.0106 36.9102 33.973 36.5114C34.9354 36.1125 35.758 35.4372 36.3367 34.5709C36.9154 33.7047 37.2243 32.6863 37.2243 31.6445C37.2248 30.9522 37.0887 30.2667 36.8239 29.6271C36.5591 28.9874 36.1707 28.4063 35.681 27.917C35.1914 27.4276 34.61 27.0398 33.9702 26.7755C33.3304 26.5111 32.6447 26.3755 31.9524 26.3765ZM31.9524 33.6248C31.5608 33.6248 31.1779 33.5087 30.8523 33.2911C30.5267 33.0735 30.2729 32.7642 30.123 32.4023C29.9731 32.0405 29.9339 31.6424 30.0103 31.2583C30.0867 30.8742 30.2753 30.5213 30.5522 30.2443C30.8292 29.9674 31.182 29.7789 31.5661 29.7025C31.9502 29.6261 32.3484 29.6653 32.7102 29.8152C33.072 29.9651 33.3813 30.2189 33.5989 30.5445C33.8165 30.8701 33.9326 31.2529 33.9326 31.6445C33.9326 32.1691 33.7245 32.6722 33.3539 33.0434C32.9834 33.4147 32.4807 33.6238 31.9561 33.6248H31.9524Z" fill="#E33E43"/>
<path d="M12.0729 46.5181C11.0301 46.5173 10.0104 46.8258 9.143 47.4047C8.27557 47.9835 7.59931 48.8067 7.19973 49.7699C6.80015 50.7332 6.69521 51.7933 6.89821 52.8161C7.10121 53.839 7.60301 54.7787 8.34014 55.5164C9.07727 56.254 10.0166 56.7565 11.0394 56.9602C12.0621 57.1639 13.1223 57.0596 14.0858 56.6607C15.0493 56.2618 15.8729 55.5861 16.4523 54.719C17.0317 53.852 17.341 52.8327 17.341 51.7899C17.3415 51.0978 17.2056 50.4122 16.9411 49.7726C16.6765 49.133 16.2886 48.552 15.7993 48.0624C15.3101 47.5728 14.7292 47.1844 14.0898 46.9194C13.4504 46.6545 12.765 46.5181 12.0729 46.5181ZM12.0729 53.77C11.6812 53.77 11.2984 53.6539 10.9728 53.4363C10.6471 53.2187 10.3933 52.9095 10.2435 52.5477C10.0936 52.1859 10.0544 51.7876 10.1308 51.4035C10.2072 51.0194 10.3958 50.6667 10.6727 50.3897C10.9496 50.1128 11.3025 49.9241 11.6866 49.8477C12.0707 49.7713 12.4688 49.8105 12.8307 49.9604C13.1925 50.1103 13.5017 50.3641 13.7193 50.6897C13.9369 51.0154 14.053 51.3983 14.053 51.7899C14.054 52.0506 14.0035 52.3088 13.9045 52.5499C13.8054 52.791 13.6597 53.0101 13.4757 53.1948C13.2917 53.3794 13.0731 53.5261 12.8324 53.6261C12.5917 53.726 12.3335 53.7774 12.0729 53.7774V53.77Z" fill="#E55F1D"/>
<mask id="mask0_432_185" style="mask-type:alpha" maskUnits="userSpaceOnUse" x="213" y="23" width="79" height="21">
<g clip-path="url(#clip1_432_185)">
<path d="M224.97 43.3167C223.578 43.3021 222.248 42.7393 221.268 41.7504C220.288 40.7614 219.737 39.4259 219.735 38.0337V23.3267H222.779V38.0337C222.775 38.6246 223.002 39.194 223.411 39.6204C223.82 40.0468 224.38 40.2967 224.97 40.3169H235.82V43.3167H224.97ZM259.475 43.3167V26.3707H267.514V23.3267H248.429V26.3707H256.476V43.3167H259.475ZM243.438 43.3167V23.3267H240.39V43.3167H243.438ZM272.468 26.3707H291.897V23.3267H272.476L272.468 26.3707ZM291.89 43.3167V40.3169H276.658C276.071 40.31 275.511 40.0709 275.101 39.6519C274.69 39.233 274.462 38.6685 274.467 38.0818V37.0325C274.467 36.7447 274.523 36.4597 274.633 36.1937C274.743 35.9277 274.904 35.686 275.108 35.4825C275.311 35.2789 275.553 35.1176 275.819 35.0077C276.085 34.8978 276.37 34.8414 276.658 34.8419H291.897V31.7977H276.665C275.977 31.7957 275.296 31.9298 274.66 32.1922C274.024 32.4546 273.446 32.8401 272.959 33.3266C272.473 33.8131 272.087 34.391 271.825 35.027C271.562 35.663 271.428 36.3445 271.43 37.0325V38.0337C271.423 38.7253 271.554 39.4115 271.814 40.0524C272.074 40.6933 272.459 41.2762 272.945 41.7675C273.432 42.2588 274.012 42.6487 274.65 42.9146C275.289 43.1805 275.974 43.3172 276.665 43.3167H291.89Z" fill="#1F2F57"/>
</g>
</mask>
<g mask="url(#mask0_432_185)">
<path d="M291.868 6.82959H219.713V48.9118H291.868V6.82959Z" fill="url(#paint0_linear_432_185)"/>
</g>
</g>
<g clip-path="url(#clip2_432_185)">
<path d="M46.794 30.6499H39.3046C39.3531 31.0032 39.3791 31.3593 39.3825 31.7161C39.3823 32.2535 39.3289 32.7895 39.223 33.3157H46.0006C46.0515 33.3156 46.102 33.3261 46.1487 33.3469C46.1955 33.3677 46.2376 33.3981 46.2724 33.4364C46.3072 33.4746 46.3339 33.5198 46.3509 33.5691C46.368 33.6185 46.3749 33.6709 46.3713 33.7231C45.9403 37.6088 44.0813 41.1788 41.1741 43.7041C38.267 46.2295 34.5309 47.5198 30.7289 47.3112C27.1021 47.0975 23.6743 45.5381 21.0828 42.9231C18.4913 40.3082 16.9125 36.8157 16.6399 33.0948C16.496 30.9945 16.7742 28.8862 17.4573 26.9011C18.1404 24.916 19.2138 23.0964 20.6106 21.5555C22.0075 20.0146 23.698 18.7855 25.5771 17.9443C27.4562 17.103 29.4836 16.6678 31.5334 16.6657C33.8005 16.6654 36.0378 17.1962 38.0751 18.2178C40.1124 19.2394 41.896 20.7248 43.2903 22.5609L45.1441 20.6568C43.4026 18.4473 41.1753 16.6941 38.6453 15.5414C36.1154 14.3887 33.3551 13.8694 30.5917 14.0264C26.2398 14.2798 22.1347 16.1843 19.0725 19.3705C16.0103 22.5567 14.2092 26.7977 14.0186 31.2706C13.9253 33.6933 14.309 36.1104 15.1468 38.3771C15.9846 40.6439 17.2591 42.7137 18.8942 44.4625C20.5292 46.2112 22.4911 47.6031 24.6622 48.5545C26.8334 49.506 29.1692 49.9976 31.5297 49.9998C40.7617 49.9998 47.2983 43.2362 48.7479 35.3454C48.7887 35.1131 48.9185 34.1496 48.9963 33.0985C49.0182 32.7869 48.9775 32.474 48.8769 32.1791C48.7763 31.8843 48.6179 31.6137 48.4115 31.3842C48.2051 31.1547 47.9551 30.9711 47.6769 30.8447C47.3987 30.7184 47.0982 30.6522 46.794 30.6499Z" fill="#70747E"/>
</g>
<defs>
<linearGradient id="paint0_linear_432_185" x1="219.713" y1="27.8726" x2="291.868" y2="27.8726" gradientUnits="userSpaceOnUse">
<stop stop-color="#EA7C05"/>
<stop offset="0.5" stop-color="#E23445"/>
<stop offset="1" stop-color="#DA1182"/>
</linearGradient>
<clipPath id="clip0_432_185">
<rect width="291.624" height="63.3395" fill="white" transform="translate(0.243652 0.264648)"/>
</clipPath>
<clipPath id="clip1_432_185">
<rect width="78.128" height="19.9901" fill="white" transform="translate(213.762 23.3267)"/>
</clipPath>
<clipPath id="clip2_432_185">
<rect width="35" height="36" fill="white" transform="translate(14 14)"/>
</clipPath>
</defs>
</svg>
