<svg width="86" height="107" viewBox="0 0 86 107" fill="none" xmlns="http://www.w3.org/2000/svg">
<g clip-path="url(#clip0_493_1434)">
<path d="M7.25359 19.0555L6.50274 17.7937L7.41629 5.17617L1.15893 9.04953L0.29541 7.63653L8.48005 2.58951L9.23094 3.85126L8.30486 16.4688L14.8 12.4439L15.651 13.8443L7.25359 19.0555Z" fill="#989898"/>
<path d="M20.7195 12.4438C20.1176 12.6772 19.4756 12.7874 18.8309 12.7679C18.1863 12.7484 17.552 12.5995 16.9651 12.3301C16.4006 12.0302 15.9044 11.6152 15.5079 11.1112C15.1114 10.6072 14.8235 10.0252 14.6624 9.40278C14.387 8.59214 14.3097 7.72646 14.4371 6.87927C14.5704 6.09683 14.9171 5.36733 15.4383 4.77224C15.9883 4.17438 16.689 3.73829 17.4657 3.51048C17.984 3.30897 18.5403 3.22598 19.0943 3.26743C19.6483 3.30889 20.1863 3.47369 20.6694 3.75014C21.6924 4.40125 22.4309 5.42099 22.7344 6.60172L22.9346 7.21997L16.5396 9.30205C16.6391 9.68886 16.8214 10.0489 17.0736 10.3571C17.3259 10.6653 17.642 10.9143 17.9998 11.0862C18.3576 11.2582 18.7484 11.3489 19.1447 11.3524C19.541 11.3559 19.9333 11.2719 20.294 11.1063C20.7952 10.9408 21.268 10.6981 21.6956 10.387C22.1425 10.041 22.5204 9.61286 22.8095 9.12523L23.7481 10.2105C23.4286 10.7399 23.0022 11.1957 22.4966 11.548C21.9521 11.9347 21.353 12.2367 20.7195 12.4438ZM17.9287 4.69646C17.5959 4.78331 17.2853 4.94093 17.0177 5.15853C16.7501 5.37612 16.5316 5.64866 16.3769 5.95821C16.074 6.62571 15.9992 7.37586 16.1642 8.09081L21.0449 6.50099C20.8354 5.80786 20.3928 5.20989 19.7934 4.81013C19.5104 4.6529 19.1963 4.56115 18.8738 4.54151C18.5512 4.52187 18.2284 4.57472 17.9287 4.69646Z" fill="#989898"/>
<path d="M25.8255 10.98L24.7617 1.80706L26.5889 1.59266L26.7891 3.23301C26.9872 2.64416 27.3503 2.12568 27.8345 1.74053C28.3187 1.35537 28.9032 1.12009 29.5173 1.06283L30.1305 0.949158L30.4434 2.55161L29.3171 2.79127C28.9783 2.8151 28.6484 2.91162 28.3494 3.07406C28.0505 3.2365 27.7893 3.46107 27.5832 3.73327C27.3772 4.00547 27.231 4.31887 27.1545 4.65248C27.078 4.98609 27.0729 5.33235 27.1395 5.66811L27.7277 10.7151L25.8255 10.98Z" fill="#989898"/>
<path d="M36.1752 10.7532C35.3391 10.7117 34.53 10.4414 33.835 9.97104C33.1911 9.53479 32.6902 8.9154 32.3958 8.19177C32.0819 7.39058 31.9618 6.52555 32.0453 5.66826C32.095 4.77747 32.3568 3.91186 32.8087 3.14475C33.2147 2.48275 33.8013 1.95275 34.4982 1.61808C35.2656 1.28146 36.1063 1.15098 36.9386 1.23949C37.765 1.2811 38.5649 1.54716 39.2538 2.0093C39.8947 2.44888 40.3947 3.06695 40.693 3.78826C41.0097 4.58879 41.1341 5.45351 41.0559 6.31177C41.0106 7.20511 40.7438 8.07274 40.28 8.83528C39.8758 9.50345 39.2833 10.0349 38.578 10.362C37.8269 10.709 36.9965 10.8443 36.1752 10.7532ZM36.3004 9.28965C36.6557 9.32813 37.015 9.28454 37.3511 9.16212C37.6872 9.03969 37.9912 8.84156 38.2401 8.58299C38.7605 7.88896 39.0735 7.05953 39.1423 6.19225C39.211 5.32497 39.0326 4.45576 38.6281 3.68722C38.4214 3.39608 38.1518 3.15631 37.8396 2.9858C37.5273 2.81529 37.1807 2.71878 36.826 2.70332C36.4688 2.66142 36.1068 2.70061 35.7667 2.81853C35.4267 2.93646 35.1172 3.12985 34.8611 3.38441C34.3407 4.07844 34.0277 4.90787 33.959 5.77516C33.8903 6.64244 34.0687 7.51165 34.4732 8.28018C34.6824 8.57656 34.9555 8.82126 35.272 8.99608C35.5884 9.17089 35.94 9.27135 36.3004 9.28965Z" fill="#989898"/>
<path d="M48.915 13.5162L50.2416 3.72498L51.9561 4.65866L50.7922 12.0022L56.3363 7.08144L57.5877 7.78779L56.4364 15.1692L61.9679 10.1979L63.6073 11.0937L56.0985 17.5162L54.5842 16.6832L55.5979 9.71831L50.3417 14.3492L48.915 13.5162Z" fill="#989898"/>
<path d="M61.4674 22.3611C61.0426 21.9463 60.721 21.4362 60.5288 20.8723C60.3681 20.363 60.3295 19.8225 60.4162 19.2951C60.5156 18.7845 60.7691 18.3173 61.142 17.9576C61.5281 17.5257 62.0581 17.252 62.6313 17.1881C63.2822 17.2058 63.9117 17.4262 64.4334 17.819C65.3417 18.4316 66.181 19.1423 66.9363 19.9386L67.3869 20.4053L67.7373 20.0523C68.1637 19.697 68.4409 19.192 68.5132 18.639C68.4941 18.3691 68.4211 18.1059 68.2985 17.8652C68.1759 17.6245 68.0063 17.4115 67.7998 17.2386C67.4307 16.8599 67.0092 16.5369 66.5484 16.2797C66.0239 15.9956 65.4641 15.7834 64.8839 15.6488L65.4221 14.286C66.0701 14.4164 66.6919 14.6553 67.2617 14.9927C67.8645 15.3331 68.4165 15.7579 68.9011 16.2544C69.3146 16.5535 69.6514 16.9474 69.8837 17.4037C70.1161 17.8601 70.2373 18.3657 70.2373 18.8787C70.2373 19.3917 70.1161 19.8975 69.8837 20.3539C69.6514 20.8103 69.3146 21.2042 68.9011 21.5032L64.8839 25.5155L63.6325 24.2537L64.7087 23.1814C64.1953 23.3857 63.6328 23.4295 63.0943 23.3074C62.4721 23.1587 61.9066 22.8298 61.4674 22.3611ZM62.7189 21.6671C62.9357 21.901 63.2 22.0852 63.4936 22.2071C63.7873 22.329 64.1035 22.3859 64.4209 22.3737C64.7505 22.3641 65.0749 22.289 65.3756 22.1526C65.6762 22.0162 65.9472 21.8213 66.1729 21.579L66.5359 21.2257L66.0979 20.7839C65.6018 20.2593 65.0663 19.7743 64.496 19.333C64.181 19.0718 63.7992 18.9055 63.3947 18.8534C63.2373 18.852 63.0814 18.884 62.937 18.947C62.7926 19.0101 62.6628 19.1027 62.5562 19.2194C62.3988 19.3697 62.275 19.5521 62.193 19.7544C62.111 19.9568 62.0727 20.1746 62.0806 20.393C62.1234 20.8792 62.3416 21.3323 62.6939 21.6671H62.7189Z" fill="#989898"/>
<path d="M68.0502 30.6509C67.7592 30.2817 67.5477 29.8555 67.4292 29.3993C67.3107 28.9431 67.2877 28.4668 67.3619 28.0011C67.4848 27.5537 67.6939 27.1351 67.9774 26.7692C68.2608 26.4034 68.613 26.0974 69.0138 25.8688L72.7683 23.3453L71.7921 21.8439L73.0436 21.0239L74.0323 22.5253L76.335 20.986L77.3737 22.5884L75.0835 24.1151L76.6478 26.4997L75.3964 27.32L73.832 24.9351L70.2653 27.32C69.8005 27.5899 69.4425 28.0133 69.2516 28.5186C69.199 28.7687 69.2019 29.0274 69.2604 29.2761C69.3188 29.5248 69.4312 29.7572 69.5895 29.9569C69.7008 30.1194 69.8265 30.2716 69.965 30.4113C70.1068 30.5472 70.2573 30.6737 70.4155 30.7898L69.3893 31.8369C69.1419 31.7071 68.9177 31.5366 68.726 31.3323C68.4774 31.13 68.2509 30.9016 68.0502 30.6509Z" fill="#989898"/>
<path d="M71.0162 36.7075C70.7356 36.1212 70.5744 35.4841 70.5422 34.834C70.5099 34.1838 70.6073 33.5338 70.8285 32.9222C71.0838 32.3375 71.4555 31.8118 71.9204 31.3777C72.3854 30.9436 72.9338 30.6105 73.5317 30.3987C74.3179 30.0492 75.1779 29.9017 76.0346 29.9696C76.8163 30.0342 77.5633 30.3234 78.1871 30.8026C78.8415 31.2956 79.3447 31.9644 79.6389 32.7328C79.874 33.2427 79.9958 33.7982 79.9958 34.3605C79.9958 34.9228 79.874 35.4783 79.6389 35.9882C79.0718 37.0672 78.1188 37.8883 76.9732 38.2847L76.385 38.5244L73.8195 32.2156C73.445 32.3476 73.1035 32.5604 72.8189 32.8391C72.5343 33.1177 72.3134 33.4555 72.1717 33.8291C72.0299 34.2027 71.9706 34.6031 71.998 35.0022C72.0254 35.4012 72.1388 35.7894 72.3302 36.1398C72.5373 36.6288 72.8157 37.0836 73.1562 37.4896C73.5069 37.9056 73.9313 38.2522 74.4077 38.5117L73.419 39.5465C72.8645 39.2758 72.377 38.8833 71.9923 38.3981C71.5784 37.8914 71.2488 37.3206 71.0162 36.7075ZM78.4499 33.2882C78.3299 32.9595 78.1432 32.6595 77.9019 32.4075C77.6606 32.1555 77.3699 31.9569 77.0483 31.8244C76.3582 31.5897 75.6109 31.5897 74.9208 31.8244L76.8856 36.5938C77.5557 36.3242 78.1127 35.8296 78.4625 35.1935C78.5949 34.8921 78.6591 34.5647 78.6505 34.2351C78.6418 33.9056 78.5605 33.5821 78.4124 33.2882H78.4499Z" fill="#989898"/>
<path d="M72.8306 41.7418L81.8161 39.9502L82.1665 41.767L80.5647 42.0825C81.1549 42.2352 81.6903 42.5533 82.1088 42.9998C82.5274 43.4464 82.812 44.0032 82.9299 44.606L83.0926 45.2116L81.5283 45.6657L81.2029 44.5555C81.1535 44.2163 81.0328 43.8914 80.849 43.603C80.6651 43.3146 80.4223 43.0691 80.1369 42.8828C79.8514 42.6965 79.5298 42.5737 79.1935 42.5227C78.8573 42.4717 78.5141 42.4937 78.1869 42.5871L73.181 43.5839L72.8306 41.7418Z" fill="#989898"/>
<path d="M73.6817 55.9746C73.7408 55.3814 73.938 54.8107 74.2573 54.309C74.5394 53.8589 74.9316 53.4895 75.3962 53.2363C75.8523 52.991 76.3725 52.894 76.8854 52.9588C77.4621 52.9911 78.0063 53.2385 78.4122 53.6528C78.8063 54.1773 79.0293 54.812 79.0505 55.4697C79.1294 56.5553 79.0958 57.6464 78.9504 58.7251L78.8753 59.356L79.3634 59.4191C79.9049 59.5318 80.4686 59.4326 80.9402 59.1416C81.1385 58.9586 81.2975 58.7365 81.4073 58.4891C81.5171 58.2417 81.5753 57.974 81.5785 57.703C81.6531 57.1715 81.6531 56.632 81.5785 56.1005C81.463 55.511 81.2737 54.9389 81.0153 54.3974L82.4169 53.9683C82.7165 54.5571 82.9154 55.1927 83.0051 55.8483C83.1285 56.5351 83.1538 57.2363 83.0802 57.9303C83.0283 58.9569 82.5789 59.9217 81.8288 60.6177C81.4104 60.9006 80.9408 61.0976 80.4469 61.1972C79.953 61.2968 79.4444 61.297 78.9504 61.1981L73.3438 60.5546L73.544 58.763L75.0583 58.9395C74.5604 58.6527 74.1693 58.2096 73.9445 57.6777C73.6991 57.1464 73.608 56.556 73.6817 55.9746ZM74.9331 56.517C74.8909 56.8322 74.916 57.1528 75.0067 57.4575C75.0973 57.7621 75.2514 58.0436 75.4587 58.2834C75.6725 58.5374 75.9342 58.7463 76.2284 58.8979C76.5227 59.0495 76.8438 59.141 77.1733 59.1668L77.6739 59.2297L77.7364 58.6114C77.8399 57.893 77.8776 57.1666 77.8491 56.4412C77.8591 56.0335 77.755 55.6313 77.5487 55.2805C77.4506 55.1554 77.3275 55.0526 77.1873 54.9786C77.0472 54.9047 76.8931 54.8613 76.7353 54.8514C76.5137 54.8111 76.286 54.822 76.0693 54.8832C75.8525 54.9443 75.6524 55.0543 75.4838 55.2048C75.1634 55.5657 74.9853 56.0326 74.9832 56.517H74.9331Z" fill="#989898"/>
<path d="M71.016 67.1408C71.2364 66.5248 71.6115 65.977 72.1047 65.5509C72.5605 65.1676 73.1171 64.9267 73.7066 64.8572L72.2424 64.3144L72.8932 62.5607L85.2953 67.2165L84.632 69.0081L79.4259 67.0526C79.8049 67.4947 80.0484 68.0382 80.1267 68.6172C80.2223 69.2518 80.1488 69.9006 79.9139 70.4972C79.6689 71.2003 79.2235 71.8146 78.6335 72.2635C78.0436 72.7125 77.3353 72.9759 76.5975 73.0207C75.7433 73.0643 74.8897 72.9222 74.0946 72.6042C73.2693 72.3203 72.5169 71.8547 71.892 71.2415C71.3639 70.7241 70.9982 70.0615 70.8407 69.3362C70.6949 68.6022 70.7556 67.8418 71.016 67.1408ZM72.5553 67.2165C72.4165 67.55 72.3556 67.9112 72.3773 68.2722C72.399 68.6332 72.5027 68.9842 72.6804 69.2983C73.2028 69.9979 73.9128 70.5326 74.7266 70.8388C75.5403 71.1451 76.424 71.2104 77.2733 71.0271C77.6084 70.8997 77.9125 70.7014 78.165 70.4455C78.4175 70.1895 78.6127 69.882 78.7372 69.5435C78.8618 69.205 78.9129 68.8436 78.887 68.4835C78.8612 68.1235 78.759 67.773 78.5874 67.4562C78.1137 66.7225 77.3941 66.1851 76.56 65.9421C75.7734 65.5872 74.8896 65.5161 74.057 65.7404C73.7129 65.8593 73.4007 66.0566 73.1446 66.317C72.8885 66.5775 72.6954 66.8939 72.5803 67.2418L72.5553 67.2165Z" fill="#989898"/>
<path d="M66.9738 74.9639C67.3613 74.3638 67.8383 73.8276 68.388 73.3741C68.8544 72.9673 69.394 72.6543 69.9774 72.4527L70.7282 73.6264C70.193 73.8351 69.6944 74.129 69.2515 74.4969C68.8047 74.8542 68.4162 75.28 68.1002 75.7586C67.786 76.18 67.5991 76.6837 67.562 77.2095C67.5599 77.4016 67.6072 77.591 67.6993 77.7591C67.7915 77.9272 67.9253 78.0681 68.0876 78.1685C68.2023 78.2556 68.3355 78.3147 68.4767 78.341C68.6178 78.3673 68.7631 78.3601 68.9011 78.32C69.2453 78.1809 69.5566 77.9703 69.8147 77.7018L71.0662 76.44C72.2175 75.3045 73.3313 75.1026 74.4076 75.8218C74.7479 76.0415 75.0304 76.341 75.2309 76.6948C75.4314 77.0486 75.5439 77.4459 75.5589 77.853C75.5635 78.8189 75.2609 79.761 74.6954 80.5407C74.3492 81.0637 73.9274 81.5313 73.4439 81.9285C73.0016 82.2891 72.4839 82.5437 71.9297 82.673L71.1663 81.4997C71.6537 81.3624 72.1119 81.1357 72.5179 80.8309C72.914 80.5394 73.257 80.1806 73.5316 79.7709C73.8529 79.3546 74.0367 78.8472 74.0572 78.32C74.0553 78.1256 74.0051 77.9347 73.9111 77.7649C73.8171 77.5952 73.6823 77.452 73.519 77.3485C72.9934 76.9952 72.4302 77.1088 71.8295 77.7144L70.5781 78.9762C70.1198 79.494 69.5253 79.87 68.8636 80.0611C68.5794 80.128 68.2841 80.1311 67.9986 80.07C67.7131 80.009 67.4444 79.8852 67.2116 79.7078C66.8669 79.497 66.5813 79.2011 66.382 78.8477C66.1826 78.4944 66.0762 78.0956 66.0728 77.6892C66.0798 76.7075 66.3953 75.7535 66.9738 74.9639Z" fill="#989898"/>
<path d="M61.004 82.1052C61.5984 81.5003 62.3411 81.0649 63.1565 80.8434C63.9067 80.6604 64.6933 80.6999 65.4217 80.9571C66.2421 81.2691 66.9761 81.7753 67.5617 82.4332C68.1799 83.0559 68.6357 83.8231 68.8883 84.6666C69.1136 85.4109 69.1136 86.2061 68.8883 86.9504C68.635 87.7564 68.1727 88.4794 67.5492 89.0448C66.9608 89.6445 66.2275 90.0794 65.4217 90.3066C64.671 90.4833 63.8862 90.4438 63.1565 90.1929C62.3274 89.8786 61.588 89.363 61.004 88.6915C60.391 88.0648 59.9361 87.2989 59.6775 86.4582C59.4584 85.7086 59.4584 84.9112 59.6775 84.1617C59.931 83.3697 60.3888 82.66 61.004 82.1052ZM62.0177 83.1775C61.7507 83.416 61.5409 83.7127 61.4043 84.0449C61.2677 84.3772 61.2079 84.7363 61.2293 85.0954C61.332 85.973 61.7452 86.784 62.3931 87.3792C62.9447 88.0503 63.7179 88.4983 64.5707 88.641C64.9241 88.6817 65.2819 88.6416 65.6178 88.5236C65.9536 88.4056 66.2588 88.2129 66.5105 87.9596C66.7816 87.7204 66.9956 87.4227 67.1364 87.0884C67.2773 86.7541 67.3414 86.3918 67.3239 86.029C67.2206 85.1579 66.8123 84.3528 66.1726 83.7581C65.6056 83.093 64.827 82.647 63.97 82.4964C63.6126 82.4507 63.2496 82.4882 62.9089 82.6063C62.5683 82.7245 62.2591 82.9198 62.0052 83.1775H62.0177Z" fill="#989898"/>
<path d="M56.374 86.1681L61.2047 94.0162L59.6403 95.0004L58.7893 93.5997C58.8542 94.2194 58.7412 94.8452 58.4639 95.4021C58.1866 95.959 57.7567 96.4237 57.225 96.7415L56.7244 97.0948L55.7608 95.833L56.6743 95.1267C56.9708 94.9603 57.2286 94.7322 57.4309 94.4576C57.6331 94.183 57.775 93.868 57.8472 93.5338C57.9194 93.1996 57.9203 92.8539 57.8497 92.5194C57.7791 92.1849 57.6386 91.8693 57.4377 91.5937L54.7471 87.2407L56.374 86.1681Z" fill="#989898"/>
<path d="M49.741 86.4457L54.0211 98.3187L52.269 98.9622L51.7309 97.486C51.6639 98.0771 51.4244 98.6349 51.0426 99.0885C50.615 99.5829 50.0673 99.957 49.4532 100.174C48.7516 100.446 47.9878 100.511 47.2506 100.363C46.5283 100.197 45.8708 99.8194 45.3609 99.2776C44.184 97.9703 43.5677 96.2469 43.6464 94.4832C43.6949 93.7467 43.9559 93.0405 44.3972 92.4516C44.8731 91.8682 45.5018 91.431 46.2119 91.1899C46.8015 90.9625 47.4386 90.8888 48.064 90.9755C48.6404 91.0638 49.1792 91.3177 49.6159 91.7071L47.9639 87.1018L49.741 86.4457ZM47.1505 92.4011C46.8084 92.5116 46.4962 92.7 46.238 92.9516C45.9797 93.2032 45.7824 93.5115 45.6612 93.8523C45.4308 94.6889 45.4927 95.5798 45.8364 96.3758C46.0798 97.2189 46.6063 97.9502 47.3257 98.445C47.6363 98.6262 47.984 98.733 48.3421 98.757C48.7001 98.7811 49.0589 98.7219 49.3906 98.5839C49.73 98.4723 50.0402 98.2849 50.298 98.0359C50.5558 97.7869 50.7547 97.4824 50.8799 97.1453C51.0601 96.2957 50.9996 95.412 50.7052 94.5953C50.4109 93.7787 49.8946 93.0622 49.2154 92.5274C48.8971 92.3351 48.5374 92.2232 48.167 92.2012C47.7966 92.1792 47.4264 92.2478 47.0879 92.4011H47.1505Z" fill="#989898"/>
<path d="M36.8883 93.2341C37.3461 93.1318 37.8198 93.1248 38.2803 93.2137C38.7409 93.3027 39.1785 93.4856 39.5664 93.7513C40.2655 94.368 40.6932 95.2393 40.7553 96.1737L41.3811 100.603L43.1456 100.35L43.3584 101.801L41.5938 102.066L41.9817 104.817L40.1045 105.082L39.7166 102.331L36.9133 102.735L36.7005 101.271L39.5039 100.867L38.9031 96.6029C38.8686 96.0617 38.642 95.5509 38.2649 95.1643C38.0665 95.0058 37.8349 94.8952 37.5877 94.8405C37.3405 94.7859 37.0842 94.7886 36.8382 94.8488C36.6418 94.8799 36.449 94.9308 36.2625 95.0004L35.7369 95.2401L35.2363 93.8649C35.4543 93.6937 35.6998 93.5613 35.9622 93.4737C36.2635 93.3674 36.5734 93.2872 36.8883 93.2341Z" fill="#989898"/>
<path d="M34.2227 93.5495L34.3729 102.785H32.4832L32.333 93.5495H34.2227ZM34.5732 104.905V106.899H32.358V104.905H34.5732Z" fill="#989898"/>
<path d="M26.1006 92.8428C26.9312 92.9596 27.7168 93.2947 28.3783 93.8143C28.9668 94.3113 29.4012 94.9682 29.6298 95.707C29.8803 96.55 29.9275 97.4412 29.7675 98.3063C29.6481 99.1812 29.3171 100.013 28.8038 100.729C28.3493 101.358 27.7232 101.84 27.0017 102.116C26.197 102.395 25.3341 102.456 24.4988 102.293C23.6798 102.184 22.9056 101.852 22.2587 101.334C21.6697 100.838 21.2352 100.181 21.0072 99.4417C20.7503 98.5999 20.703 97.7071 20.8695 96.8424C20.9833 95.966 21.3147 95.1328 21.8332 94.4199C22.2953 93.7962 22.925 93.3188 23.6478 93.0445C24.4335 92.7608 25.2796 92.6913 26.1006 92.8428ZM25.8629 94.3063C25.5131 94.2368 25.1521 94.2484 24.8074 94.3402C24.4627 94.432 24.1432 94.6019 23.873 94.8364C23.2555 95.4555 22.8706 96.2715 22.7842 97.1452C22.5814 97.9968 22.6926 98.8937 23.0971 99.6687C23.2847 99.9803 23.5371 100.247 23.8367 100.451C24.1364 100.655 24.4764 100.791 24.8331 100.849C25.1899 100.908 25.5551 100.888 25.9035 100.791C26.2519 100.694 26.5753 100.522 26.8515 100.287C27.4799 99.6795 27.8708 98.8647 27.9528 97.9908C28.1403 97.1384 28.0298 96.2469 27.64 95.4673C27.4543 95.1473 27.1969 94.8754 26.8883 94.6738C26.5797 94.4722 26.2285 94.3463 25.8629 94.3063Z" fill="#989898"/>
<path d="M20.156 91.7829L16.5142 100.262L14.8247 99.5176L15.4254 98.1169C14.9393 98.4893 14.3571 98.7127 13.7484 98.7604C13.1138 98.8048 12.478 98.6922 11.8963 98.4323C9.91062 97.5912 9.40583 96.0224 10.382 93.726L12.6347 88.4899L14.3742 89.2594L12.1716 94.3822C11.8854 94.9276 11.7885 95.5537 11.8963 96.1611C11.9905 96.4119 12.1378 96.6391 12.328 96.8265C12.5182 97.0139 12.7468 97.1572 12.9976 97.2464C13.3066 97.3859 13.6414 97.458 13.98 97.458C14.3186 97.458 14.6534 97.3859 14.9624 97.2464C15.6027 96.9551 16.1022 96.4197 16.3515 95.7576L18.4165 90.9629L20.156 91.7829Z" fill="#989898"/>
</g>
<defs>
<clipPath id="clip0_493_1434">
<rect width="85" height="106" fill="white" transform="translate(0.320312 0.949219)"/>
</clipPath>
</defs>
</svg>
