<svg width="139" height="146" viewBox="0 0 139 146" fill="none" xmlns="http://www.w3.org/2000/svg">
<g clip-path="url(#clip0_481_141)">
<path d="M28.6074 43.8127L21.0234 37.3572L18.4149 40.426L17.3548 39.5165L23.6508 32.1167L24.7109 33.0263L22.1024 36.0951L29.6823 42.5364L28.6074 43.8127Z" fill="#989898"/>
<path d="M33.0373 38.9436L25.9489 30.0693L27.1805 29.0674L30.1304 32.7787C30.0552 32.2759 30.127 31.7623 30.3372 31.2994C30.562 30.8193 30.8999 30.4007 31.3219 30.0798C32.7775 28.9053 34.1065 29.1714 35.4692 30.8006L38.5 34.5797L37.2725 35.5957L34.3086 31.8886C34.013 31.4572 33.5809 31.1382 33.0817 30.9825C32.8567 30.9468 32.6265 30.9615 32.4079 31.0256C32.1892 31.0898 31.9876 31.2017 31.8175 31.3534C31.5821 31.5243 31.3857 31.7434 31.2416 31.9961C31.0974 32.2488 31.0086 32.5292 30.9812 32.8189C30.9567 33.1153 30.9934 33.4136 31.0891 33.6952C31.1849 33.9768 31.3376 34.236 31.5378 34.456L34.311 37.929L33.0373 38.9436Z" fill="#989898"/>
<path d="M43.4755 31.8844C43.0023 32.1747 42.476 32.3679 41.9274 32.4529C41.3788 32.5379 40.8187 32.5129 40.2798 32.3794C39.7611 32.211 39.2823 31.9386 38.8725 31.5788C38.4627 31.219 38.1306 30.7796 37.8964 30.2871C37.5237 29.6448 37.3117 28.922 37.2783 28.1801C37.2672 27.5072 37.4488 26.845 37.8017 26.272C38.1633 25.6714 38.6867 25.185 39.312 24.868C39.7215 24.6231 40.1791 24.4694 40.6534 24.4172C41.1277 24.3649 41.6075 24.4151 42.0606 24.5649C43.0075 24.9719 43.7695 25.7161 44.1987 26.6532L44.4636 27.1401L39.3895 29.8644C39.5327 30.1728 39.7418 30.446 40.002 30.665C40.2623 30.8839 40.5673 31.043 40.8957 31.1313C41.2241 31.2197 41.5679 31.2351 41.9028 31.1763C42.2378 31.1175 42.5558 30.9862 42.8345 30.7912C43.231 30.5824 43.5888 30.307 43.8924 29.9773C44.225 29.6377 44.4854 29.2342 44.6582 28.7914L45.6127 29.549C45.4301 30.0453 45.1401 30.495 44.7633 30.866C44.3896 31.2703 43.9551 31.6139 43.4755 31.8844ZM39.9441 25.8267C39.6741 25.9581 39.4338 26.1433 39.2383 26.3712C39.0428 26.5992 38.8961 26.8648 38.8073 27.1517C38.6685 27.7581 38.7265 28.393 38.9728 28.9642L42.8331 26.8862C42.5517 26.3419 42.0913 25.9112 41.5295 25.6667C41.2697 25.5752 40.9929 25.542 40.7189 25.5697C40.4449 25.5973 40.1804 25.6852 39.9441 25.8267Z" fill="#989898"/>
<path d="M55.6805 27.465C55.139 27.5957 54.5727 27.5833 54.0375 27.4285C53.5451 27.2921 53.1082 27.0038 52.789 26.6048L53.0797 27.9077L51.5238 28.2724L48.9806 17.2108L50.5645 16.8378L51.6369 21.4812C51.7798 21.0056 52.0501 20.5783 52.4184 20.2452C52.8211 19.8851 53.3107 19.6364 53.839 19.5235C54.4651 19.3674 55.1226 19.3912 55.7357 19.5924C56.3252 19.8085 56.8426 20.1852 57.2293 20.6798C57.671 21.2822 57.9777 21.9727 58.1283 22.7044C58.317 23.4257 58.3401 24.1802 58.1962 24.9117C58.0803 25.5327 57.7803 26.1046 57.3351 26.5528C56.882 27.0086 56.3078 27.325 55.6805 27.465ZM54.9949 26.3238C55.2977 26.2696 55.5834 26.1445 55.8285 25.9586C56.0736 25.7727 56.2712 25.5313 56.405 25.2543C56.6523 24.5566 56.6956 23.8027 56.5299 23.0813C56.3642 22.3598 55.9963 21.7006 55.4694 21.1808C55.2183 21.0069 54.9335 20.8874 54.6334 20.8305C54.3334 20.7736 54.0247 20.7805 53.7274 20.8505C53.4301 20.9204 53.1508 21.0518 52.9076 21.2366C52.6644 21.4213 52.4628 21.6554 52.3157 21.9231C52.0751 22.6194 52.0361 23.3693 52.2034 24.0868C52.3707 24.8043 52.7374 25.4599 53.2611 25.978C53.5033 26.1634 53.7859 26.2888 54.0858 26.344C54.3856 26.3992 54.6944 26.3827 54.9866 26.2957L54.9949 26.3238Z" fill="#989898"/>
<path d="M64.2289 26.3915C63.6747 26.4456 63.1153 26.3892 62.583 26.2259C62.0507 26.0626 61.5561 25.7957 61.1276 25.4402C60.7313 25.0656 60.4168 24.6127 60.2039 24.1107C59.991 23.6087 59.8842 23.0682 59.8904 22.523C59.8391 21.7865 59.9743 21.0489 60.2835 20.3786C60.5632 19.7624 61.013 19.2389 61.5798 18.8694C62.1766 18.5031 62.8603 18.3025 63.5604 18.2884C64.0362 18.2448 64.5159 18.3056 64.966 18.466C65.4161 18.6264 65.8259 18.8826 66.167 19.2172C66.862 19.9895 67.2391 20.9962 67.2224 22.0351L67.2443 22.5776L61.4912 22.8314C61.4856 23.1716 61.5548 23.509 61.6937 23.8197C61.8326 24.1303 62.038 24.4068 62.2953 24.6294C62.5526 24.8521 62.8556 25.0154 63.183 25.1083C63.5103 25.2012 63.8541 25.2214 64.1901 25.1671C64.6428 25.1462 65.0891 25.0514 65.5112 24.8864C65.9565 24.7226 66.3653 24.4731 66.7145 24.152L67.235 25.25C66.868 25.6079 66.4283 25.8826 65.9457 26.0555C65.3953 26.2592 64.8155 26.3728 64.2289 26.3915ZM63.7009 19.3913C63.4028 19.39 63.1078 19.4524 62.8358 19.5743C62.5637 19.6962 62.3209 19.875 62.1234 20.0984C61.7254 20.5827 61.4998 21.1855 61.482 21.8121L65.8762 21.6061C65.8495 20.9922 65.6182 20.405 65.219 19.9378C65.0162 19.7366 64.7705 19.5841 64.5003 19.4916C64.23 19.3992 63.9423 19.3689 63.6588 19.4037L63.7009 19.3913Z" fill="#989898"/>
<path d="M71.6286 26.7072C71.0207 26.6403 70.4257 26.4862 69.8619 26.2492C69.3777 26.0409 68.9349 25.7469 68.5548 25.3816L69.1527 24.3518C69.5193 24.6781 69.9326 24.9476 70.3789 25.1516C70.8267 25.3547 71.3031 25.4877 71.7913 25.5458C72.2344 25.6303 72.6925 25.5808 73.1074 25.4037C73.2508 25.3293 73.3736 25.2209 73.4649 25.0876C73.5563 24.9544 73.6132 24.8006 73.6309 24.6401C73.6516 24.5175 73.6441 24.3917 73.6091 24.2725C73.5741 24.1533 73.5126 24.0437 73.4289 23.9518C73.1922 23.7398 72.9117 23.5826 72.6073 23.4911L71.1198 22.9967C70.6804 22.9267 70.2741 22.7203 69.9584 22.4067C69.6426 22.0932 69.4334 21.6885 69.3603 21.2495C69.2872 20.8106 69.3539 20.3598 69.551 19.9608C69.748 19.5619 70.0654 19.2348 70.4584 19.0261C71.1868 18.6407 72.0226 18.5081 72.8345 18.6493C73.3645 18.7139 73.8812 18.861 74.3658 19.0851C74.8109 19.2833 75.2056 19.5796 75.5202 19.9517L74.9222 20.9815C74.6291 20.6632 74.2829 20.3979 73.8991 20.1982C73.518 20.0172 73.1117 19.8947 72.6941 19.8347C72.256 19.7534 71.8037 19.8065 71.3962 19.9867C71.2468 20.0651 71.119 20.179 71.0242 20.3186C70.9295 20.4582 70.8706 20.619 70.8529 20.7867C70.7909 21.3033 71.1013 21.6854 71.784 21.9326L73.2673 22.4126C73.8378 22.5697 74.3528 22.8839 74.7536 23.3192C74.921 23.5089 75.0446 23.733 75.1158 23.9757C75.187 24.2185 75.2041 24.4739 75.1657 24.7239C75.1362 25.0605 75.0256 25.3849 74.8434 25.6695C74.6612 25.954 74.4128 26.1901 74.1195 26.3578C73.3514 26.7488 72.4746 26.8717 71.6286 26.7072Z" fill="#989898"/>
<path d="M79.569 28.3444C79.1794 28.2681 78.8094 28.1132 78.4815 27.8895C78.1536 27.6657 77.8747 27.3778 77.6616 27.0428C77.314 26.322 77.2627 25.4936 77.5186 24.7354L78.4861 21.0649L77.0134 20.6731L77.3266 19.4523L78.8133 19.84L79.4104 17.5594L81.05 17.9481L80.4569 20.2424L82.8018 20.8514L82.4886 22.0722L80.1256 21.4532L79.1995 25.005C79.0504 25.4391 79.0594 25.9118 79.225 26.3399C79.3312 26.5282 79.4778 26.6908 79.6542 26.8158C79.8307 26.9408 80.0327 27.0252 80.2456 27.0628C80.411 27.1071 80.5816 27.1288 80.7528 27.1275C80.9195 27.1423 81.0874 27.1392 81.2534 27.118L81.1938 28.3709C80.9604 28.4314 80.7184 28.451 80.4784 28.4284C80.1729 28.4419 79.8669 28.4136 79.569 28.3444Z" fill="#989898"/>
<path d="M88.0851 31.8415C87.5365 31.5543 87.0333 31.1879 86.5914 30.7541C86.2047 30.4008 85.8927 29.9737 85.6737 29.4978L86.5953 28.7392C87.0494 29.6111 87.7587 30.3237 88.6285 30.7819C89.0125 31.0217 89.462 31.1356 89.9138 31.1069C90.0743 31.0929 90.2287 31.0384 90.3624 30.9485C90.4961 30.8586 90.6048 30.7359 90.6782 30.5925C90.7424 30.4855 90.7803 30.365 90.7889 30.2405C90.7974 30.116 90.7764 29.9912 90.7275 29.8764C90.5836 29.5918 90.3753 29.3446 90.1191 29.1546L88.9138 28.1659C88.5286 27.9461 88.2219 27.6113 88.0369 27.2083C87.8518 26.8052 87.7976 26.3543 87.8819 25.9189C87.9663 25.4834 88.1849 25.0853 88.5071 24.7805C88.8292 24.4757 89.2388 24.2795 89.6782 24.2194C90.4988 24.1169 91.3304 24.2855 92.0463 24.6995C92.5184 24.9448 92.9504 25.2602 93.3277 25.6353C93.6637 25.9875 93.9257 26.4033 94.0984 26.8584L93.1768 27.617C93.0137 27.2197 92.7826 26.8541 92.4936 26.5362C92.2066 26.2216 91.8664 25.9596 91.4887 25.7629C91.112 25.5226 90.6671 25.4121 90.2217 25.4481C90.056 25.469 89.898 25.5301 89.7612 25.626C89.6245 25.722 89.5133 25.8498 89.4374 25.9985C89.1933 26.4667 89.3475 26.9402 89.8494 27.4032L91.0689 28.3881C91.5435 28.7367 91.9139 29.2081 92.1402 29.7517C92.222 29.9885 92.2519 30.2403 92.2276 30.4896C92.2033 30.7389 92.1256 30.9802 91.9996 31.1967C91.8508 31.5074 91.6265 31.7758 91.3473 31.9776C91.0681 32.1794 90.7428 32.3082 90.4011 32.352C89.5953 32.4192 88.788 32.2412 88.0851 31.8415Z" fill="#989898"/>
<path d="M94.91 36.1247C94.5635 35.9187 94.2633 35.6434 94.0281 35.316C93.7929 34.9886 93.6279 34.6162 93.5433 34.222C93.4711 33.4278 93.7164 32.6372 94.2256 32.0234L96.3714 28.9376L95.1206 28.0538L95.8532 27.0151L97.09 27.9029L98.4619 25.9749L99.7896 26.9128L98.4178 28.8408L100.362 30.2689L99.6395 31.2895L97.6992 29.8755L95.5286 32.8769C95.2398 33.232 95.0843 33.677 95.089 34.1347C95.1232 34.3507 95.2053 34.556 95.3295 34.7361C95.4536 34.9161 95.6165 35.0662 95.8061 35.175C95.9448 35.2725 96.0921 35.3569 96.2463 35.4273L96.722 35.5931L96.2173 36.7326C95.9794 36.7104 95.7477 36.6438 95.5342 36.5364C95.3143 36.4179 95.1054 36.2803 94.91 36.1247Z" fill="#989898"/>
<path d="M96.8658 37.488L102.141 31.6539L103.307 32.7153L102.375 33.7514C102.867 33.5526 103.406 33.4993 103.927 33.5979C104.448 33.6966 104.93 33.9429 105.315 34.3077L105.715 34.6327L104.879 35.7325L104.084 35.157C103.879 34.9493 103.632 34.788 103.36 34.6842C103.087 34.5805 102.796 34.5368 102.504 34.5556C102.213 34.5744 101.93 34.6556 101.673 34.7936C101.416 34.9317 101.192 35.1233 101.015 35.3556L98.0861 38.5796L96.8658 37.488Z" fill="#989898"/>
<path d="M103.272 44.2437C102.896 43.8368 102.604 43.3591 102.415 42.8384C102.226 42.3177 102.142 41.7647 102.168 41.2113C102.231 40.6681 102.403 40.1433 102.676 39.6696C102.949 39.196 103.317 38.7834 103.756 38.4573C104.32 37.98 104.992 37.6468 105.713 37.4864C106.37 37.3408 107.054 37.3833 107.687 37.6091C108.342 37.8601 108.918 38.2806 109.356 38.8278C109.672 39.1868 109.905 39.6105 110.039 40.0691C110.174 40.5277 110.207 41.0103 110.135 41.4828C109.93 42.4958 109.358 43.3971 108.528 44.0135L108.098 44.3686L104.429 39.9222C104.157 40.1245 103.931 40.3838 103.768 40.682C103.605 40.9801 103.51 41.3101 103.487 41.649C103.465 41.988 103.516 42.3279 103.638 42.645C103.76 42.962 103.949 43.2486 104.193 43.4851C104.482 43.8279 104.821 44.1246 105.199 44.3648C105.603 44.6188 106.053 44.7926 106.524 44.8764L105.96 45.972C105.441 45.8831 104.946 45.6852 104.508 45.3912C104.035 45.0805 103.617 44.6927 103.272 44.2437ZM108.53 39.6502C108.353 39.4107 108.128 39.2108 107.869 39.0633C107.61 38.9159 107.324 38.8242 107.028 38.794C106.402 38.7737 105.787 38.9542 105.272 39.3091L108.067 42.6997C108.544 42.3123 108.876 41.7738 109.007 41.1728C109.05 40.8859 109.025 40.5929 108.934 40.3176C108.842 40.0422 108.687 39.7923 108.481 39.5881L108.53 39.6502Z" fill="#989898"/>
<path d="M106.243 47.8721L113.099 44.0456L113.848 45.3514L112.709 45.9907C113.237 45.9759 113.757 46.1278 114.194 46.4247C114.658 46.7246 115.037 47.1388 115.294 47.6275C116.194 49.2398 115.725 50.5519 113.894 51.5924L109.662 53.9628L108.862 52.5349L113.004 50.2215C113.486 50.0092 113.878 49.6351 114.113 49.1641C114.18 48.9441 114.198 48.7119 114.165 48.4841C114.133 48.2564 114.051 48.0384 113.924 47.8461C113.792 47.5882 113.608 47.3604 113.383 47.1769C113.159 46.9933 112.899 46.8581 112.62 46.7796C112.032 46.6477 111.416 46.7518 110.905 47.0693L106.967 49.2465L106.243 47.8721Z" fill="#989898"/>
<path d="M108.684 60.0927C108.464 59.4604 108.333 58.8012 108.292 58.1331C108.258 57.5258 108.338 56.9172 108.529 56.3396L109.785 56.4596C109.629 56.975 109.555 57.5114 109.565 58.0496C109.58 58.5726 109.671 59.0907 109.833 59.5881C109.889 59.8931 110.015 60.1809 110.202 60.4289C110.388 60.6769 110.629 60.878 110.906 61.0169C111.184 61.1559 111.49 61.2286 111.8 61.2294C112.11 61.2302 112.416 61.1593 112.694 61.0217L113.874 60.6756C113.358 60.5963 112.876 60.3658 112.49 60.0135C112.081 59.6348 111.777 59.1562 111.61 58.6244C111.388 58.0096 111.347 57.3445 111.489 56.7069C111.639 56.1058 111.954 55.5587 112.399 55.1279C112.907 54.6322 113.528 54.2672 114.208 54.0637C114.869 53.8237 115.579 53.7463 116.277 53.838C116.912 53.9022 117.514 54.1492 118.011 54.5494C118.5 54.9767 118.863 55.5298 119.06 56.1486C119.241 56.6821 119.282 57.2529 119.18 57.8068C119.088 58.3185 118.836 58.7877 118.46 59.1471L119.766 58.7639L120.207 60.2669L113.384 62.5429C112.919 62.7385 112.419 62.8372 111.914 62.8331C111.409 62.8291 110.911 62.7223 110.449 62.5193C110.005 62.2554 109.62 61.9044 109.317 61.4873C109.014 61.0701 108.798 60.5956 108.684 60.0927ZM112.914 58.5468C113.004 58.8447 113.158 59.1193 113.366 59.351C113.573 59.5827 113.829 59.7656 114.116 59.8874C114.771 60.1181 115.488 60.1082 116.136 59.8592C116.81 59.6758 117.391 59.2499 117.769 58.6634C117.927 58.3968 118.022 58.0978 118.048 57.789C118.073 57.4803 118.029 57.1696 117.917 56.8806C117.83 56.5854 117.679 56.3132 117.474 56.0832C117.269 55.8532 117.017 55.6711 116.733 55.5499C116.08 55.3085 115.36 55.3184 114.713 55.5781C114.044 55.7656 113.464 56.1844 113.076 56.7599C112.919 57.0274 112.824 57.3263 112.796 57.6351C112.767 57.944 112.808 58.2554 112.914 58.5468Z" fill="#989898"/>
<path d="M113.515 67.9814C113.419 67.5935 113.403 67.19 113.468 66.7956C113.533 66.4013 113.679 66.0242 113.895 65.6882C114.406 65.0689 115.142 64.6777 115.941 64.6003L119.674 63.9624L119.445 62.5041L120.684 62.3085L120.928 63.7627L123.253 63.3702L123.528 64.983L121.202 65.3755L121.601 67.7755L120.366 67.9852L119.953 65.5893L116.332 66.1939C115.877 66.2469 115.454 66.452 115.13 66.7757C115.001 66.9524 114.913 67.1554 114.873 67.3704C114.833 67.5854 114.842 67.8068 114.899 68.018C114.932 68.181 114.978 68.3406 115.039 68.4953C115.084 68.6499 115.13 68.8045 115.249 68.9524L114.084 69.4011C113.936 69.217 113.823 69.0069 113.75 68.7818C113.643 68.5243 113.564 68.2561 113.515 67.9814Z" fill="#989898"/>
<path d="M114.02 70.2739L125.38 70.0994L125.4 71.7261L120.677 71.7995C121.121 72.0468 121.484 72.4173 121.722 72.8661C121.986 73.3304 122.138 73.8495 122.167 74.3829C122.192 76.2367 121.157 77.181 119.044 77.206L114.2 77.2845L114.181 75.6578L118.922 75.5944C119.448 75.6179 119.967 75.4657 120.397 75.1617C120.559 75.0004 120.682 74.8051 120.759 74.5899C120.836 74.3748 120.864 74.1449 120.84 73.9176C120.849 73.6261 120.796 73.3363 120.686 73.0665C120.575 72.7967 120.409 72.5532 120.198 72.3518C119.968 72.1523 119.701 72.0015 119.411 71.9082C119.122 71.8148 118.816 71.781 118.513 71.8088L114.078 71.8742L114.02 70.2739Z" fill="#989898"/>
<path d="M117.5 79.795L118.808 79.9907L118.122 84.5703L116.814 84.3742L117.5 79.795Z" fill="#989898"/>
<path d="M111.677 89.0695C111.757 88.6742 111.917 88.2995 112.148 87.9692C112.38 87.6388 112.677 87.36 113.021 87.1498C113.747 86.8147 114.575 86.7798 115.326 87.0529L118.971 88.0891L119.395 86.6221L120.592 86.9574L120.186 88.4344L122.465 89.0777L122.01 90.6456L119.745 89.9978L119.072 92.3313L117.861 91.9997L118.53 89.6525L115 88.6437C114.565 88.4942 114.092 88.4933 113.657 88.6411C113.465 88.7461 113.3 88.8927 113.172 89.07C113.045 89.2473 112.958 89.4509 112.92 89.6658C112.876 89.8285 112.848 89.9951 112.837 90.1632C112.824 90.3311 112.823 90.4999 112.832 90.668L111.585 90.5762C111.53 90.3452 111.517 90.1064 111.546 89.8707C111.564 89.6001 111.608 89.3318 111.677 89.0695Z" fill="#989898"/>
<path d="M109.653 94.2858C109.927 93.6218 110.373 93.0429 110.946 92.6096C111.486 92.2257 112.124 92.0016 112.785 91.9631C113.534 91.9412 114.276 92.1001 114.95 92.4264C115.642 92.7164 116.252 93.1715 116.727 93.7514C117.148 94.2688 117.403 94.9011 117.458 95.5658C117.521 96.2836 117.384 97.0051 117.062 97.6498C116.783 98.3004 116.34 98.8671 115.775 99.2938C115.234 99.6777 114.597 99.9018 113.935 99.9402C113.182 99.9705 112.433 99.8124 111.756 99.4807C111.07 99.1876 110.465 98.7315 109.994 98.152C109.573 97.6346 109.318 97.0023 109.263 96.3376C109.207 95.6312 109.342 94.9227 109.653 94.2858ZM110.796 94.8043C110.658 95.0763 110.584 95.3768 110.581 95.6821C110.578 95.9874 110.646 96.2894 110.779 96.5641C111.143 97.2199 111.729 97.7242 112.432 97.9862C113.096 98.3381 113.861 98.4477 114.597 98.2965C114.89 98.2131 115.159 98.0639 115.385 97.8601C115.611 97.6564 115.787 97.4034 115.9 97.121C116.04 96.8464 116.115 96.5437 116.12 96.2356C116.125 95.9275 116.059 95.6222 115.928 95.3434C115.558 94.6924 114.974 94.1898 114.275 93.9213C113.617 93.5699 112.856 93.4636 112.127 93.621C111.828 93.7003 111.552 93.8486 111.321 94.0542C111.09 94.2598 110.91 94.5166 110.796 94.8043Z" fill="#989898"/>
<path d="M110.214 101.398L111.317 102.142L108.728 105.953L107.624 105.209L110.214 101.398Z" fill="#989898"/>
<path d="M101.125 107.131C101.549 106.657 102.104 106.319 102.72 106.16C103.336 106.001 103.985 106.028 104.585 106.237C105.291 106.489 105.931 106.896 106.46 107.427C107.009 107.924 107.44 108.538 107.719 109.223C107.966 109.812 108.032 110.46 107.909 111.086C107.786 111.712 107.478 112.287 107.026 112.737C106.653 113.146 106.179 113.449 105.651 113.614C105.165 113.791 104.635 113.807 104.139 113.66L107.605 116.946L106.431 118.145L98.1917 110.34L99.2855 109.181L100.279 110.124C100.101 109.645 100.07 109.122 100.19 108.625C100.36 108.051 100.684 107.535 101.125 107.131ZM101.754 108.288C101.534 108.508 101.366 108.775 101.265 109.069C101.163 109.363 101.131 109.677 101.169 109.985C101.308 110.724 101.698 111.391 102.272 111.874C102.778 112.417 103.463 112.758 104.201 112.833C104.506 112.841 104.809 112.784 105.09 112.667C105.371 112.55 105.625 112.375 105.835 112.154C106.044 111.933 106.205 111.67 106.307 111.383C106.409 111.096 106.45 110.791 106.427 110.487C106.302 109.752 105.917 109.085 105.342 108.609C104.825 108.081 104.146 107.743 103.413 107.649C103.106 107.625 102.798 107.67 102.511 107.781C102.224 107.892 101.966 108.065 101.754 108.288Z" fill="#989898"/>
<path d="M93.7412 113.629C94.1724 113.279 94.669 113.018 95.2019 112.862C95.7349 112.706 96.2936 112.657 96.8455 112.718C97.3845 112.812 97.8981 113.017 98.3542 113.319C98.8104 113.621 99.1992 114.014 99.4961 114.474C99.9478 115.059 100.245 115.748 100.359 116.478C100.464 117.146 100.374 117.83 100.097 118.447C99.8177 119.089 99.3683 119.642 98.7974 120.048C98.4246 120.348 97.9912 120.563 97.527 120.678C97.0629 120.793 96.5792 120.805 96.1097 120.715C95.1042 120.459 94.2331 119.831 93.6722 118.958L93.3554 118.502L98.0045 115.109C97.8237 114.82 97.5815 114.573 97.2949 114.388C97.0083 114.202 96.6844 114.082 96.3462 114.036C96.008 113.99 95.6636 114.018 95.3376 114.119C95.0117 114.221 94.7121 114.393 94.4601 114.623C94.0971 114.887 93.7788 115.207 93.5176 115.571C93.2369 115.958 93.0338 116.396 92.9195 116.86L91.8634 116.224C91.9911 115.713 92.2179 115.232 92.531 114.808C92.874 114.358 93.2819 113.96 93.7412 113.629ZM98.0611 119.15C98.3114 118.987 98.5238 118.772 98.684 118.52C98.8442 118.268 98.9485 117.984 98.99 117.688C99.0586 117.069 98.9182 116.444 98.5913 115.913L95.0422 118.48C95.393 119.005 95.9164 119.391 96.5218 119.571C96.7936 119.618 97.0722 119.604 97.3382 119.532C97.6041 119.459 97.8509 119.329 98.0611 119.15Z" fill="#989898"/>
<path d="M89.9819 116.364L93.3838 123.436L91.969 124.126L91.3957 122.952C91.3621 123.474 91.1816 123.977 90.875 124.401C90.5541 124.832 90.1308 125.177 89.6434 125.403C87.9741 126.213 86.6694 125.666 85.7653 123.78L83.6593 119.409L85.1303 118.703L87.1933 122.979C87.3772 123.471 87.7301 123.881 88.1888 124.137C88.4006 124.222 88.6294 124.256 88.8569 124.237C89.0844 124.218 89.3043 124.146 89.499 124.027C89.7696 123.914 90.0132 123.745 90.2135 123.532C90.4137 123.318 90.5662 123.064 90.6606 122.786C90.7464 122.5 90.774 122.199 90.7419 121.902C90.7097 121.605 90.6185 121.317 90.4734 121.056L88.549 117.044L89.9819 116.364Z" fill="#989898"/>
<path d="M79.0877 120.674C79.6737 120.501 80.2829 120.42 80.8936 120.434C81.4202 120.431 81.9422 120.532 82.43 120.73L82.2714 121.906C81.8077 121.75 81.3245 121.661 80.8358 121.641C80.338 121.616 79.8397 121.675 79.3611 121.814C78.9165 121.905 78.5088 122.125 78.1893 122.448C78.081 122.57 78.0065 122.718 77.9731 122.877C77.9396 123.037 77.9484 123.203 77.9986 123.358C78.0241 123.48 78.0784 123.593 78.1571 123.69C78.2359 123.786 78.3367 123.862 78.4509 123.912C78.7491 124.019 79.0679 124.056 79.3827 124.02L80.8821 123.931C82.2609 123.846 83.0908 124.335 83.3899 125.407C83.4933 125.736 83.513 126.086 83.4473 126.425C83.3816 126.764 83.2325 127.081 83.0135 127.348C82.4855 127.983 81.7628 128.426 80.9573 128.607C80.4435 128.746 79.9122 128.809 79.3801 128.795C78.8912 128.775 78.4125 128.651 77.9761 128.429L78.1306 127.24C78.5245 127.43 78.9512 127.543 79.3877 127.573C79.8068 127.604 80.2283 127.563 80.6335 127.451C81.0715 127.364 81.4706 127.14 81.7731 126.812C81.8801 126.685 81.9544 126.535 81.9893 126.373C82.0243 126.211 82.0189 126.043 81.9737 125.883C81.8212 125.364 81.4034 125.135 80.6698 125.183L79.1703 125.272C78.5875 125.344 77.9961 125.253 77.4613 125.01C77.2382 124.893 77.0432 124.729 76.8897 124.529C76.7362 124.329 76.628 124.098 76.5725 123.853C76.4689 123.522 76.4504 123.17 76.5187 122.83C76.5869 122.49 76.7396 122.172 76.9628 121.907C77.5227 121.281 78.2667 120.85 79.0877 120.674Z" fill="#989898"/>
<path d="M76.0915 131.469L76.3546 133.146L74.4907 133.449L74.2136 131.776L76.0915 131.469ZM74.3815 121.947L75.6507 129.706L74.048 129.963L72.7787 122.204L74.3815 121.947Z" fill="#989898"/>
<path d="M67.2171 122.539C67.6137 122.484 68.0172 122.511 68.4029 122.618C68.7886 122.725 69.1483 122.911 69.4596 123.163C69.7403 123.443 69.9611 123.778 70.1086 124.146C70.256 124.515 70.327 124.909 70.3172 125.306L70.559 129.095L72.0585 129.006L72.1377 130.264L70.6383 130.353L70.7796 132.707L69.1637 132.815L69.0042 130.451L66.5903 130.595L66.5151 129.35L68.9249 129.193L68.7061 125.535C68.7316 125.078 68.5992 124.627 68.3312 124.256C68.168 124.109 67.9737 124 67.7627 123.938C67.5516 123.875 67.3292 123.861 67.1121 123.897C66.9473 123.922 66.7867 123.969 66.6345 124.037L66.1569 124.177L65.8025 122.969C66.0164 122.87 66.2435 122.804 66.4768 122.771C66.7145 122.667 66.9627 122.59 67.2171 122.539Z" fill="#989898"/>
<path d="M64.2819 119.815L62.6218 122.789L65.2614 130.694L63.4771 130.593L61.5757 124.423L58.6844 130.168L57.0224 130.015L62.5859 119.702L64.2819 119.815Z" fill="#989898"/>
<path d="M52.6632 120.874L50.2706 128.319L48.7691 127.829L49.2062 126.511C48.8419 126.88 48.3805 127.139 47.8754 127.257C47.3703 127.376 46.8421 127.349 46.3515 127.18L45.8238 127.045L46.1601 125.696L47.1248 125.916C47.3971 126.019 47.6882 126.063 47.9788 126.045C48.2695 126.027 48.5529 125.948 48.8104 125.812C49.0678 125.675 49.2932 125.486 49.4717 125.256C49.6502 125.026 49.7776 124.761 49.8454 124.477L51.1915 120.329L52.6632 120.874Z" fill="#989898"/>
<path d="M45.0625 117.795C45.52 118.018 45.9189 118.345 46.2274 118.75C46.5142 119.104 46.6975 119.531 46.757 119.983C46.8219 120.416 46.749 120.859 46.5488 121.249C46.35 121.705 45.9903 122.071 45.5385 122.278C45.0087 122.449 44.4387 122.451 43.9078 122.283C43.0156 122.032 42.1525 121.687 41.3328 121.254L40.8505 121.014L40.6561 121.391C40.4077 121.796 40.3206 122.278 40.4122 122.744C40.6017 123.163 40.9443 123.494 41.3698 123.668C41.7872 123.867 42.2291 124.009 42.6839 124.091C43.1918 124.176 43.709 124.188 44.2204 124.129L44.1568 125.368C43.6025 125.448 43.0384 125.427 42.4914 125.307C41.9074 125.205 41.3404 125.022 40.8065 124.764C40.3894 124.636 40.0087 124.41 39.6961 124.105C39.3835 123.8 39.1479 123.426 39.0086 123.012C38.8694 122.598 38.8305 122.157 38.8953 121.726C38.9601 121.294 39.1266 120.884 39.3812 120.529L41.5404 116.189L42.9004 116.873L42.3255 118.033C42.6861 117.728 43.1306 117.54 43.6006 117.492C44.1066 117.455 44.6127 117.56 45.0625 117.795ZM44.2606 118.701C44.0225 118.577 43.7613 118.503 43.4933 118.485C43.2253 118.466 42.9563 118.503 42.7034 118.594C42.4397 118.694 42.1985 118.845 41.9934 119.039C41.7884 119.232 41.6237 119.464 41.5089 119.722L41.3146 120.1L41.7968 120.34C42.3553 120.622 42.9351 120.86 43.5311 121.051C43.8554 121.173 44.2073 121.202 44.5471 121.134C44.6765 121.093 44.7952 121.024 44.8947 120.931C44.9941 120.839 45.0719 120.725 45.1225 120.599C45.2151 120.438 45.2693 120.257 45.2809 120.071C45.2925 119.885 45.2611 119.699 45.1893 119.527C45.0014 119.14 44.6674 118.843 44.2606 118.701Z" fill="#989898"/>
<path d="M37.161 113.065C37.5096 113.266 37.813 113.536 38.0522 113.86C38.2915 114.183 38.4615 114.553 38.5517 114.945C38.6345 115.737 38.4009 116.529 37.9017 117.15L35.7681 120.277L37.0149 121.147L36.3104 122.178L35.0454 121.298L33.6876 123.222L32.35 122.302L33.7078 120.378L31.7716 118.978L32.4902 117.944L34.4264 119.344L36.5846 116.3C36.8734 115.945 37.0289 115.5 37.0242 115.042C36.9878 114.826 36.9032 114.62 36.7767 114.441C36.6501 114.261 36.4847 114.113 36.2929 114.006C36.1581 113.909 36.0117 113.829 35.8569 113.768L35.3812 113.602L35.8678 112.453C36.1046 112.481 36.3352 112.547 36.5509 112.649C36.7683 112.766 36.9728 112.905 37.161 113.065Z" fill="#989898"/>
<path d="M29.0059 119.119L27.8608 120.416L26.4184 119.191L27.5594 117.88L29.0059 119.119ZM35.1605 111.653L30.0652 117.633L28.8292 116.592L33.9205 110.598L35.1605 111.653Z" fill="#989898"/>
<path d="M30.1362 106.643C30.6234 107.167 30.9686 107.806 31.1387 108.501C31.2824 109.151 31.232 109.829 30.9936 110.45C30.6985 111.135 30.2589 111.748 29.7051 112.247C29.1513 112.747 28.4963 113.121 27.7846 113.344C27.1429 113.521 26.463 113.502 25.8317 113.291C25.1527 113.054 24.5481 112.642 24.078 112.097C23.5953 111.584 23.2571 110.951 23.0978 110.264C22.9538 109.617 22.9993 108.941 23.2288 108.319C23.5204 107.628 23.9596 107.009 24.5157 106.506C25.0718 106.003 25.7313 105.628 26.4478 105.407C27.0931 105.242 27.7722 105.265 28.4048 105.474C29.0761 105.702 29.674 106.106 30.1362 106.643ZM29.1931 107.485C28.9973 107.249 28.7499 107.062 28.47 106.938C28.1901 106.814 27.8854 106.755 27.5794 106.768C26.8343 106.85 26.1409 107.188 25.6176 107.725C25.029 108.188 24.6268 108.848 24.4845 109.583C24.4341 109.886 24.4528 110.196 24.5391 110.49C24.6255 110.784 24.7772 111.055 24.9831 111.283C25.1803 111.516 25.428 111.702 25.7075 111.827C25.987 111.951 26.2911 112.01 26.5968 111.999C27.339 111.931 28.0319 111.598 28.5487 111.06C29.1414 110.597 29.5483 109.936 29.6958 109.198C29.7565 108.895 29.7466 108.581 29.6667 108.282C29.5868 107.982 29.4392 107.706 29.2352 107.472L29.1931 107.485Z" fill="#989898"/>
</g>
<defs>
<clipPath id="clip0_481_141">
<rect width="109.452" height="118.923" fill="white" transform="translate(0 31.5796) rotate(-16.3493)"/>
</clipPath>
</defs>
</svg>
