<svg width="190" height="191" viewBox="0 0 190 191" fill="none" xmlns="http://www.w3.org/2000/svg">
<g clip-path="url(#clip0_493_1433)">
<path d="M74.3198 27.4715C73.441 28.9936 73.9743 30.9468 75.5111 31.8341C77.0479 32.7213 79.0061 32.2066 79.8849 30.6845C80.7637 29.1624 80.2303 27.2092 78.6935 26.322C77.1568 25.4347 75.1986 25.9494 74.3198 27.4715Z" fill="#D0D0D0"/>
<path d="M110.439 160.629C109.56 162.151 110.093 164.104 111.63 164.991C113.167 165.879 115.125 165.364 116.004 163.842C116.883 162.32 116.349 160.366 114.813 159.479C113.276 158.592 111.318 159.107 110.439 160.629Z" fill="#3C3C3C"/>
<path d="M104.212 162.72C87.6972 164.865 70.9162 160.89 57.0571 151.552C43.1979 142.214 33.2262 128.163 29.0365 112.068C31.2524 113.98 33.6445 115.678 36.1806 117.141C47.3376 123.551 60.5562 125.321 72.9411 122.062C85.3259 118.803 95.8676 110.781 102.257 99.7529C106.418 92.5457 113.294 87.2983 121.379 85.1616C129.464 83.0248 138.096 84.173 145.384 88.3543C145.901 88.6524 146.404 88.9431 146.92 89.2412C158.696 96.9045 162.73 112.569 156.294 125.664C155.662 126.962 154.921 128.363 154.172 129.66C146.731 142.574 135.16 152.62 121.286 158.212L121.669 159.613C135.91 153.912 147.792 143.626 155.431 130.387C156.194 129.065 156.972 127.718 157.596 126.316C164.349 112.556 160.071 96.1518 147.704 88.0305C147.175 87.7251 146.646 87.4198 146.104 87.1072C138.483 82.7293 129.453 81.5254 120.996 83.76C112.54 85.9946 105.347 91.4851 100.998 99.026C94.7978 109.734 84.5632 117.522 72.5388 120.682C60.5144 123.843 47.6817 122.117 36.8556 115.884C33.7514 114.088 30.8725 111.929 28.2802 109.453L26.559 107.811L27.0728 110.12C30.8798 127.122 40.9739 142.125 55.3427 152.138C69.7116 162.15 87.2996 166.436 104.6 164.142L104.212 162.72Z" fill="#3C3C3C"/>
<path d="M89.1896 91.4767C95.5013 80.9699 105.717 73.3748 117.648 70.318C129.579 67.2612 142.278 68.986 153.024 75.1226C156.155 76.9304 159.059 79.1041 161.675 81.5972L163.396 83.2394L162.882 80.9308C159.081 63.9257 148.99 48.9186 134.621 38.9033C120.253 28.888 102.664 24.6005 85.3622 26.8963L85.7449 28.2978C102.263 26.1528 119.047 30.1292 132.908 39.4714C146.769 48.8136 156.74 62.8703 160.925 78.9696C158.707 77.0613 156.315 75.363 153.781 73.8972C142.701 67.5678 129.607 65.7899 117.305 68.9442C105.002 72.0985 94.471 79.9341 87.9683 90.7716C78.9828 105.87 60.1418 111.287 45.1587 102.986C44.6425 102.688 44.1136 102.382 43.5848 102.077C31.3972 94.4586 27.1638 78.6457 33.7633 65.2961C34.3951 63.9981 35.0775 62.7293 35.7975 61.4822C43.2493 48.5483 54.8306 38.4824 68.7196 32.8679L68.3366 31.4662C54.0889 37.1549 42.1933 47.4248 34.5313 60.6514C33.8113 61.8985 33.0263 63.2577 32.4106 64.6149C25.4943 78.6296 29.9562 95.2395 42.7715 103.254C43.3255 103.574 43.8793 103.893 44.4333 104.213C60.1449 112.852 79.7955 107.253 89.1896 91.4767Z" fill="#D0D0D0"/>
<path d="M55.6193 82.8047C54.734 82.8047 53.9393 82.6447 53.2353 82.3247C52.5313 82.0047 51.9767 81.5353 51.5713 80.9167C51.166 80.298 50.9633 79.546 50.9633 78.6607C50.9633 77.786 51.166 77.0393 51.5713 76.4207C51.9767 75.7913 52.5313 75.3113 53.2353 74.9807C53.9393 74.65 54.734 74.4847 55.6193 74.4847C56.5047 74.4847 57.294 74.65 57.9873 74.9807C58.6807 75.3113 59.2247 75.7913 59.6193 76.4207C60.0247 77.0393 60.2273 77.786 60.2273 78.6607C60.2273 79.546 60.0247 80.298 59.6193 80.9167C59.2247 81.5353 58.6807 82.0047 57.9873 82.3247C57.294 82.6447 56.5047 82.8047 55.6193 82.8047ZM55.6193 81.3487C56.1207 81.3487 56.5847 81.2473 57.0113 81.0447C57.438 80.8313 57.7793 80.5273 58.0353 80.1327C58.2913 79.7273 58.4193 79.2367 58.4193 78.6607C58.4193 78.0953 58.2913 77.61 58.0353 77.2047C57.7793 76.7887 57.438 76.474 57.0113 76.2607C56.5953 76.0473 56.1313 75.9407 55.6193 75.9407C55.1073 75.9407 54.6327 76.0473 54.1953 76.2607C53.7687 76.474 53.422 76.7833 53.1553 77.1887C52.8993 77.594 52.7713 78.0847 52.7713 78.6607C52.7713 79.2367 52.8993 79.7273 53.1553 80.1327C53.422 80.5273 53.7687 80.8313 54.1953 81.0447C54.6327 81.2473 55.1073 81.3487 55.6193 81.3487ZM61.4532 76.2287V74.6607H65.3572V82.6287H63.5652V76.2287H61.4532Z" fill="#D0D0D0"/>
<path d="M123.083 115.384C122.198 115.384 121.403 115.224 120.699 114.904C119.995 114.584 119.441 114.115 119.035 113.496C118.63 112.878 118.427 112.126 118.427 111.24C118.427 110.366 118.63 109.619 119.035 109C119.441 108.371 119.995 107.891 120.699 107.56C121.403 107.23 122.198 107.064 123.083 107.064C123.969 107.064 124.758 107.23 125.451 107.56C126.145 107.891 126.689 108.371 127.083 109C127.489 109.619 127.691 110.366 127.691 111.24C127.691 112.126 127.489 112.878 127.083 113.496C126.689 114.115 126.145 114.584 125.451 114.904C124.758 115.224 123.969 115.384 123.083 115.384ZM123.083 113.928C123.585 113.928 124.049 113.827 124.475 113.624C124.902 113.411 125.243 113.107 125.499 112.712C125.755 112.307 125.883 111.816 125.883 111.24C125.883 110.675 125.755 110.19 125.499 109.784C125.243 109.368 124.902 109.054 124.475 108.84C124.059 108.627 123.595 108.52 123.083 108.52C122.571 108.52 122.097 108.627 121.659 108.84C121.233 109.054 120.886 109.363 120.619 109.768C120.363 110.174 120.235 110.664 120.235 111.24C120.235 111.816 120.363 112.307 120.619 112.712C120.886 113.107 121.233 113.411 121.659 113.624C122.097 113.827 122.571 113.928 123.083 113.928ZM133.861 112.792L131.445 114.136L131.349 113.752H136.853V115.208H129.285V113.752C130.149 113.283 130.922 112.888 131.605 112.568C132.288 112.238 132.864 111.939 133.333 111.672C133.813 111.406 134.176 111.134 134.421 110.856C134.677 110.579 134.805 110.27 134.805 109.928C134.805 109.651 134.736 109.411 134.597 109.208C134.458 109.006 134.24 108.851 133.941 108.744C133.653 108.627 133.28 108.568 132.821 108.568C132.224 108.568 131.733 108.707 131.349 108.984C130.965 109.251 130.762 109.614 130.741 110.072H129.061C129.018 109.486 129.146 108.968 129.445 108.52C129.754 108.072 130.197 107.72 130.773 107.464C131.36 107.198 132.032 107.064 132.789 107.064C133.376 107.064 133.904 107.128 134.373 107.256C134.842 107.384 135.242 107.571 135.573 107.816C135.914 108.051 136.176 108.334 136.357 108.664C136.538 108.984 136.629 109.342 136.629 109.736C136.629 110.056 136.57 110.35 136.453 110.616C136.346 110.872 136.176 111.123 135.941 111.368C135.717 111.603 135.429 111.838 135.077 112.072C134.736 112.296 134.33 112.536 133.861 112.792Z" fill="#3C3C3C"/>
</g>
<defs>
<clipPath id="clip0_493_1433">
<rect width="138.241" height="139.57" fill="white" transform="translate(189.991 70.5266) rotate(120)"/>
</clipPath>
</defs>
</svg>
